<?xml version="1.0" encoding="utf-8" standalone="no"?>
<!DOCTYPE svg PUBLIC "-//W3C//DTD SVG 1.1//EN"
  "http://www.w3.org/Graphics/SVG/1.1/DTD/svg11.dtd">
<!-- Created with matplotlib (https://matplotlib.org/) -->
<svg height="266.4pt" version="1.1" viewBox="0 0 410.4 266.4" width="410.4pt" xmlns="http://www.w3.org/2000/svg" xmlns:xlink="http://www.w3.org/1999/xlink">
 <metadata>
  <rdf:RDF xmlns:cc="http://creativecommons.org/ns#" xmlns:dc="http://purl.org/dc/elements/1.1/" xmlns:rdf="http://www.w3.org/1999/02/22-rdf-syntax-ns#">
   <cc:Work>
    <dc:type rdf:resource="http://purl.org/dc/dcmitype/StillImage"/>
    <dc:date>2020-12-25T20:23:19.104646</dc:date>
    <dc:format>image/svg+xml</dc:format>
    <dc:creator>
     <cc:Agent>
      <dc:title>Matplotlib v3.3.3, https://matplotlib.org/</dc:title>
     </cc:Agent>
    </dc:creator>
   </cc:Work>
  </rdf:RDF>
 </metadata>
 <defs>
  <style type="text/css">*{stroke-linecap:butt;stroke-linejoin:round;}</style>
 </defs>
 <g id="figure_1">
  <g id="patch_1">
   <path d="M 0 266.4 
L 410.4 266.4 
L 410.4 0 
L 0 0 
z
" style="fill:none;"/>
  </g>
  <g id="axes_1">
   <g id="patch_2">
    <path d="M 39.373213 239.438647 
L 408.65 239.438647 
L 408.65 3.459249 
L 39.373213 3.459249 
z
" style="fill:#ffffff;"/>
   </g>
   <g id="matplotlib.axis_1">
    <g id="xtick_1">
     <g id="line2d_1">
      <defs>
       <path d="M 0 1.75 
L 0 -1.75 
" id="m0f738f0174" style="stroke:#000000;stroke-width:0.8;"/>
      </defs>
      <g>
       <use style="stroke:#000000;stroke-width:0.8;" x="96.560796" xlink:href="#m0f738f0174" y="239.438647"/>
      </g>
     </g>
     <g id="line2d_2">
      <g>
       <use style="stroke:#000000;stroke-width:0.8;" x="96.560796" xlink:href="#m0f738f0174" y="3.459249"/>
      </g>
     </g>
     <g id="text_1">
      <!-- $\mathdefault{0.2}$ -->
      <g transform="translate(90.195757 251.607145)scale(0.1 -0.1)">
       <defs>
        <path d="M 42 31.640625 
C 42 37.75 41.90625 48.125 37.703125 56.109375 
C 34 63.109375 28.09375 65.59375 22.90625 65.59375 
C 18.09375 65.59375 12 63.40625 8.203125 56.203125 
C 4.203125 48.71875 3.796875 39.4375 3.796875 31.640625 
C 3.796875 25.953125 3.90625 17.28125 7 9.671875 
C 11.296875 -0.609375 19 -2 22.90625 -2 
C 27.5 -2 34.5 -0.109375 38.59375 9.375 
C 41.59375 16.28125 42 24.359375 42 31.640625 
z
M 22.90625 -0.40625 
C 16.5 -0.40625 12.703125 5.078125 11.296875 12.6875 
C 10.203125 18.5625 10.203125 27.15625 10.203125 32.75 
C 10.203125 40.4375 10.203125 46.828125 11.5 52.921875 
C 13.40625 61.390625 19 64 22.90625 64 
C 27 64 32.296875 61.296875 34.203125 53.125 
C 35.5 47.4375 35.59375 40.734375 35.59375 32.75 
C 35.59375 26.25 35.59375 18.265625 34.40625 12.375 
C 32.296875 1.484375 26.40625 -0.40625 22.90625 -0.40625 
z
" id="CMR17-48"/>
        <path d="M 18.40625 4.796875 
C 18.40625 7.6875 16 9.671875 13.59375 9.671875 
C 10.703125 9.671875 8.703125 7.28125 8.703125 4.890625 
C 8.703125 2 11.09375 0 13.5 0 
C 16.40625 0 18.40625 2.390625 18.40625 4.796875 
z
" id="CMMI12-58"/>
        <path d="M 41.703125 15.453125 
L 39.90625 15.453125 
C 38.90625 8.375 38.09375 7.171875 37.703125 6.5625 
C 37.203125 5.765625 30 5.765625 28.59375 5.765625 
L 9.40625 5.765625 
C 13 9.671875 20 16.75 28.5 24.953125 
C 34.59375 30.734375 41.703125 37.53125 41.703125 47.421875 
C 41.703125 59.21875 32.296875 66 21.796875 66 
C 10.796875 66 4.09375 56.3125 4.09375 47.34375 
C 4.09375 43.4375 7 42.9375 8.203125 42.9375 
C 9.203125 42.9375 12.203125 43.546875 12.203125 47.03125 
C 12.203125 50.109375 9.59375 51 8.203125 51 
C 7.59375 51 7 50.90625 6.59375 50.703125 
C 8.5 59.21875 14.296875 63.40625 20.40625 63.40625 
C 29.09375 63.40625 34.796875 56.515625 34.796875 47.421875 
C 34.796875 38.734375 29.703125 31.25 24 24.75 
L 4.09375 2.28125 
L 4.09375 0 
L 39.296875 0 
z
" id="CMR17-50"/>
       </defs>
       <use transform="scale(0.996264)" xlink:href="#CMR17-48"/>
       <use transform="translate(45.690477 0)scale(0.996264)" xlink:href="#CMMI12-58"/>
       <use transform="translate(72.787654 0)scale(0.996264)" xlink:href="#CMR17-50"/>
      </g>
     </g>
    </g>
    <g id="xtick_2">
     <g id="line2d_3">
      <g>
       <use style="stroke:#000000;stroke-width:0.8;" x="170.38677" xlink:href="#m0f738f0174" y="239.438647"/>
      </g>
     </g>
     <g id="line2d_4">
      <g>
       <use style="stroke:#000000;stroke-width:0.8;" x="170.38677" xlink:href="#m0f738f0174" y="3.459249"/>
      </g>
     </g>
     <g id="text_2">
      <!-- $\mathdefault{0.4}$ -->
      <g transform="translate(164.021731 251.607145)scale(0.1 -0.1)">
       <defs>
        <path d="M 33.59375 64.40625 
C 33.59375 66.5 33.5 66.5 31.703125 66.5 
L 2 19.59375 
L 2 17 
L 27.796875 17 
L 27.796875 7.140625 
C 27.796875 3.5 27.59375 2.5 20.59375 2.5 
L 18.703125 2.5 
L 18.703125 0 
C 21.90625 0 27.296875 0 30.703125 0 
C 34.09375 0 39.5 0 42.703125 0 
L 42.703125 2.5 
L 40.796875 2.5 
C 33.796875 2.5 33.59375 3.5 33.59375 7.140625 
L 33.59375 17 
L 43.796875 17 
L 43.796875 19.59375 
L 33.59375 19.59375 
z
M 28.09375 57.859375 
L 28.09375 19.59375 
L 4 19.59375 
z
" id="CMR17-52"/>
       </defs>
       <use transform="scale(0.996264)" xlink:href="#CMR17-48"/>
       <use transform="translate(45.690477 0)scale(0.996264)" xlink:href="#CMMI12-58"/>
       <use transform="translate(72.787654 0)scale(0.996264)" xlink:href="#CMR17-52"/>
      </g>
     </g>
    </g>
    <g id="xtick_3">
     <g id="line2d_5">
      <g>
       <use style="stroke:#000000;stroke-width:0.8;" x="244.212744" xlink:href="#m0f738f0174" y="239.438647"/>
      </g>
     </g>
     <g id="line2d_6">
      <g>
       <use style="stroke:#000000;stroke-width:0.8;" x="244.212744" xlink:href="#m0f738f0174" y="3.459249"/>
      </g>
     </g>
     <g id="text_3">
      <!-- $\mathdefault{0.6}$ -->
      <g transform="translate(237.847704 251.607145)scale(0.1 -0.1)">
       <defs>
        <path d="M 10.59375 34 
C 10.59375 57.65625 21.796875 63 28.296875 63 
C 30.40625 63 35.5 62.640625 37.5 59 
C 35.90625 59 32.90625 59 32.90625 55.515625 
C 32.90625 52.828125 35.09375 51.921875 36.5 51.921875 
C 37.40625 51.921875 40.09375 52.3125 40.09375 55.625 
C 40.09375 61.78125 35.09375 65.296875 28.203125 65.296875 
C 16.296875 65.296875 3.796875 52.96875 3.796875 31 
C 3.796875 3.953125 15.09375 -2 23.09375 -2 
C 32.796875 -2 42 6.671875 42 20.046875 
C 42 32.515625 33.90625 41.59375 23.703125 41.59375 
C 17.59375 41.59375 13.09375 37.609375 10.59375 30.625 
z
M 23.09375 0.390625 
C 10.796875 0.390625 10.796875 18.75 10.796875 22.4375 
C 10.796875 29.625 14.203125 40 23.5 40 
C 25.203125 40 30.09375 40 33.40625 33.125 
C 35.203125 29.21875 35.203125 25.140625 35.203125 20.140625 
C 35.203125 14.75 35.203125 10.78125 33.09375 6.78125 
C 30.90625 2.671875 27.703125 0.390625 23.09375 0.390625 
z
" id="CMR17-54"/>
       </defs>
       <use transform="scale(0.996264)" xlink:href="#CMR17-48"/>
       <use transform="translate(45.690477 0)scale(0.996264)" xlink:href="#CMMI12-58"/>
       <use transform="translate(72.787654 0)scale(0.996264)" xlink:href="#CMR17-54"/>
      </g>
     </g>
    </g>
    <g id="xtick_4">
     <g id="line2d_7">
      <g>
       <use style="stroke:#000000;stroke-width:0.8;" x="318.038718" xlink:href="#m0f738f0174" y="239.438647"/>
      </g>
     </g>
     <g id="line2d_8">
      <g>
       <use style="stroke:#000000;stroke-width:0.8;" x="318.038718" xlink:href="#m0f738f0174" y="3.459249"/>
      </g>
     </g>
     <g id="text_4">
      <!-- $\mathdefault{0.8}$ -->
      <g transform="translate(311.673678 251.607145)scale(0.1 -0.1)">
       <defs>
        <path d="M 27.203125 35.375 
C 33.5 38.546875 39.90625 43.328125 39.90625 50.984375 
C 39.90625 60.015625 31.09375 65.296875 23 65.296875 
C 13.90625 65.296875 5.90625 58.734375 5.90625 49.6875 
C 5.90625 47.203125 6.5 42.921875 10.40625 39.140625 
C 11.40625 38.15625 15.59375 35.171875 18.296875 33.28125 
C 13.796875 30.984375 3.296875 25.53125 3.296875 14.59375 
C 3.296875 4.359375 13.09375 -2 22.796875 -2 
C 33.5 -2 42.5 5.65625 42.5 15.78125 
C 42.5 24.84375 36.40625 29.015625 32.40625 31.703125 
z
M 14.09375 44.09375 
C 13.296875 44.59375 9.296875 47.671875 9.296875 52.359375 
C 9.296875 58.421875 15.59375 63 22.796875 63 
C 30.703125 63 36.5 57.4375 36.5 50.96875 
C 36.5 41.703125 26.09375 36.421875 25.59375 36.421875 
C 25.5 36.421875 25.40625 36.421875 24.59375 37.03125 
z
M 32.5 23.734375 
C 34 22.640625 38.796875 19.375 38.796875 13.296875 
C 38.796875 5.953125 31.40625 0.390625 23 0.390625 
C 13.90625 0.390625 7 6.84375 7 14.6875 
C 7 22.546875 13.09375 29.09375 20 32.1875 
z
" id="CMR17-56"/>
       </defs>
       <use transform="scale(0.996264)" xlink:href="#CMR17-48"/>
       <use transform="translate(45.690477 0)scale(0.996264)" xlink:href="#CMMI12-58"/>
       <use transform="translate(72.787654 0)scale(0.996264)" xlink:href="#CMR17-56"/>
      </g>
     </g>
    </g>
    <g id="xtick_5">
     <g id="line2d_9">
      <g>
       <use style="stroke:#000000;stroke-width:0.8;" x="391.864692" xlink:href="#m0f738f0174" y="239.438647"/>
      </g>
     </g>
     <g id="line2d_10">
      <g>
       <use style="stroke:#000000;stroke-width:0.8;" x="391.864692" xlink:href="#m0f738f0174" y="3.459249"/>
      </g>
     </g>
     <g id="text_5">
      <!-- $\mathdefault{1.0}$ -->
      <g transform="translate(385.499652 251.607145)scale(0.1 -0.1)">
       <defs>
        <path d="M 26.59375 63.40625 
C 26.59375 65.5 26.5 65.5 25.09375 65.5 
C 21.203125 61.1875 15.296875 59.796875 9.703125 59.796875 
C 9.40625 59.796875 8.90625 59.796875 8.796875 59.5 
C 8.703125 59.296875 8.703125 59.09375 8.703125 57 
C 11.796875 57 17 57.59375 21 59.984375 
L 21 7.203125 
C 21 3.6875 20.796875 2.5 12.203125 2.5 
L 9.203125 2.5 
L 9.203125 0 
C 14 0 19 0 23.796875 0 
C 28.59375 0 33.59375 0 38.40625 0 
L 38.40625 2.5 
L 35.40625 2.5 
C 26.796875 2.5 26.59375 3.59375 26.59375 7.15625 
z
" id="CMR17-49"/>
       </defs>
       <use transform="scale(0.996264)" xlink:href="#CMR17-49"/>
       <use transform="translate(45.690477 0)scale(0.996264)" xlink:href="#CMMI12-58"/>
       <use transform="translate(72.787654 0)scale(0.996264)" xlink:href="#CMR17-48"/>
      </g>
     </g>
    </g>
    <g id="text_6">
     <!-- scale factor $a$ -->
     <g transform="translate(196.153656 264.462822)scale(0.1 -0.1)">
      <defs>
       <path d="M 32.203125 41.046875 
C 26.296875 43.859375 21.703125 43.859375 18.703125 43.859375 
C 11.59375 43.859375 3.09375 41.375 3.09375 31.296875 
C 3.09375 21.234375 14.09375 19.03125 17.09375 18.421875 
C 21.703125 17.53125 26.796875 16.53125 26.796875 11.5625 
C 26.796875 5.265625 19.59375 5.265625 18.296875 5.265625 
C 14.296875 5.265625 8.796875 6.359375 3.796875 9.96875 
L 2.59375 3.28125 
C 8.296875 0 13.796875 -1 18.40625 -1 
C 30.703125 -1 33.796875 6.5 33.796875 12.203125 
C 33.796875 17.09375 31 20.390625 29.09375 21.890625 
C 25.796875 24.5 24.59375 24.796875 16.40625 26.5 
C 15 26.703125 10.09375 27.796875 10.09375 32.28125 
C 10.09375 38 16.40625 38 17.796875 38 
C 24.296875 38 28.296875 35.984375 31 34.5 
z
" id="CMSS17-115"/>
       <path d="M 38.5 39.703125 
C 38.5 40.390625 33.90625 42.40625 32.703125 42.796875 
C 29.40625 44 25.203125 44 24.09375 44 
C 11.09375 44 3.296875 32.703125 3.296875 21.296875 
C 3.296875 9.296875 12 -1 23.703125 -1 
C 30.40625 -1 35.203125 1.1875 39.09375 3.78125 
L 38.5 10.375 
C 34.203125 7.078125 29.203125 5.265625 23.796875 5.265625 
C 16 5.265625 10.90625 12.09375 10.90625 21.390625 
C 10.90625 28.609375 14.203125 37.71875 24.203125 37.71875 
C 29.703125 37.71875 32.796875 36.609375 37.40625 33.515625 
z
" id="CMSS17-99"/>
       <path d="M 37.59375 27.984375 
C 37.59375 37.375 30.90625 43.875 21.90625 43.875 
C 17.5 43.875 12.703125 43.078125 7.203125 39.890625 
L 7.796875 33.359375 
C 10.296875 35.125 14.59375 38 21.796875 38 
C 26.90625 38 30 34.0625 30 27.84375 
L 30 24 
C 14 24 4 19.34375 4 11.34375 
C 4 7.203125 6.5 -1 14.796875 -1 
C 16.296875 -1 24.40625 -1 30.203125 3.390625 
L 30.203125 -0.296875 
L 37.59375 -0.296875 
z
M 30 12.75 
C 30 10.953125 30 8.5625 27 6.78125 
C 24.40625 5.078125 21.09375 5.078125 19.703125 5.078125 
C 14.703125 5.078125 11.296875 7.984375 11.296875 11.625 
C 11.296875 18.921875 26.90625 18.921875 30 18.921875 
z
" id="CMSS17-97"/>
       <path d="M 14.796875 69 
L 7.40625 69 
L 7.40625 0 
L 14.796875 0 
z
" id="CMSS17-108"/>
       <path d="M 39.09375 21.515625 
C 39.09375 24.84375 38.90625 31.296875 35.703125 36.640625 
C 32.203125 42.390625 26.5 44 22.203125 44 
C 11.796875 44 3 34.1875 3 21.484375 
C 3 9.09375 12.09375 -1 23.59375 -1 
C 28.09375 -1 33.59375 0.296875 38.59375 3.875 
C 38.59375 4.28125 38.40625 6.46875 38.296875 6.5625 
C 38.296875 6.765625 38 9.84375 38 10.25 
C 33.203125 6.359375 27.703125 5.078125 23.703125 5.078125 
C 17.296875 5.078125 10.40625 10.421875 10.09375 21.515625 
z
M 10.90625 27 
C 12.203125 32.5625 16.59375 37.828125 22.203125 37.828125 
C 23.703125 37.828125 30.703125 37.828125 32.5 27 
z
" id="CMSS17-101"/>
       <path d="M 16.796875 37 
L 26.90625 37 
L 26.90625 42.765625 
L 16.59375 42.765625 
L 16.59375 55.609375 
C 16.59375 62.71875 22 63.9375 25.09375 63.9375 
C 26.09375 63.9375 28.90625 63.9375 32.5 62.640625 
L 32.5 69.203125 
C 30.203125 69.703125 27.40625 70 25.203125 70 
C 15.90625 70 9.40625 62.390625 9.40625 52.484375 
L 9.40625 42.765625 
L 2.5 42.765625 
L 2.5 37 
L 9.40625 37 
L 9.40625 0 
L 16.796875 0 
z
" id="CMSS17-102"/>
       <path d="M 16.703125 37 
L 29.703125 37 
L 29.703125 42.765625 
L 16.703125 42.765625 
L 16.703125 55 
L 9.59375 55 
L 9.59375 42.765625 
L 1.703125 42.765625 
L 1.703125 37 
L 9.40625 37 
L 9.40625 11.703125 
C 9.40625 6 10.703125 -1 17.296875 -1 
C 22.296875 -1 26.90625 0.390625 31.296875 2.6875 
L 29.703125 8.5625 
C 27.296875 6.46875 24.40625 5.265625 21.296875 5.265625 
C 16.90625 5.265625 16.703125 10.875 16.703125 13.375 
z
" id="CMSS17-116"/>
       <path d="M 44.203125 21.1875 
C 44.203125 34 34.703125 44 23.5 44 
C 12 44 2.703125 33.703125 2.703125 21.1875 
C 2.703125 8.5 12.296875 -1 23.40625 -1 
C 34.796875 -1 44.203125 8.796875 44.203125 21.1875 
z
M 23.5 5.265625 
C 16.40625 5.265625 10.296875 11.078125 10.296875 22 
C 10.296875 33.609375 17.40625 37.921875 23.40625 37.921875 
C 29.90625 37.921875 36.59375 33.21875 36.59375 22 
C 36.59375 10.671875 30.09375 5.265625 23.5 5.265625 
z
" id="CMSS17-111"/>
       <path d="M 14.90625 21.296875 
C 14.90625 30.703125 21.796875 37 30.59375 37 
L 30.59375 43.578125 
C 24.203125 43.578125 18.203125 40.390625 14.59375 35.203125 
L 14.59375 43.09375 
L 7.5 43.09375 
L 7.5 0 
L 14.90625 0 
z
" id="CMSS17-114"/>
       <path d="M 30.09375 11.875 
C 29.59375 10.171875 29.59375 9.984375 28.203125 8.078125 
C 26 5.28125 21.59375 1 16.90625 1 
C 12.796875 1 10.5 4.6875 10.5 10.578125 
C 10.5 16.0625 13.59375 27.234375 15.5 31.4375 
C 18.90625 38.421875 23.59375 42.015625 27.5 42.015625 
C 34.09375 42.015625 35.40625 33.828125 35.40625 33.03125 
C 35.40625 32.9375 35.09375 31.625 35 31.4375 
z
M 36.5 37.421875 
C 35.40625 40.015625 32.703125 44 27.5 44 
C 16.203125 44 4 29.4375 4 14.671875 
C 4 4.796875 9.796875 -1 16.59375 -1 
C 22.09375 -1 26.796875 3.296875 29.59375 6.59375 
C 30.59375 0.703125 35.296875 -1 38.296875 -1 
C 41.296875 -1 43.703125 0.796875 45.5 4.390625 
C 47.09375 7.78125 48.5 13.875 48.5 14.265625 
C 48.5 14.765625 48.09375 15.171875 47.5 15.171875 
C 46.59375 15.171875 46.5 14.671875 46.09375 13.171875 
C 44.59375 7.28125 42.703125 1 38.59375 1 
C 35.703125 1 35.5 3.59375 35.5 5.59375 
C 35.5 7.890625 35.796875 8.984375 36.703125 12.875 
C 37.40625 15.375 37.90625 17.5625 38.703125 20.453125 
C 42.40625 35.421875 43.296875 39.015625 43.296875 39.609375 
C 43.296875 41.015625 42.203125 42.109375 40.703125 42.109375 
C 37.5 42.109375 36.703125 38.625 36.5 37.421875 
z
" id="CMMI12-97"/>
      </defs>
      <use transform="scale(0.996264)" xlink:href="#CMSS17-115"/>
      <use transform="translate(35.913542 0)scale(0.996264)" xlink:href="#CMSS17-99"/>
      <use transform="translate(77.552364 0)scale(0.996264)" xlink:href="#CMSS17-97"/>
      <use transform="translate(122.474285 0)scale(0.996264)" xlink:href="#CMSS17-108"/>
      <use transform="translate(144.655008 0)scale(0.996264)" xlink:href="#CMSS17-101"/>
      <use transform="translate(217.522943 0)scale(0.996264)" xlink:href="#CMSS17-102"/>
      <use transform="translate(246.149601 0)scale(0.996264)" xlink:href="#CMSS17-97"/>
      <use transform="translate(291.071522 0)scale(0.996264)" xlink:href="#CMSS17-99"/>
      <use transform="translate(332.710344 0)scale(0.996264)" xlink:href="#CMSS17-116"/>
      <use transform="translate(366.541911 0)scale(0.996264)" xlink:href="#CMSS17-111"/>
      <use transform="translate(410.78308 0)scale(0.996264)" xlink:href="#CMSS17-114"/>
      <use transform="translate(473.921966 0)scale(0.996264)" xlink:href="#CMMI12-97"/>
     </g>
    </g>
   </g>
   <g id="matplotlib.axis_2">
    <g id="ytick_1">
     <g id="line2d_11">
      <defs>
       <path d="M 1.75 0 
L -1.75 -0 
" id="m79f97679fa" style="stroke:#000000;stroke-width:0.8;"/>
      </defs>
      <g>
       <use style="stroke:#000000;stroke-width:0.8;" x="39.373213" xlink:href="#m79f97679fa" y="239.438647"/>
      </g>
     </g>
     <g id="line2d_12">
      <g>
       <use style="stroke:#000000;stroke-width:0.8;" x="408.65" xlink:href="#m79f97679fa" y="239.438647"/>
      </g>
     </g>
     <g id="text_7">
      <!-- $\mathdefault{10^{-3}}$ -->
      <g transform="translate(13.96264 242.897896)scale(0.1 -0.1)">
       <defs>
        <path d="M 65.90625 23 
C 67.59375 23 69.40625 23 69.40625 25 
C 69.40625 27 67.59375 27 65.90625 27 
L 11.796875 27 
C 10.09375 27 8.296875 27 8.296875 25 
C 8.296875 23 10.09375 23 11.796875 23 
z
" id="CMSY10-0"/>
        <path d="M 22.09375 33.703125 
C 31 33.703125 34.90625 25.96875 34.90625 17.03125 
C 34.90625 5 28.5 0.390625 22.703125 0.390625 
C 17.40625 0.390625 8.796875 3.03125 6.09375 10.828125 
C 6.59375 10.625 7.09375 10.625 7.59375 10.625 
C 10 10.625 11.796875 12.21875 11.796875 14.8125 
C 11.796875 17.703125 9.59375 19 7.59375 19 
C 5.90625 19 3.296875 18.203125 3.296875 14.46875 
C 3.296875 5.234375 12.296875 -2 22.90625 -2 
C 34 -2 42.5 6.71875 42.5 16.953125 
C 42.5 26.671875 34.5 33.703125 25 34.796875 
C 32.59375 36.375 39.90625 43.0625 39.90625 52.015625 
C 39.90625 59.6875 32 65.296875 23 65.296875 
C 13.90625 65.296875 5.90625 59.828125 5.90625 52.015625 
C 5.90625 48.59375 8.5 48 9.796875 48 
C 11.90625 48 13.703125 49.296875 13.703125 51.890625 
C 13.703125 54.46875 11.90625 55.765625 9.796875 55.765625 
C 9.40625 55.765625 8.90625 55.765625 8.5 55.578125 
C 11.40625 61.859375 19.296875 63 22.796875 63 
C 26.296875 63 32.90625 61.328125 32.90625 51.875 
C 32.90625 49.109375 32.5 44.1875 29.09375 39.84375 
C 26.09375 36 22.703125 36 19.40625 35.6875 
C 18.90625 35.6875 16.59375 35.453125 16.203125 35.453125 
C 15.5 35.359375 15.09375 35.265625 15.09375 34.5 
C 15.09375 33.796875 15.203125 33.703125 17.203125 33.703125 
z
" id="CMR17-51"/>
       </defs>
       <use transform="scale(0.996264)" xlink:href="#CMR17-49"/>
       <use transform="translate(45.690477 0)scale(0.996264)" xlink:href="#CMR17-48"/>
       <use transform="translate(91.380954 36.153639)scale(0.697382)" xlink:href="#CMSY10-0"/>
       <use transform="translate(145.621947 36.153639)scale(0.697382)" xlink:href="#CMR17-51"/>
      </g>
     </g>
    </g>
    <g id="ytick_2">
     <g id="line2d_13">
      <g>
       <use style="stroke:#000000;stroke-width:0.8;" x="39.373213" xlink:href="#m79f97679fa" y="160.778847"/>
      </g>
     </g>
     <g id="line2d_14">
      <g>
       <use style="stroke:#000000;stroke-width:0.8;" x="408.65" xlink:href="#m79f97679fa" y="160.778847"/>
      </g>
     </g>
     <g id="text_8">
      <!-- $\mathdefault{10^{-2}}$ -->
      <g transform="translate(13.96264 164.238097)scale(0.1 -0.1)">
       <use transform="scale(0.996264)" xlink:href="#CMR17-49"/>
       <use transform="translate(45.690477 0)scale(0.996264)" xlink:href="#CMR17-48"/>
       <use transform="translate(91.380954 36.153639)scale(0.697382)" xlink:href="#CMSY10-0"/>
       <use transform="translate(145.621947 36.153639)scale(0.697382)" xlink:href="#CMR17-50"/>
      </g>
     </g>
    </g>
    <g id="ytick_3">
     <g id="line2d_15">
      <g>
       <use style="stroke:#000000;stroke-width:0.8;" x="39.373213" xlink:href="#m79f97679fa" y="82.119048"/>
      </g>
     </g>
     <g id="line2d_16">
      <g>
       <use style="stroke:#000000;stroke-width:0.8;" x="408.65" xlink:href="#m79f97679fa" y="82.119048"/>
      </g>
     </g>
     <g id="text_9">
      <!-- $\mathdefault{10^{-1}}$ -->
      <g transform="translate(13.96264 85.578298)scale(0.1 -0.1)">
       <use transform="scale(0.996264)" xlink:href="#CMR17-49"/>
       <use transform="translate(45.690477 0)scale(0.996264)" xlink:href="#CMR17-48"/>
       <use transform="translate(91.380954 36.153639)scale(0.697382)" xlink:href="#CMSY10-0"/>
       <use transform="translate(145.621947 36.153639)scale(0.697382)" xlink:href="#CMR17-49"/>
      </g>
     </g>
    </g>
    <g id="ytick_4">
     <g id="line2d_17">
      <g>
       <use style="stroke:#000000;stroke-width:0.8;" x="39.373213" xlink:href="#m79f97679fa" y="3.459249"/>
      </g>
     </g>
     <g id="line2d_18">
      <g>
       <use style="stroke:#000000;stroke-width:0.8;" x="408.65" xlink:href="#m79f97679fa" y="3.459249"/>
      </g>
     </g>
     <g id="text_10">
      <!-- $\mathdefault{10^{0}}$ -->
      <g transform="translate(20.189305 6.918498)scale(0.1 -0.1)">
       <use transform="scale(0.996264)" xlink:href="#CMR17-49"/>
       <use transform="translate(45.690477 0)scale(0.996264)" xlink:href="#CMR17-48"/>
       <use transform="translate(91.380954 36.153639)scale(0.697382)" xlink:href="#CMR17-48"/>
      </g>
     </g>
    </g>
    <g id="ytick_5">
     <g id="line2d_19">
      <defs>
       <path d="M 1 0 
L -1 -0 
" id="md8b920372b" style="stroke:#000000;stroke-width:0.6;"/>
      </defs>
      <g>
       <use style="stroke:#000000;stroke-width:0.6;" x="39.373213" xlink:href="#md8b920372b" y="215.759688"/>
      </g>
     </g>
     <g id="line2d_20">
      <g>
       <use style="stroke:#000000;stroke-width:0.6;" x="408.65" xlink:href="#md8b920372b" y="215.759688"/>
      </g>
     </g>
    </g>
    <g id="ytick_6">
     <g id="line2d_21">
      <g>
       <use style="stroke:#000000;stroke-width:0.6;" x="39.373213" xlink:href="#md8b920372b" y="201.908385"/>
      </g>
     </g>
     <g id="line2d_22">
      <g>
       <use style="stroke:#000000;stroke-width:0.6;" x="408.65" xlink:href="#md8b920372b" y="201.908385"/>
      </g>
     </g>
    </g>
    <g id="ytick_7">
     <g id="line2d_23">
      <g>
       <use style="stroke:#000000;stroke-width:0.6;" x="39.373213" xlink:href="#md8b920372b" y="192.080729"/>
      </g>
     </g>
     <g id="line2d_24">
      <g>
       <use style="stroke:#000000;stroke-width:0.6;" x="408.65" xlink:href="#md8b920372b" y="192.080729"/>
      </g>
     </g>
    </g>
    <g id="ytick_8">
     <g id="line2d_25">
      <g>
       <use style="stroke:#000000;stroke-width:0.6;" x="39.373213" xlink:href="#md8b920372b" y="184.457806"/>
      </g>
     </g>
     <g id="line2d_26">
      <g>
       <use style="stroke:#000000;stroke-width:0.6;" x="408.65" xlink:href="#md8b920372b" y="184.457806"/>
      </g>
     </g>
    </g>
    <g id="ytick_9">
     <g id="line2d_27">
      <g>
       <use style="stroke:#000000;stroke-width:0.6;" x="39.373213" xlink:href="#md8b920372b" y="178.229426"/>
      </g>
     </g>
     <g id="line2d_28">
      <g>
       <use style="stroke:#000000;stroke-width:0.6;" x="408.65" xlink:href="#md8b920372b" y="178.229426"/>
      </g>
     </g>
    </g>
    <g id="ytick_10">
     <g id="line2d_29">
      <g>
       <use style="stroke:#000000;stroke-width:0.6;" x="39.373213" xlink:href="#md8b920372b" y="172.963405"/>
      </g>
     </g>
     <g id="line2d_30">
      <g>
       <use style="stroke:#000000;stroke-width:0.6;" x="408.65" xlink:href="#md8b920372b" y="172.963405"/>
      </g>
     </g>
    </g>
    <g id="ytick_11">
     <g id="line2d_31">
      <g>
       <use style="stroke:#000000;stroke-width:0.6;" x="39.373213" xlink:href="#md8b920372b" y="168.40177"/>
      </g>
     </g>
     <g id="line2d_32">
      <g>
       <use style="stroke:#000000;stroke-width:0.6;" x="408.65" xlink:href="#md8b920372b" y="168.40177"/>
      </g>
     </g>
    </g>
    <g id="ytick_12">
     <g id="line2d_33">
      <g>
       <use style="stroke:#000000;stroke-width:0.6;" x="39.373213" xlink:href="#md8b920372b" y="164.378122"/>
      </g>
     </g>
     <g id="line2d_34">
      <g>
       <use style="stroke:#000000;stroke-width:0.6;" x="408.65" xlink:href="#md8b920372b" y="164.378122"/>
      </g>
     </g>
    </g>
    <g id="ytick_13">
     <g id="line2d_35">
      <g>
       <use style="stroke:#000000;stroke-width:0.6;" x="39.373213" xlink:href="#md8b920372b" y="137.099888"/>
      </g>
     </g>
     <g id="line2d_36">
      <g>
       <use style="stroke:#000000;stroke-width:0.6;" x="408.65" xlink:href="#md8b920372b" y="137.099888"/>
      </g>
     </g>
    </g>
    <g id="ytick_14">
     <g id="line2d_37">
      <g>
       <use style="stroke:#000000;stroke-width:0.6;" x="39.373213" xlink:href="#md8b920372b" y="123.248585"/>
      </g>
     </g>
     <g id="line2d_38">
      <g>
       <use style="stroke:#000000;stroke-width:0.6;" x="408.65" xlink:href="#md8b920372b" y="123.248585"/>
      </g>
     </g>
    </g>
    <g id="ytick_15">
     <g id="line2d_39">
      <g>
       <use style="stroke:#000000;stroke-width:0.6;" x="39.373213" xlink:href="#md8b920372b" y="113.420929"/>
      </g>
     </g>
     <g id="line2d_40">
      <g>
       <use style="stroke:#000000;stroke-width:0.6;" x="408.65" xlink:href="#md8b920372b" y="113.420929"/>
      </g>
     </g>
    </g>
    <g id="ytick_16">
     <g id="line2d_41">
      <g>
       <use style="stroke:#000000;stroke-width:0.6;" x="39.373213" xlink:href="#md8b920372b" y="105.798007"/>
      </g>
     </g>
     <g id="line2d_42">
      <g>
       <use style="stroke:#000000;stroke-width:0.6;" x="408.65" xlink:href="#md8b920372b" y="105.798007"/>
      </g>
     </g>
    </g>
    <g id="ytick_17">
     <g id="line2d_43">
      <g>
       <use style="stroke:#000000;stroke-width:0.6;" x="39.373213" xlink:href="#md8b920372b" y="99.569626"/>
      </g>
     </g>
     <g id="line2d_44">
      <g>
       <use style="stroke:#000000;stroke-width:0.6;" x="408.65" xlink:href="#md8b920372b" y="99.569626"/>
      </g>
     </g>
    </g>
    <g id="ytick_18">
     <g id="line2d_45">
      <g>
       <use style="stroke:#000000;stroke-width:0.6;" x="39.373213" xlink:href="#md8b920372b" y="94.303605"/>
      </g>
     </g>
     <g id="line2d_46">
      <g>
       <use style="stroke:#000000;stroke-width:0.6;" x="408.65" xlink:href="#md8b920372b" y="94.303605"/>
      </g>
     </g>
    </g>
    <g id="ytick_19">
     <g id="line2d_47">
      <g>
       <use style="stroke:#000000;stroke-width:0.6;" x="39.373213" xlink:href="#md8b920372b" y="89.74197"/>
      </g>
     </g>
     <g id="line2d_48">
      <g>
       <use style="stroke:#000000;stroke-width:0.6;" x="408.65" xlink:href="#md8b920372b" y="89.74197"/>
      </g>
     </g>
    </g>
    <g id="ytick_20">
     <g id="line2d_49">
      <g>
       <use style="stroke:#000000;stroke-width:0.6;" x="39.373213" xlink:href="#md8b920372b" y="85.718323"/>
      </g>
     </g>
     <g id="line2d_50">
      <g>
       <use style="stroke:#000000;stroke-width:0.6;" x="408.65" xlink:href="#md8b920372b" y="85.718323"/>
      </g>
     </g>
    </g>
    <g id="ytick_21">
     <g id="line2d_51">
      <g>
       <use style="stroke:#000000;stroke-width:0.6;" x="39.373213" xlink:href="#md8b920372b" y="58.440089"/>
      </g>
     </g>
     <g id="line2d_52">
      <g>
       <use style="stroke:#000000;stroke-width:0.6;" x="408.65" xlink:href="#md8b920372b" y="58.440089"/>
      </g>
     </g>
    </g>
    <g id="ytick_22">
     <g id="line2d_53">
      <g>
       <use style="stroke:#000000;stroke-width:0.6;" x="39.373213" xlink:href="#md8b920372b" y="44.588786"/>
      </g>
     </g>
     <g id="line2d_54">
      <g>
       <use style="stroke:#000000;stroke-width:0.6;" x="408.65" xlink:href="#md8b920372b" y="44.588786"/>
      </g>
     </g>
    </g>
    <g id="ytick_23">
     <g id="line2d_55">
      <g>
       <use style="stroke:#000000;stroke-width:0.6;" x="39.373213" xlink:href="#md8b920372b" y="34.76113"/>
      </g>
     </g>
     <g id="line2d_56">
      <g>
       <use style="stroke:#000000;stroke-width:0.6;" x="408.65" xlink:href="#md8b920372b" y="34.76113"/>
      </g>
     </g>
    </g>
    <g id="ytick_24">
     <g id="line2d_57">
      <g>
       <use style="stroke:#000000;stroke-width:0.6;" x="39.373213" xlink:href="#md8b920372b" y="27.138208"/>
      </g>
     </g>
     <g id="line2d_58">
      <g>
       <use style="stroke:#000000;stroke-width:0.6;" x="408.65" xlink:href="#md8b920372b" y="27.138208"/>
      </g>
     </g>
    </g>
    <g id="ytick_25">
     <g id="line2d_59">
      <g>
       <use style="stroke:#000000;stroke-width:0.6;" x="39.373213" xlink:href="#md8b920372b" y="20.909827"/>
      </g>
     </g>
     <g id="line2d_60">
      <g>
       <use style="stroke:#000000;stroke-width:0.6;" x="408.65" xlink:href="#md8b920372b" y="20.909827"/>
      </g>
     </g>
    </g>
    <g id="ytick_26">
     <g id="line2d_61">
      <g>
       <use style="stroke:#000000;stroke-width:0.6;" x="39.373213" xlink:href="#md8b920372b" y="15.643806"/>
      </g>
     </g>
     <g id="line2d_62">
      <g>
       <use style="stroke:#000000;stroke-width:0.6;" x="408.65" xlink:href="#md8b920372b" y="15.643806"/>
      </g>
     </g>
    </g>
    <g id="ytick_27">
     <g id="line2d_63">
      <g>
       <use style="stroke:#000000;stroke-width:0.6;" x="39.373213" xlink:href="#md8b920372b" y="11.082171"/>
      </g>
     </g>
     <g id="line2d_64">
      <g>
       <use style="stroke:#000000;stroke-width:0.6;" x="408.65" xlink:href="#md8b920372b" y="11.082171"/>
      </g>
     </g>
    </g>
    <g id="ytick_28">
     <g id="line2d_65">
      <g>
       <use style="stroke:#000000;stroke-width:0.6;" x="39.373213" xlink:href="#md8b920372b" y="7.058524"/>
      </g>
     </g>
     <g id="line2d_66">
      <g>
       <use style="stroke:#000000;stroke-width:0.6;" x="408.65" xlink:href="#md8b920372b" y="7.058524"/>
      </g>
     </g>
    </g>
    <g id="text_11">
     <!-- $\langle M_\mathrm{FoF} \; / \; M_\mathrm{FoF}(z=0) \rangle$ -->
     <g transform="translate(7.47198 169.895736)rotate(-90)scale(0.1 -0.1)">
      <defs>
       <path d="M 32.796875 71.203125 
C 33.296875 72.296875 33.296875 72.5 33.296875 73 
C 33.296875 74.09375 32.40625 75 31.296875 75 
C 30.40625 75 29.703125 74.5 29 72.703125 
L 11.5 26.796875 
C 11.296875 26.203125 11 25.59375 11 25 
C 11 24.703125 11 24.5 11.5 23.296875 
L 29 -22.59375 
C 29.40625 -23.703125 29.90625 -25 31.296875 -25 
C 32.40625 -25 33.296875 -24.09375 33.296875 -23 
C 33.296875 -22.703125 33.296875 -22.5 32.796875 -21.40625 
L 15.09375 25 
z
" id="CMSY10-104"/>
       <path d="M 90.796875 60.71875 
C 91.703125 64.109375 91.90625 65.109375 99 65.109375 
C 100.90625 65.109375 101.796875 65.109375 101.796875 67 
C 101.796875 68 101.09375 68 99.203125 68 
L 87.203125 68 
C 84.703125 68 84.59375 67.90625 83.5 66.296875 
L 47 8.78125 
L 39.5 65.796875 
C 39.203125 68 39.09375 68 36.5 68 
L 24.09375 68 
C 22.203125 68 21.296875 68 21.296875 66.109375 
C 21.296875 65.109375 22.203125 65.109375 23.703125 65.109375 
C 29.796875 65.109375 29.796875 64.3125 29.796875 63.21875 
C 29.796875 63.03125 29.796875 62.421875 29.40625 60.921875 
L 16.59375 9.90625 
C 15.40625 5.109375 13.09375 2.90625 6.40625 2.90625 
C 6.09375 2.90625 4.90625 2.90625 4.90625 1.140625 
C 4.90625 0 5.796875 0 6.203125 0 
C 8.203125 0 13.296875 0 15.296875 0 
L 20.09375 0 
C 21.5 0 23.203125 0 24.59375 0 
C 25.296875 0 26.40625 0 26.40625 1.90625 
C 26.40625 2.8125 25.40625 2.90625 25 2.90625 
C 21.703125 2.90625 18.5 3.5 18.5 7.09375 
C 18.5 8.09375 18.5 8.1875 18.90625 9.578125 
L 32.703125 64.515625 
L 32.796875 64.515625 
L 41.09375 2.6875 
C 41.40625 0.296875 41.5 0 42.40625 0 
C 43.5 0 44 0.796875 44.5 1.703125 
L 84.703125 65.015625 
L 84.796875 65.015625 
L 70.296875 7.390625 
C 69.40625 3.90625 69.203125 2.90625 62.203125 2.90625 
C 60.296875 2.90625 59.296875 2.90625 59.296875 1.09375 
C 59.296875 0 60.203125 0 60.796875 0 
C 62.5 0 64.5 0 66.203125 0 
L 78 0 
C 79.703125 0 81.796875 0 83.5 0 
C 84.296875 0 85.40625 0 85.40625 1.90625 
C 85.40625 2.90625 84.5 2.90625 83 2.90625 
C 76.90625 2.90625 76.90625 3.65625 76.90625 4.59375 
C 76.90625 4.703125 76.90625 5.390625 77.09375 6.1875 
z
" id="CMMI12-77"/>
       <path d="M 54.40625 67.578125 
L 5.09375 67.578125 
L 5.09375 65 
C 12 65 13.09375 65 13.09375 60.53125 
L 13.09375 6.96875 
C 13.09375 2.5 12 2.5 5.09375 2.5 
L 5.09375 0 
C 8 0 13.59375 0 16.703125 0 
C 20.796875 0 25.59375 0 29.703125 0 
L 29.703125 2.5 
L 27.5 2.5 
C 19.90625 2.5 19.703125 3.484375 19.703125 7.0625 
L 19.703125 32.421875 
L 28.703125 32.421875 
C 38 32.421875 38.90625 29.140625 38.90625 20.8125 
L 40.703125 20.8125 
L 40.703125 46.671875 
L 38.90625 46.671875 
C 38.90625 38.28125 38 35 28.703125 35 
L 19.703125 35 
L 19.703125 61.109375 
C 19.703125 64.5 19.90625 65 23.90625 65 
L 36.796875 65 
C 51.90625 65 53.59375 58.828125 55 45.5625 
L 56.796875 45.5625 
z
" id="CMR17-70"/>
       <path d="M 43.09375 21.1875 
C 43.09375 34 33.796875 44 22.90625 44 
C 12 44 2.703125 34 2.703125 21.1875 
C 2.703125 8.609375 12 -1 22.90625 -1 
C 33.796875 -1 43.09375 8.609375 43.09375 21.1875 
z
M 22.90625 0.796875 
C 18.203125 0.796875 14.203125 3.59375 11.90625 7.5 
C 9.40625 11.984375 9.09375 17.59375 9.09375 22 
C 9.09375 26.203125 9.296875 31.40625 11.90625 35.90625 
C 13.90625 39.203125 17.796875 42.40625 22.90625 42.40625 
C 27.40625 42.40625 31.203125 39.90625 33.59375 36.40625 
C 36.703125 31.703125 36.703125 25.109375 36.703125 22 
C 36.703125 18.09375 36.5 12.109375 33.796875 7.296875 
C 31 2.703125 26.703125 0.796875 22.90625 0.796875 
z
" id="CMR17-111"/>
       <path d="M 42.90625 71.28125 
C 42.90625 71.390625 43.5 72.90625 43.5 73.09375 
C 43.5 74.296875 42.5 75 41.703125 75 
C 41.203125 75 40.296875 75 39.5 72.796875 
L 6 -21.296875 
C 6 -21.40625 5.40625 -22.890625 5.40625 -23.09375 
C 5.40625 -24.296875 6.40625 -25 7.203125 -25 
C 7.796875 -25 8.703125 -24.890625 9.40625 -22.796875 
z
" id="CMMI12-61"/>
       <path d="M 30.59375 -24.390625 
C 30.59375 -24.296875 30.59375 -24.09375 30.296875 -23.796875 
C 25.703125 -19.125 13.40625 -6.359375 13.40625 24.703125 
C 13.40625 55.765625 25.5 68.421875 30.40625 73.390625 
C 30.40625 73.5 30.59375 73.703125 30.59375 74 
C 30.59375 74.296875 30.296875 74.5 29.90625 74.5 
C 28.796875 74.5 20.296875 67.125 15.40625 56.15625 
C 10.40625 45.109375 9 34.359375 9 24.8125 
C 9 17.625 9.703125 5.484375 15.703125 -7.359375 
C 20.5 -17.734375 28.703125 -25 29.90625 -25 
C 30.40625 -25 30.59375 -24.796875 30.59375 -24.390625 
z
" id="CMR17-40"/>
       <path d="M 12.703125 7.59375 
C 17 12.546875 20.5 15.6875 25.5 20.25 
C 31.5 25.5 34.09375 28.015625 35.5 29.546875 
C 42.5 36.53125 46 42.390625 46 43.1875 
C 46 44 45.203125 44 45 44 
C 44.296875 44 44.09375 43.640625 43.59375 42.96875 
C 41.09375 38.96875 38.703125 36.984375 36.09375 36.984375 
C 34 36.984375 32.90625 37.828125 31 40.078125 
C 28.90625 42.421875 27.203125 44 24.296875 44 
C 17 44 12.59375 35.265625 12.59375 33.25 
C 12.59375 32.9375 12.703125 32.3125 13.59375 32.3125 
C 14.40625 32.3125 14.5 32.671875 14.796875 33.328125 
C 16.5 37.0625 21.296875 37.71875 23.203125 37.71875 
C 25.296875 37.71875 27.296875 37.125 29.40625 36.359375 
C 33.203125 35 34.796875 35 35.796875 35 
C 36.5 35 36.90625 35 37.40625 35.09375 
C 34.09375 31.15625 28.703125 26.296875 24.203125 22.15625 
L 14.09375 12.75 
C 8 6.484375 4.296875 0.515625 4.296875 -0.1875 
C 4.296875 -0.796875 4.796875 -1 5.40625 -1 
C 6 -1 6.09375 -0.890625 6.796875 0.21875 
C 8.40625 2.546875 11.59375 6 15.296875 6 
C 17.40625 6 18.40625 5.34375 20.40625 3.015625 
C 22.296875 0.953125 24 -1 27.203125 -1 
C 37 -1 42.59375 11.4375 42.59375 13.6875 
C 42.59375 14.109375 42.5 14.71875 41.5 14.71875 
C 40.703125 14.71875 40.59375 14.328125 40.296875 13.359375 
C 38.09375 7.625 32.203125 5.28125 28.296875 5.28125 
C 26.203125 5.28125 24.203125 5.875 22.09375 6.640625 
C 18.09375 8 17 8 15.703125 8 
C 14.703125 8 13.59375 8 12.703125 7.59375 
z
" id="CMMI12-122"/>
       <path d="M 64.296875 31.515625 
C 65.796875 31.515625 67.296875 31.515625 67.296875 33.203125 
C 67.296875 35 65.59375 35 63.90625 35 
L 8 35 
C 6.296875 35 4.59375 35 4.59375 33.203125 
C 4.59375 31.515625 6.09375 31.515625 7.59375 31.515625 
z
M 63.90625 14 
C 65.59375 14 67.296875 14 67.296875 15.796875 
C 67.296875 17.484375 65.796875 17.484375 64.296875 17.484375 
L 7.59375 17.484375 
C 6.09375 17.484375 4.59375 17.484375 4.59375 15.796875 
C 4.59375 14 6.296875 14 8 14 
z
" id="CMR17-61"/>
       <path d="M 26.296875 24.703125 
C 26.296875 31.875 25.59375 44.015625 19.59375 56.859375 
C 14.796875 67.234375 6.59375 74.5 5.40625 74.5 
C 5.09375 74.5 4.703125 74.390625 4.703125 73.890625 
C 4.703125 73.703125 4.796875 73.59375 4.90625 73.390625 
C 9.703125 68.40625 21.90625 55.75 21.90625 24.75 
C 21.90625 -6.359375 9.796875 -19.015625 4.90625 -24.015625 
C 4.796875 -24.203125 4.703125 -24.3125 4.703125 -24.5 
C 4.703125 -25 5.09375 -25 5.40625 -25 
C 6.5 -25 15 -17.625 19.90625 -6.65625 
C 24.90625 4.390625 26.296875 15.140625 26.296875 24.703125 
z
" id="CMR17-41"/>
       <path d="M 27.296875 23.296875 
C 27.796875 24.5 27.796875 24.703125 27.796875 25 
C 27.796875 25.296875 27.796875 25.5 27.296875 26.703125 
L 9.796875 72.703125 
C 9.203125 74.40625 8.59375 75 7.5 75 
C 6.40625 75 5.5 74.09375 5.5 73 
C 5.5 72.703125 5.5 72.5 6 71.40625 
L 23.703125 25 
L 6 -21.203125 
C 5.5 -22.296875 5.5 -22.5 5.5 -23 
C 5.5 -24.09375 6.40625 -25 7.5 -25 
C 8.796875 -25 9.203125 -24 9.59375 -23 
z
" id="CMSY10-105"/>
      </defs>
      <use transform="scale(0.996264)" xlink:href="#CMSY10-104"/>
      <use transform="translate(38.743734 0)scale(0.996264)" xlink:href="#CMMI12-77"/>
      <use transform="translate(133.117159 -14.943915)scale(0.697382)" xlink:href="#CMR17-70"/>
      <use transform="translate(169.640612 -14.943915)scale(0.697382)" xlink:href="#CMR17-111"/>
      <use transform="translate(201.623794 -14.943915)scale(0.697382)" xlink:href="#CMR17-70"/>
      <use transform="translate(271.784443 0)scale(0.996264)" xlink:href="#CMMI12-61"/>
      <use transform="translate(348.23337 0)scale(0.996264)" xlink:href="#CMMI12-77"/>
      <use transform="translate(442.606796 -14.943915)scale(0.697382)" xlink:href="#CMR17-70"/>
      <use transform="translate(479.130248 -14.943915)scale(0.697382)" xlink:href="#CMR17-111"/>
      <use transform="translate(511.11343 -14.943915)scale(0.697382)" xlink:href="#CMR17-70"/>
      <use transform="translate(553.600071 0)scale(0.996264)" xlink:href="#CMR17-40"/>
      <use transform="translate(588.880839 0)scale(0.996264)" xlink:href="#CMMI12-122"/>
      <use transform="translate(666.309992 0)scale(0.996264)" xlink:href="#CMR17-61"/>
      <use transform="translate(765.698789 0)scale(0.996264)" xlink:href="#CMR17-48"/>
      <use transform="translate(811.389267 0)scale(0.996264)" xlink:href="#CMR17-41"/>
      <use transform="translate(846.670034 0)scale(0.996264)" xlink:href="#CMSY10-105"/>
     </g>
    </g>
   </g>
   <g id="line2d_67">
    <path clip-path="url(#p02e0d32be3)" d="M 68.751652 267.4 
L 69.381084 259.800003 
L 70.850258 244.353465 
L 71.584845 236.570403 
L 73.054018 223.403814 
L 74.523192 211.485498 
L 75.257779 204.99784 
L 76.726952 194.185292 
L 78.196126 184.338511 
L 79.6653 175.490285 
L 81.134473 167.552161 
L 81.86906 163.343948 
L 83.338234 156.079909 
L 84.807407 149.222016 
L 87.011168 140.423805 
L 88.480341 134.925523 
L 89.949515 129.833992 
L 91.418689 125.045424 
L 92.887862 120.538618 
L 95.091623 114.676312 
L 96.560796 110.863919 
L 98.764557 105.873615 
L 100.23373 102.654803 
L 102.437491 98.348196 
L 103.906664 95.565621 
L 106.110425 91.802587 
L 108.314185 88.326592 
L 110.517945 85.107891 
L 112.721706 82.140547 
L 114.19088 80.2015 
L 116.39464 77.500285 
L 118.5984 74.964319 
L 121.536748 71.899372 
L 123.740508 69.670529 
L 125.944268 67.565802 
L 128.882616 64.989212 
L 131.086376 63.130596 
L 134.024723 60.828199 
L 136.228484 59.14592 
L 139.166831 57.060032 
L 142.105178 55.09818 
L 145.043525 53.217115 
L 147.981872 51.422955 
L 150.92022 49.715723 
L 154.593154 47.740171 
L 157.531501 46.218371 
L 160.469848 44.754981 
L 164.142782 43.043736 
L 167.815716 41.428042 
L 170.754063 40.171634 
L 174.426997 38.69338 
L 178.099931 37.274824 
L 181.772865 35.916522 
L 186.180386 34.395738 
L 189.85332 33.163176 
L 194.260841 31.792913 
L 197.933775 30.670011 
L 202.341296 29.390864 
L 206.748817 28.189267 
L 211.156338 27.049046 
L 215.563858 25.932866 
L 220.705966 24.73465 
L 225.113487 23.744407 
L 230.255595 22.659055 
L 235.397702 21.623341 
L 240.53981 20.639226 
L 245.681917 19.690134 
L 250.824025 18.778135 
L 256.70072 17.801172 
L 262.577414 16.863768 
L 268.454108 15.98704 
L 273.596216 15.232338 
L 280.207497 14.340709 
L 286.084192 13.572203 
L 293.43006 12.678446 
L 299.306754 11.975163 
L 305.918035 11.232601 
L 313.263903 10.450282 
L 319.875185 9.765506 
L 327.221053 9.045422 
L 334.566921 8.350671 
L 342.647376 7.633466 
L 349.993244 6.997733 
L 358.073699 6.322532 
L 366.154153 5.660404 
L 374.234608 5.005081 
L 383.04965 4.283377 
L 391.864692 3.459249 
" style="fill:none;stroke:#1f77b4;stroke-linecap:square;stroke-width:1.5;"/>
   </g>
   <g id="line2d_68">
    <path clip-path="url(#p02e0d32be3)" d="M 63.476907 267.4 
L 63.50439 267.095681 
L 64.238977 259.025615 
L 64.973564 251.403419 
L 66.442737 238.687359 
L 67.177324 232.343743 
L 68.646498 221.628986 
L 69.381084 216.344313 
L 70.850258 207.353314 
L 71.584845 202.881692 
L 73.054018 195.017897 
L 74.523192 187.955496 
L 75.257779 184.624615 
L 76.726952 178.312498 
L 78.196126 172.699537 
L 79.6653 167.3303 
L 81.134473 162.504317 
L 81.86906 159.979097 
L 83.338234 155.52249 
L 84.807407 151.255495 
L 87.011168 145.540069 
L 88.480341 141.849814 
L 89.949515 138.389423 
L 91.418689 135.110572 
L 92.887862 131.859486 
L 95.091623 127.447773 
L 96.560796 124.560937 
L 98.764557 120.613776 
L 100.23373 118.000531 
L 102.437491 114.327117 
L 103.906664 111.890407 
L 106.110425 108.51537 
L 108.314185 105.362905 
L 110.517945 102.288184 
L 112.721706 99.356572 
L 114.19088 97.389597 
L 116.39464 94.613973 
L 118.5984 91.943768 
L 121.536748 88.672858 
L 123.740508 86.347919 
L 125.944268 84.022104 
L 128.882616 81.192665 
L 131.086376 79.038966 
L 134.024723 76.437079 
L 136.228484 74.496004 
L 139.166831 72.070257 
L 142.105178 69.721672 
L 145.043525 67.45603 
L 147.981872 65.355062 
L 150.92022 63.330866 
L 154.593154 60.950471 
L 157.531501 59.097825 
L 160.469848 57.305186 
L 164.142782 55.211855 
L 167.815716 53.234749 
L 170.754063 51.688318 
L 174.426997 49.830346 
L 178.099931 48.040672 
L 181.772865 46.328057 
L 186.180386 44.447961 
L 189.85332 42.889461 
L 194.260841 41.153782 
L 197.933775 39.724999 
L 202.341296 38.099176 
L 206.748817 36.531512 
L 211.156338 35.06157 
L 215.563858 33.651613 
L 220.705966 32.126363 
L 225.113487 30.839085 
L 230.255595 29.408676 
L 235.397702 28.070417 
L 240.53981 26.78092 
L 245.681917 25.55227 
L 250.824025 24.37673 
L 256.70072 23.096568 
L 262.577414 21.875082 
L 268.454108 20.706647 
L 273.596216 19.706033 
L 280.207497 18.507856 
L 286.084192 17.467387 
L 293.43006 16.255389 
L 299.306754 15.307977 
L 305.918035 14.275275 
L 313.263903 13.220902 
L 319.875185 12.263028 
L 327.221053 11.23036 
L 334.566921 10.24451 
L 342.647376 9.197743 
L 349.993244 8.272314 
L 358.073699 7.312497 
L 366.154153 6.396284 
L 374.234608 5.48477 
L 383.04965 4.509079 
L 391.864692 3.459249 
" style="fill:none;stroke:#ff7f0e;stroke-linecap:square;stroke-width:1.5;"/>
   </g>
   <g id="line2d_69">
    <path clip-path="url(#p02e0d32be3)" d="M 65.340596 267.4 
L 66.442737 260.529823 
L 67.177324 255.751317 
L 68.646498 247.379328 
L 69.381084 243.033548 
L 70.850258 236.315802 
L 71.584845 232.503535 
L 73.054018 226.271111 
L 74.523192 220.120691 
L 75.257779 217.135227 
L 76.726952 211.583074 
L 78.196126 206.356863 
L 79.6653 201.333115 
L 81.134473 196.986115 
L 81.86906 194.754974 
L 83.338234 189.970352 
L 84.807407 185.527099 
L 87.011168 179.47605 
L 88.480341 175.70318 
L 89.949515 172.074246 
L 91.418689 168.581172 
L 92.887862 164.998884 
L 95.091623 160.02126 
L 96.560796 156.791465 
L 98.764557 152.065632 
L 100.23373 148.998267 
L 102.437491 144.704985 
L 103.906664 141.746753 
L 106.110425 138.063288 
L 108.314185 134.205864 
L 110.517945 130.5849 
L 112.721706 127.227809 
L 114.19088 124.988022 
L 116.39464 121.992026 
L 118.5984 118.725595 
L 121.536748 114.793868 
L 123.740508 112.125315 
L 125.944268 109.158925 
L 128.882616 105.746403 
L 131.086376 102.947859 
L 134.024723 99.653024 
L 136.228484 97.289826 
L 139.166831 94.270973 
L 142.105178 91.403374 
L 145.043525 88.634853 
L 147.981872 86.003785 
L 150.92022 83.462445 
L 154.593154 80.532536 
L 157.531501 78.262131 
L 160.469848 76.125873 
L 164.142782 73.533258 
L 167.815716 71.023619 
L 170.754063 69.001932 
L 174.426997 66.710687 
L 178.099931 64.440761 
L 181.772865 62.229352 
L 186.180386 59.659354 
L 189.85332 57.573201 
L 194.260841 55.262022 
L 197.933775 53.477189 
L 202.341296 51.323966 
L 206.748817 49.33799 
L 211.156338 47.34494 
L 215.563858 45.386644 
L 220.705966 43.396316 
L 225.113487 41.703493 
L 230.255595 39.80444 
L 235.397702 38.004171 
L 240.53981 36.302155 
L 245.681917 34.726878 
L 250.824025 33.113917 
L 256.70072 31.35052 
L 262.577414 29.576771 
L 268.454108 27.971246 
L 273.596216 26.545523 
L 280.207497 24.834573 
L 286.084192 23.418261 
L 293.43006 21.681794 
L 299.306754 20.301304 
L 305.918035 18.839818 
L 313.263903 17.154113 
L 319.875185 15.877521 
L 327.221053 14.335042 
L 334.566921 12.961971 
L 342.647376 11.547793 
L 349.993244 10.213529 
L 358.073699 8.813717 
L 366.154153 7.480079 
L 374.234608 6.216644 
L 383.04965 4.914014 
L 391.864692 3.459249 
" style="fill:none;stroke:#2ca02c;stroke-linecap:square;stroke-width:1.5;"/>
   </g>
   <g id="line2d_70">
    <path clip-path="url(#p02e0d32be3)" d="M 39.373213 3.459249 
L 408.65 3.459249 
" style="fill:none;stroke:#000000;stroke-linecap:square;stroke-width:1.5;"/>
   </g>
   <g id="patch_3">
    <path d="M 39.373213 239.438647 
L 39.373213 3.459249 
" style="fill:none;stroke:#000000;stroke-linecap:square;stroke-linejoin:miter;stroke-width:0.8;"/>
   </g>
   <g id="patch_4">
    <path d="M 408.65 239.438647 
L 408.65 3.459249 
" style="fill:none;stroke:#000000;stroke-linecap:square;stroke-linejoin:miter;stroke-width:0.8;"/>
   </g>
   <g id="patch_5">
    <path d="M 39.373213 239.438647 
L 408.65 239.438647 
" style="fill:none;stroke:#000000;stroke-linecap:square;stroke-linejoin:miter;stroke-width:0.8;"/>
   </g>
   <g id="patch_6">
    <path d="M 39.373213 3.459249 
L 408.65 3.459249 
" style="fill:none;stroke:#000000;stroke-linecap:square;stroke-linejoin:miter;stroke-width:0.8;"/>
   </g>
   <g id="legend_1">
    <g id="patch_7">
     <path d="M 214.249126 234.438647 
L 401.65 234.438647 
Q 403.65 234.438647 403.65 232.438647 
L 403.65 186.63781 
Q 403.65 184.63781 401.65 184.63781 
L 214.249126 184.63781 
Q 212.249126 184.63781 212.249126 186.63781 
L 212.249126 232.438647 
Q 212.249126 234.438647 214.249126 234.438647 
z
" style="fill:#ffffff;opacity:0.8;stroke:#cccccc;stroke-linejoin:miter;"/>
    </g>
    <g id="line2d_71">
     <path d="M 216.249126 193.247429 
L 236.249126 193.247429 
" style="fill:none;stroke:#1f77b4;stroke-linecap:square;stroke-width:1.5;"/>
    </g>
    <g id="line2d_72"/>
    <g id="text_12">
     <!-- $M_\mathrm{FoF}(z=0) \in [1, \; 2] \times 10^{12} \; h^{-1}M_\odot$ -->
     <g transform="translate(244.249126 196.747429)scale(0.1 -0.1)">
      <defs>
       <path d="M 54.78125 23 
C 56.484375 23 58.28125 23 58.28125 25 
C 58.28125 27 56.484375 27 54.78125 27 
L 12.375 27 
C 13.578125 40.40625 25.078125 50 39.171875 50 
L 54.78125 50 
C 56.484375 50 58.28125 50 58.28125 52 
C 58.28125 54 56.484375 54 54.78125 54 
L 38.984375 54 
C 21.875 54 8.28125 41 8.28125 25 
C 8.28125 9 21.875 -4 38.984375 -4 
L 54.78125 -4 
C 56.484375 -4 58.28125 -4 58.28125 -2 
C 58.28125 0 56.484375 0 54.78125 0 
L 39.171875 0 
C 25.078125 0 13.578125 9.59375 12.375 23 
z
" id="CMSY10-50"/>
       <path d="M 23.5 -25 
L 23.5 -21.515625 
L 14.09375 -21.515625 
L 14.09375 71 
L 23.5 71 
L 23.5 74.484375 
L 10.59375 74.484375 
L 10.59375 -25 
z
" id="CMR17-91"/>
       <path d="M 19.5 -0.484375 
C 19.5 5.359375 17.59375 9.671875 13.5 9.671875 
C 10.296875 9.671875 8.703125 7.078125 8.703125 4.890625 
C 8.703125 2.6875 10.203125 0 13.59375 0 
C 14.90625 0 16 0.40625 16.90625 1.296875 
C 17.09375 1.5 17.203125 1.5 17.296875 1.5 
C 17.5 1.5 17.5 0.078125 17.5 -0.421875 
C 17.5 -3.75 16.90625 -10.296875 11.09375 -16.875 
C 10 -18.078125 10 -18.28125 10 -18.484375 
C 10 -19 10.5 -19.5 11 -19.5 
C 11.796875 -19.5 19.5 -12.046875 19.5 -0.484375 
z
" id="CMMI12-59"/>
       <path d="M 14.296875 74.484375 
L 1.40625 74.484375 
L 1.40625 71 
L 10.796875 71 
L 10.796875 -21.515625 
L 1.40625 -21.515625 
L 1.40625 -25 
L 14.296875 -25 
z
" id="CMR17-93"/>
       <path d="M 38.90625 27.890625 
L 18.90625 47.796875 
C 17.703125 49 17.5 49.1875 16.703125 49.1875 
C 15.703125 49.1875 14.703125 48.296875 14.703125 47.1875 
C 14.703125 46.5 14.90625 46.296875 16 45.1875 
L 36 25.09375 
L 16 5 
C 14.90625 3.890625 14.703125 3.6875 14.703125 3 
C 14.703125 1.890625 15.703125 1 16.703125 1 
C 17.5 1 17.703125 1.1875 18.90625 2.390625 
L 38.796875 22.296875 
L 59.5 1.59375 
C 59.703125 1.5 60.40625 1 61 1 
C 62.203125 1 63 1.890625 63 3 
C 63 3.1875 63 3.59375 62.703125 4.09375 
C 62.59375 4.296875 46.703125 20 41.703125 25.09375 
L 60 43.390625 
C 60.5 44 62 45.296875 62.5 45.890625 
C 62.59375 46.09375 63 46.5 63 47.1875 
C 63 48.296875 62.203125 49.1875 61 49.1875 
C 60.203125 49.1875 59.796875 48.796875 58.703125 47.6875 
z
" id="CMSY10-2"/>
       <path d="M 28.09375 66.515625 
C 28.203125 66.921875 28.40625 67.515625 28.40625 68 
C 28.40625 69 27.40625 69 27.203125 69 
C 27.09375 69 22.203125 68.5625 21.703125 68.4375 
C 20 68.328125 18.5 68.09375 16.703125 68.09375 
C 14.203125 67.890625 13.5 67.796875 13.5 66 
C 13.5 65 14.296875 65 15.703125 65 
C 20.59375 65 20.703125 64.109375 20.703125 63.125 
C 20.703125 62.53125 20.5 61.734375 20.40625 61.4375 
L 5.90625 3.875 
C 5.5 2.375 5.5 2.1875 5.5 1.578125 
C 5.5 -0.59375 7.203125 -1 8.203125 -1 
C 9.90625 -1 11.203125 0.296875 11.703125 1.390625 
L 16.203125 19.453125 
C 16.703125 21.65625 17.296875 23.75 17.796875 25.9375 
C 18.90625 30.140625 18.90625 30.234375 20.796875 33.125 
C 22.703125 36.015625 27.203125 42.015625 34.90625 42.015625 
C 38.90625 42.015625 40.296875 39.015625 40.296875 35.03125 
C 40.296875 29.4375 36.40625 18.5625 34.203125 12.578125 
C 33.296875 10.171875 32.796875 8.875 32.796875 7.078125 
C 32.796875 2.59375 35.90625 -1 40.703125 -1 
C 50 -1 53.5 13.671875 53.5 14.265625 
C 53.5 14.765625 53.09375 15.171875 52.5 15.171875 
C 51.59375 15.171875 51.5 14.875 51 13.171875 
C 48.703125 5.1875 45 1 41 1 
C 40 1 38.40625 1 38.40625 4.203125 
C 38.40625 6.8125 39.59375 10 40 11.09375 
C 41.796875 15.90625 46.296875 27.703125 46.296875 33.515625 
C 46.296875 39.5 42.796875 44 35.203125 44 
C 29.5 44 24.5 41.3125 20.40625 36.125 
z
" id="CMMI12-104"/>
       <path d="M 72.21875 25 
C 72.21875 43.4375 57.21875 58.359375 38.90625 58.359375 
C 20.3125 58.359375 5.5 43.234375 5.5 25 
C 5.5 6.5625 20.5 -8.359375 38.8125 -8.359375 
C 57.421875 -8.359375 72.21875 6.765625 72.21875 25 
z
M 38.90625 -5.859375 
C 21.703125 -5.859375 8 8.0625 8 25 
C 8 42.234375 22 55.859375 38.8125 55.859375 
C 56.015625 55.859375 69.71875 41.9375 69.71875 25 
C 69.71875 7.765625 55.71875 -5.859375 38.90625 -5.859375 
z
M 45.703125 25 
C 45.703125 28.796875 42.59375 31.90625 38.90625 31.90625 
C 34.90625 31.90625 32 28.59375 32 25 
C 32 21.203125 35.09375 18.09375 38.796875 18.09375 
C 42.796875 18.09375 45.703125 21.40625 45.703125 25 
z
" id="CMSY10-12"/>
      </defs>
      <use transform="scale(0.996264)" xlink:href="#CMMI12-77"/>
      <use transform="translate(94.373425 -14.943915)scale(0.697382)" xlink:href="#CMR17-70"/>
      <use transform="translate(130.896878 -14.943915)scale(0.697382)" xlink:href="#CMR17-111"/>
      <use transform="translate(162.88006 -14.943915)scale(0.697382)" xlink:href="#CMR17-70"/>
      <use transform="translate(205.3667 0)scale(0.996264)" xlink:href="#CMR17-40"/>
      <use transform="translate(240.647468 0)scale(0.996264)" xlink:href="#CMMI12-122"/>
      <use transform="translate(318.076622 0)scale(0.996264)" xlink:href="#CMR17-61"/>
      <use transform="translate(417.465419 0)scale(0.996264)" xlink:href="#CMR17-48"/>
      <use transform="translate(463.155896 0)scale(0.996264)" xlink:href="#CMR17-41"/>
      <use transform="translate(526.110673 0)scale(0.996264)" xlink:href="#CMSY10-50"/>
      <use transform="translate(620.2025 0)scale(0.996264)" xlink:href="#CMR17-91"/>
      <use transform="translate(645.073558 0)scale(0.996264)" xlink:href="#CMR17-49"/>
      <use transform="translate(690.764036 0)scale(0.996264)" xlink:href="#CMMI12-59"/>
      <use transform="translate(762.139627 0)scale(0.996264)" xlink:href="#CMR17-50"/>
      <use transform="translate(807.830104 0)scale(0.996264)" xlink:href="#CMR17-93"/>
      <use transform="translate(854.840369 0)scale(0.996264)" xlink:href="#CMSY10-2"/>
      <use transform="translate(954.467044 0)scale(0.996264)" xlink:href="#CMR17-49"/>
      <use transform="translate(1000.157521 0)scale(0.996264)" xlink:href="#CMR17-48"/>
      <use transform="translate(1045.847998 36.153639)scale(0.697382)" xlink:href="#CMR17-49"/>
      <use transform="translate(1077.83118 36.153639)scale(0.697382)" xlink:href="#CMR17-50"/>
      <use transform="translate(1137.986503 0)scale(0.996264)" xlink:href="#CMMI12-104"/>
      <use transform="translate(1194.141127 36.153639)scale(0.697382)" xlink:href="#CMSY10-0"/>
      <use transform="translate(1248.38212 36.153639)scale(0.697382)" xlink:href="#CMR17-49"/>
      <use transform="translate(1280.863434 0)scale(0.996264)" xlink:href="#CMMI12-77"/>
      <use transform="translate(1375.236859 -14.943915)scale(0.697382)" xlink:href="#CMSY10-12"/>
     </g>
    </g>
    <g id="line2d_73">
     <path d="M 216.249126 208.847708 
L 236.249126 208.847708 
" style="fill:none;stroke:#ff7f0e;stroke-linecap:square;stroke-width:1.5;"/>
    </g>
    <g id="line2d_74"/>
    <g id="text_13">
     <!-- $M_\mathrm{FoF}(z=0) \in [1, \; 2] \times 10^{13} \; h^{-1}M_\odot$ -->
     <g transform="translate(244.249126 212.347708)scale(0.1 -0.1)">
      <use transform="scale(0.996264)" xlink:href="#CMMI12-77"/>
      <use transform="translate(94.373425 -14.943915)scale(0.697382)" xlink:href="#CMR17-70"/>
      <use transform="translate(130.896878 -14.943915)scale(0.697382)" xlink:href="#CMR17-111"/>
      <use transform="translate(162.88006 -14.943915)scale(0.697382)" xlink:href="#CMR17-70"/>
      <use transform="translate(205.3667 0)scale(0.996264)" xlink:href="#CMR17-40"/>
      <use transform="translate(240.647468 0)scale(0.996264)" xlink:href="#CMMI12-122"/>
      <use transform="translate(318.076622 0)scale(0.996264)" xlink:href="#CMR17-61"/>
      <use transform="translate(417.465419 0)scale(0.996264)" xlink:href="#CMR17-48"/>
      <use transform="translate(463.155896 0)scale(0.996264)" xlink:href="#CMR17-41"/>
      <use transform="translate(526.110673 0)scale(0.996264)" xlink:href="#CMSY10-50"/>
      <use transform="translate(620.2025 0)scale(0.996264)" xlink:href="#CMR17-91"/>
      <use transform="translate(645.073558 0)scale(0.996264)" xlink:href="#CMR17-49"/>
      <use transform="translate(690.764036 0)scale(0.996264)" xlink:href="#CMMI12-59"/>
      <use transform="translate(762.139627 0)scale(0.996264)" xlink:href="#CMR17-50"/>
      <use transform="translate(807.830104 0)scale(0.996264)" xlink:href="#CMR17-93"/>
      <use transform="translate(854.840369 0)scale(0.996264)" xlink:href="#CMSY10-2"/>
      <use transform="translate(954.467044 0)scale(0.996264)" xlink:href="#CMR17-49"/>
      <use transform="translate(1000.157521 0)scale(0.996264)" xlink:href="#CMR17-48"/>
      <use transform="translate(1045.847998 36.153639)scale(0.697382)" xlink:href="#CMR17-49"/>
      <use transform="translate(1077.83118 36.153639)scale(0.697382)" xlink:href="#CMR17-51"/>
      <use transform="translate(1137.986503 0)scale(0.996264)" xlink:href="#CMMI12-104"/>
      <use transform="translate(1194.141127 36.153639)scale(0.697382)" xlink:href="#CMSY10-0"/>
      <use transform="translate(1248.38212 36.153639)scale(0.697382)" xlink:href="#CMR17-49"/>
      <use transform="translate(1280.863434 0)scale(0.996264)" xlink:href="#CMMI12-77"/>
      <use transform="translate(1375.236859 -14.943915)scale(0.697382)" xlink:href="#CMSY10-12"/>
     </g>
    </g>
    <g id="line2d_75">
     <path d="M 216.249126 224.447987 
L 236.249126 224.447987 
" style="fill:none;stroke:#2ca02c;stroke-linecap:square;stroke-width:1.5;"/>
    </g>
    <g id="line2d_76"/>
    <g id="text_14">
     <!-- $M_\mathrm{FoF}(z=0) \in [1, \; 2] \times 10^{14} \; h^{-1}M_\odot$ -->
     <g transform="translate(244.249126 227.947987)scale(0.1 -0.1)">
      <use transform="scale(0.996264)" xlink:href="#CMMI12-77"/>
      <use transform="translate(94.373425 -14.943915)scale(0.697382)" xlink:href="#CMR17-70"/>
      <use transform="translate(130.896878 -14.943915)scale(0.697382)" xlink:href="#CMR17-111"/>
      <use transform="translate(162.88006 -14.943915)scale(0.697382)" xlink:href="#CMR17-70"/>
      <use transform="translate(205.3667 0)scale(0.996264)" xlink:href="#CMR17-40"/>
      <use transform="translate(240.647468 0)scale(0.996264)" xlink:href="#CMMI12-122"/>
      <use transform="translate(318.076622 0)scale(0.996264)" xlink:href="#CMR17-61"/>
      <use transform="translate(417.465419 0)scale(0.996264)" xlink:href="#CMR17-48"/>
      <use transform="translate(463.155896 0)scale(0.996264)" xlink:href="#CMR17-41"/>
      <use transform="translate(526.110673 0)scale(0.996264)" xlink:href="#CMSY10-50"/>
      <use transform="translate(620.2025 0)scale(0.996264)" xlink:href="#CMR17-91"/>
      <use transform="translate(645.073558 0)scale(0.996264)" xlink:href="#CMR17-49"/>
      <use transform="translate(690.764036 0)scale(0.996264)" xlink:href="#CMMI12-59"/>
      <use transform="translate(762.139627 0)scale(0.996264)" xlink:href="#CMR17-50"/>
      <use transform="translate(807.830104 0)scale(0.996264)" xlink:href="#CMR17-93"/>
      <use transform="translate(854.840369 0)scale(0.996264)" xlink:href="#CMSY10-2"/>
      <use transform="translate(954.467044 0)scale(0.996264)" xlink:href="#CMR17-49"/>
      <use transform="translate(1000.157521 0)scale(0.996264)" xlink:href="#CMR17-48"/>
      <use transform="translate(1045.847998 36.153639)scale(0.697382)" xlink:href="#CMR17-49"/>
      <use transform="translate(1077.83118 36.153639)scale(0.697382)" xlink:href="#CMR17-52"/>
      <use transform="translate(1137.986503 0)scale(0.996264)" xlink:href="#CMMI12-104"/>
      <use transform="translate(1194.141127 36.153639)scale(0.697382)" xlink:href="#CMSY10-0"/>
      <use transform="translate(1248.38212 36.153639)scale(0.697382)" xlink:href="#CMR17-49"/>
      <use transform="translate(1280.863434 0)scale(0.996264)" xlink:href="#CMMI12-77"/>
      <use transform="translate(1375.236859 -14.943915)scale(0.697382)" xlink:href="#CMSY10-12"/>
     </g>
    </g>
   </g>
  </g>
 </g>
 <defs>
  <clipPath id="p02e0d32be3">
   <rect height="235.979397" width="369.276787" x="39.373213" y="3.459249"/>
  </clipPath>
 </defs>
</svg>
