<?xml version="1.0" encoding="utf-8" standalone="no"?>
<!DOCTYPE svg PUBLIC "-//W3C//DTD SVG 1.1//EN"
  "http://www.w3.org/Graphics/SVG/1.1/DTD/svg11.dtd">
<!-- Created with matplotlib (https://matplotlib.org/) -->
<svg height="266.4pt" version="1.1" viewBox="0 0 410.4 266.4" width="410.4pt" xmlns="http://www.w3.org/2000/svg" xmlns:xlink="http://www.w3.org/1999/xlink">
 <metadata>
  <rdf:RDF xmlns:cc="http://creativecommons.org/ns#" xmlns:dc="http://purl.org/dc/elements/1.1/" xmlns:rdf="http://www.w3.org/1999/02/22-rdf-syntax-ns#">
   <cc:Work>
    <dc:type rdf:resource="http://purl.org/dc/dcmitype/StillImage"/>
    <dc:date>2021-02-03T10:42:00.715044</dc:date>
    <dc:format>image/svg+xml</dc:format>
    <dc:creator>
     <cc:Agent>
      <dc:title>Matplotlib v3.3.4, https://matplotlib.org/</dc:title>
     </cc:Agent>
    </dc:creator>
   </cc:Work>
  </rdf:RDF>
 </metadata>
 <defs>
  <style type="text/css">*{stroke-linecap:butt;stroke-linejoin:round;}</style>
 </defs>
 <g id="figure_1">
  <g id="patch_1">
   <path d="M 0 266.4 
L 410.4 266.4 
L 410.4 0 
L 0 0 
z
" style="fill:none;"/>
  </g>
  <g id="axes_1">
   <g id="patch_2">
    <path d="M 39.373213 239.438647 
L 408.65 239.438647 
L 408.65 1.75 
L 39.373213 1.75 
z
" style="fill:#ffffff;"/>
   </g>
   <g id="matplotlib.axis_1">
    <g id="xtick_1">
     <g id="line2d_1">
      <defs>
       <path d="M 0 1.75 
L 0 -1.75 
" id="mc7f4109aec" style="stroke:#000000;stroke-width:0.8;"/>
      </defs>
      <g>
       <use style="stroke:#000000;stroke-width:0.8;" x="95.9132" xlink:href="#mc7f4109aec" y="239.438647"/>
      </g>
     </g>
     <g id="line2d_2">
      <g>
       <use style="stroke:#000000;stroke-width:0.8;" x="95.9132" xlink:href="#mc7f4109aec" y="1.75"/>
      </g>
     </g>
     <g id="text_1">
      <!-- $\mathdefault{0.2}$ -->
      <g transform="translate(89.54816 251.607145)scale(0.1 -0.1)">
       <defs>
        <path d="M 42 31.640625 
C 42 37.75 41.90625 48.125 37.703125 56.109375 
C 34 63.109375 28.09375 65.59375 22.90625 65.59375 
C 18.09375 65.59375 12 63.40625 8.203125 56.203125 
C 4.203125 48.71875 3.796875 39.4375 3.796875 31.640625 
C 3.796875 25.953125 3.90625 17.28125 7 9.671875 
C 11.296875 -0.609375 19 -2 22.90625 -2 
C 27.5 -2 34.5 -0.109375 38.59375 9.375 
C 41.59375 16.28125 42 24.359375 42 31.640625 
z
M 22.90625 -0.40625 
C 16.5 -0.40625 12.703125 5.078125 11.296875 12.6875 
C 10.203125 18.5625 10.203125 27.15625 10.203125 32.75 
C 10.203125 40.4375 10.203125 46.828125 11.5 52.921875 
C 13.40625 61.390625 19 64 22.90625 64 
C 27 64 32.296875 61.296875 34.203125 53.125 
C 35.5 47.4375 35.59375 40.734375 35.59375 32.75 
C 35.59375 26.25 35.59375 18.265625 34.40625 12.375 
C 32.296875 1.484375 26.40625 -0.40625 22.90625 -0.40625 
z
" id="CMR17-48"/>
        <path d="M 18.40625 4.796875 
C 18.40625 7.6875 16 9.671875 13.59375 9.671875 
C 10.703125 9.671875 8.703125 7.28125 8.703125 4.890625 
C 8.703125 2 11.09375 0 13.5 0 
C 16.40625 0 18.40625 2.390625 18.40625 4.796875 
z
" id="CMMI12-58"/>
        <path d="M 41.703125 15.453125 
L 39.90625 15.453125 
C 38.90625 8.375 38.09375 7.171875 37.703125 6.5625 
C 37.203125 5.765625 30 5.765625 28.59375 5.765625 
L 9.40625 5.765625 
C 13 9.671875 20 16.75 28.5 24.953125 
C 34.59375 30.734375 41.703125 37.53125 41.703125 47.421875 
C 41.703125 59.21875 32.296875 66 21.796875 66 
C 10.796875 66 4.09375 56.3125 4.09375 47.34375 
C 4.09375 43.4375 7 42.9375 8.203125 42.9375 
C 9.203125 42.9375 12.203125 43.546875 12.203125 47.03125 
C 12.203125 50.109375 9.59375 51 8.203125 51 
C 7.59375 51 7 50.90625 6.59375 50.703125 
C 8.5 59.21875 14.296875 63.40625 20.40625 63.40625 
C 29.09375 63.40625 34.796875 56.515625 34.796875 47.421875 
C 34.796875 38.734375 29.703125 31.25 24 24.75 
L 4.09375 2.28125 
L 4.09375 0 
L 39.296875 0 
z
" id="CMR17-50"/>
       </defs>
       <use transform="scale(0.996264)" xlink:href="#CMR17-48"/>
       <use transform="translate(45.690477 0)scale(0.996264)" xlink:href="#CMMI12-58"/>
       <use transform="translate(72.787654 0)scale(0.996264)" xlink:href="#CMR17-50"/>
      </g>
     </g>
    </g>
    <g id="xtick_2">
     <g id="line2d_3">
      <g>
       <use style="stroke:#000000;stroke-width:0.8;" x="169.901073" xlink:href="#mc7f4109aec" y="239.438647"/>
      </g>
     </g>
     <g id="line2d_4">
      <g>
       <use style="stroke:#000000;stroke-width:0.8;" x="169.901073" xlink:href="#mc7f4109aec" y="1.75"/>
      </g>
     </g>
     <g id="text_2">
      <!-- $\mathdefault{0.4}$ -->
      <g transform="translate(163.536033 251.607145)scale(0.1 -0.1)">
       <defs>
        <path d="M 33.59375 64.40625 
C 33.59375 66.5 33.5 66.5 31.703125 66.5 
L 2 19.59375 
L 2 17 
L 27.796875 17 
L 27.796875 7.140625 
C 27.796875 3.5 27.59375 2.5 20.59375 2.5 
L 18.703125 2.5 
L 18.703125 0 
C 21.90625 0 27.296875 0 30.703125 0 
C 34.09375 0 39.5 0 42.703125 0 
L 42.703125 2.5 
L 40.796875 2.5 
C 33.796875 2.5 33.59375 3.5 33.59375 7.140625 
L 33.59375 17 
L 43.796875 17 
L 43.796875 19.59375 
L 33.59375 19.59375 
z
M 28.09375 57.859375 
L 28.09375 19.59375 
L 4 19.59375 
z
" id="CMR17-52"/>
       </defs>
       <use transform="scale(0.996264)" xlink:href="#CMR17-48"/>
       <use transform="translate(45.690477 0)scale(0.996264)" xlink:href="#CMMI12-58"/>
       <use transform="translate(72.787654 0)scale(0.996264)" xlink:href="#CMR17-52"/>
      </g>
     </g>
    </g>
    <g id="xtick_3">
     <g id="line2d_5">
      <g>
       <use style="stroke:#000000;stroke-width:0.8;" x="243.888946" xlink:href="#mc7f4109aec" y="239.438647"/>
      </g>
     </g>
     <g id="line2d_6">
      <g>
       <use style="stroke:#000000;stroke-width:0.8;" x="243.888946" xlink:href="#mc7f4109aec" y="1.75"/>
      </g>
     </g>
     <g id="text_3">
      <!-- $\mathdefault{0.6}$ -->
      <g transform="translate(237.523906 251.607145)scale(0.1 -0.1)">
       <defs>
        <path d="M 10.59375 34 
C 10.59375 57.65625 21.796875 63 28.296875 63 
C 30.40625 63 35.5 62.640625 37.5 59 
C 35.90625 59 32.90625 59 32.90625 55.515625 
C 32.90625 52.828125 35.09375 51.921875 36.5 51.921875 
C 37.40625 51.921875 40.09375 52.3125 40.09375 55.625 
C 40.09375 61.78125 35.09375 65.296875 28.203125 65.296875 
C 16.296875 65.296875 3.796875 52.96875 3.796875 31 
C 3.796875 3.953125 15.09375 -2 23.09375 -2 
C 32.796875 -2 42 6.671875 42 20.046875 
C 42 32.515625 33.90625 41.59375 23.703125 41.59375 
C 17.59375 41.59375 13.09375 37.609375 10.59375 30.625 
z
M 23.09375 0.390625 
C 10.796875 0.390625 10.796875 18.75 10.796875 22.4375 
C 10.796875 29.625 14.203125 40 23.5 40 
C 25.203125 40 30.09375 40 33.40625 33.125 
C 35.203125 29.21875 35.203125 25.140625 35.203125 20.140625 
C 35.203125 14.75 35.203125 10.78125 33.09375 6.78125 
C 30.90625 2.671875 27.703125 0.390625 23.09375 0.390625 
z
" id="CMR17-54"/>
       </defs>
       <use transform="scale(0.996264)" xlink:href="#CMR17-48"/>
       <use transform="translate(45.690477 0)scale(0.996264)" xlink:href="#CMMI12-58"/>
       <use transform="translate(72.787654 0)scale(0.996264)" xlink:href="#CMR17-54"/>
      </g>
     </g>
    </g>
    <g id="xtick_4">
     <g id="line2d_7">
      <g>
       <use style="stroke:#000000;stroke-width:0.8;" x="317.876819" xlink:href="#mc7f4109aec" y="239.438647"/>
      </g>
     </g>
     <g id="line2d_8">
      <g>
       <use style="stroke:#000000;stroke-width:0.8;" x="317.876819" xlink:href="#mc7f4109aec" y="1.75"/>
      </g>
     </g>
     <g id="text_4">
      <!-- $\mathdefault{0.8}$ -->
      <g transform="translate(311.511779 251.607145)scale(0.1 -0.1)">
       <defs>
        <path d="M 27.203125 35.375 
C 33.5 38.546875 39.90625 43.328125 39.90625 50.984375 
C 39.90625 60.015625 31.09375 65.296875 23 65.296875 
C 13.90625 65.296875 5.90625 58.734375 5.90625 49.6875 
C 5.90625 47.203125 6.5 42.921875 10.40625 39.140625 
C 11.40625 38.15625 15.59375 35.171875 18.296875 33.28125 
C 13.796875 30.984375 3.296875 25.53125 3.296875 14.59375 
C 3.296875 4.359375 13.09375 -2 22.796875 -2 
C 33.5 -2 42.5 5.65625 42.5 15.78125 
C 42.5 24.84375 36.40625 29.015625 32.40625 31.703125 
z
M 14.09375 44.09375 
C 13.296875 44.59375 9.296875 47.671875 9.296875 52.359375 
C 9.296875 58.421875 15.59375 63 22.796875 63 
C 30.703125 63 36.5 57.4375 36.5 50.96875 
C 36.5 41.703125 26.09375 36.421875 25.59375 36.421875 
C 25.5 36.421875 25.40625 36.421875 24.59375 37.03125 
z
M 32.5 23.734375 
C 34 22.640625 38.796875 19.375 38.796875 13.296875 
C 38.796875 5.953125 31.40625 0.390625 23 0.390625 
C 13.90625 0.390625 7 6.84375 7 14.6875 
C 7 22.546875 13.09375 29.09375 20 32.1875 
z
" id="CMR17-56"/>
       </defs>
       <use transform="scale(0.996264)" xlink:href="#CMR17-48"/>
       <use transform="translate(45.690477 0)scale(0.996264)" xlink:href="#CMMI12-58"/>
       <use transform="translate(72.787654 0)scale(0.996264)" xlink:href="#CMR17-56"/>
      </g>
     </g>
    </g>
    <g id="xtick_5">
     <g id="line2d_9">
      <g>
       <use style="stroke:#000000;stroke-width:0.8;" x="391.864692" xlink:href="#mc7f4109aec" y="239.438647"/>
      </g>
     </g>
     <g id="line2d_10">
      <g>
       <use style="stroke:#000000;stroke-width:0.8;" x="391.864692" xlink:href="#mc7f4109aec" y="1.75"/>
      </g>
     </g>
     <g id="text_5">
      <!-- $\mathdefault{1.0}$ -->
      <g transform="translate(385.499652 251.607145)scale(0.1 -0.1)">
       <defs>
        <path d="M 26.59375 63.40625 
C 26.59375 65.5 26.5 65.5 25.09375 65.5 
C 21.203125 61.1875 15.296875 59.796875 9.703125 59.796875 
C 9.40625 59.796875 8.90625 59.796875 8.796875 59.5 
C 8.703125 59.296875 8.703125 59.09375 8.703125 57 
C 11.796875 57 17 57.59375 21 59.984375 
L 21 7.203125 
C 21 3.6875 20.796875 2.5 12.203125 2.5 
L 9.203125 2.5 
L 9.203125 0 
C 14 0 19 0 23.796875 0 
C 28.59375 0 33.59375 0 38.40625 0 
L 38.40625 2.5 
L 35.40625 2.5 
C 26.796875 2.5 26.59375 3.59375 26.59375 7.15625 
z
" id="CMR17-49"/>
       </defs>
       <use transform="scale(0.996264)" xlink:href="#CMR17-49"/>
       <use transform="translate(45.690477 0)scale(0.996264)" xlink:href="#CMMI12-58"/>
       <use transform="translate(72.787654 0)scale(0.996264)" xlink:href="#CMR17-48"/>
      </g>
     </g>
    </g>
    <g id="text_6">
     <!-- scale factor $a$ -->
     <g transform="translate(196.153656 264.462822)scale(0.1 -0.1)">
      <defs>
       <path d="M 32.203125 41.046875 
C 26.296875 43.859375 21.703125 43.859375 18.703125 43.859375 
C 11.59375 43.859375 3.09375 41.375 3.09375 31.296875 
C 3.09375 21.234375 14.09375 19.03125 17.09375 18.421875 
C 21.703125 17.53125 26.796875 16.53125 26.796875 11.5625 
C 26.796875 5.265625 19.59375 5.265625 18.296875 5.265625 
C 14.296875 5.265625 8.796875 6.359375 3.796875 9.96875 
L 2.59375 3.28125 
C 8.296875 0 13.796875 -1 18.40625 -1 
C 30.703125 -1 33.796875 6.5 33.796875 12.203125 
C 33.796875 17.09375 31 20.390625 29.09375 21.890625 
C 25.796875 24.5 24.59375 24.796875 16.40625 26.5 
C 15 26.703125 10.09375 27.796875 10.09375 32.28125 
C 10.09375 38 16.40625 38 17.796875 38 
C 24.296875 38 28.296875 35.984375 31 34.5 
z
" id="CMSS17-115"/>
       <path d="M 38.5 39.703125 
C 38.5 40.390625 33.90625 42.40625 32.703125 42.796875 
C 29.40625 44 25.203125 44 24.09375 44 
C 11.09375 44 3.296875 32.703125 3.296875 21.296875 
C 3.296875 9.296875 12 -1 23.703125 -1 
C 30.40625 -1 35.203125 1.1875 39.09375 3.78125 
L 38.5 10.375 
C 34.203125 7.078125 29.203125 5.265625 23.796875 5.265625 
C 16 5.265625 10.90625 12.09375 10.90625 21.390625 
C 10.90625 28.609375 14.203125 37.71875 24.203125 37.71875 
C 29.703125 37.71875 32.796875 36.609375 37.40625 33.515625 
z
" id="CMSS17-99"/>
       <path d="M 37.59375 27.984375 
C 37.59375 37.375 30.90625 43.875 21.90625 43.875 
C 17.5 43.875 12.703125 43.078125 7.203125 39.890625 
L 7.796875 33.359375 
C 10.296875 35.125 14.59375 38 21.796875 38 
C 26.90625 38 30 34.0625 30 27.84375 
L 30 24 
C 14 24 4 19.34375 4 11.34375 
C 4 7.203125 6.5 -1 14.796875 -1 
C 16.296875 -1 24.40625 -1 30.203125 3.390625 
L 30.203125 -0.296875 
L 37.59375 -0.296875 
z
M 30 12.75 
C 30 10.953125 30 8.5625 27 6.78125 
C 24.40625 5.078125 21.09375 5.078125 19.703125 5.078125 
C 14.703125 5.078125 11.296875 7.984375 11.296875 11.625 
C 11.296875 18.921875 26.90625 18.921875 30 18.921875 
z
" id="CMSS17-97"/>
       <path d="M 14.796875 69 
L 7.40625 69 
L 7.40625 0 
L 14.796875 0 
z
" id="CMSS17-108"/>
       <path d="M 39.09375 21.515625 
C 39.09375 24.84375 38.90625 31.296875 35.703125 36.640625 
C 32.203125 42.390625 26.5 44 22.203125 44 
C 11.796875 44 3 34.1875 3 21.484375 
C 3 9.09375 12.09375 -1 23.59375 -1 
C 28.09375 -1 33.59375 0.296875 38.59375 3.875 
C 38.59375 4.28125 38.40625 6.46875 38.296875 6.5625 
C 38.296875 6.765625 38 9.84375 38 10.25 
C 33.203125 6.359375 27.703125 5.078125 23.703125 5.078125 
C 17.296875 5.078125 10.40625 10.421875 10.09375 21.515625 
z
M 10.90625 27 
C 12.203125 32.5625 16.59375 37.828125 22.203125 37.828125 
C 23.703125 37.828125 30.703125 37.828125 32.5 27 
z
" id="CMSS17-101"/>
       <path d="M 16.796875 37 
L 26.90625 37 
L 26.90625 42.765625 
L 16.59375 42.765625 
L 16.59375 55.609375 
C 16.59375 62.71875 22 63.9375 25.09375 63.9375 
C 26.09375 63.9375 28.90625 63.9375 32.5 62.640625 
L 32.5 69.203125 
C 30.203125 69.703125 27.40625 70 25.203125 70 
C 15.90625 70 9.40625 62.390625 9.40625 52.484375 
L 9.40625 42.765625 
L 2.5 42.765625 
L 2.5 37 
L 9.40625 37 
L 9.40625 0 
L 16.796875 0 
z
" id="CMSS17-102"/>
       <path d="M 16.703125 37 
L 29.703125 37 
L 29.703125 42.765625 
L 16.703125 42.765625 
L 16.703125 55 
L 9.59375 55 
L 9.59375 42.765625 
L 1.703125 42.765625 
L 1.703125 37 
L 9.40625 37 
L 9.40625 11.703125 
C 9.40625 6 10.703125 -1 17.296875 -1 
C 22.296875 -1 26.90625 0.390625 31.296875 2.6875 
L 29.703125 8.5625 
C 27.296875 6.46875 24.40625 5.265625 21.296875 5.265625 
C 16.90625 5.265625 16.703125 10.875 16.703125 13.375 
z
" id="CMSS17-116"/>
       <path d="M 44.203125 21.1875 
C 44.203125 34 34.703125 44 23.5 44 
C 12 44 2.703125 33.703125 2.703125 21.1875 
C 2.703125 8.5 12.296875 -1 23.40625 -1 
C 34.796875 -1 44.203125 8.796875 44.203125 21.1875 
z
M 23.5 5.265625 
C 16.40625 5.265625 10.296875 11.078125 10.296875 22 
C 10.296875 33.609375 17.40625 37.921875 23.40625 37.921875 
C 29.90625 37.921875 36.59375 33.21875 36.59375 22 
C 36.59375 10.671875 30.09375 5.265625 23.5 5.265625 
z
" id="CMSS17-111"/>
       <path d="M 14.90625 21.296875 
C 14.90625 30.703125 21.796875 37 30.59375 37 
L 30.59375 43.578125 
C 24.203125 43.578125 18.203125 40.390625 14.59375 35.203125 
L 14.59375 43.09375 
L 7.5 43.09375 
L 7.5 0 
L 14.90625 0 
z
" id="CMSS17-114"/>
       <path d="M 30.09375 11.875 
C 29.59375 10.171875 29.59375 9.984375 28.203125 8.078125 
C 26 5.28125 21.59375 1 16.90625 1 
C 12.796875 1 10.5 4.6875 10.5 10.578125 
C 10.5 16.0625 13.59375 27.234375 15.5 31.4375 
C 18.90625 38.421875 23.59375 42.015625 27.5 42.015625 
C 34.09375 42.015625 35.40625 33.828125 35.40625 33.03125 
C 35.40625 32.9375 35.09375 31.625 35 31.4375 
z
M 36.5 37.421875 
C 35.40625 40.015625 32.703125 44 27.5 44 
C 16.203125 44 4 29.4375 4 14.671875 
C 4 4.796875 9.796875 -1 16.59375 -1 
C 22.09375 -1 26.796875 3.296875 29.59375 6.59375 
C 30.59375 0.703125 35.296875 -1 38.296875 -1 
C 41.296875 -1 43.703125 0.796875 45.5 4.390625 
C 47.09375 7.78125 48.5 13.875 48.5 14.265625 
C 48.5 14.765625 48.09375 15.171875 47.5 15.171875 
C 46.59375 15.171875 46.5 14.671875 46.09375 13.171875 
C 44.59375 7.28125 42.703125 1 38.59375 1 
C 35.703125 1 35.5 3.59375 35.5 5.59375 
C 35.5 7.890625 35.796875 8.984375 36.703125 12.875 
C 37.40625 15.375 37.90625 17.5625 38.703125 20.453125 
C 42.40625 35.421875 43.296875 39.015625 43.296875 39.609375 
C 43.296875 41.015625 42.203125 42.109375 40.703125 42.109375 
C 37.5 42.109375 36.703125 38.625 36.5 37.421875 
z
" id="CMMI12-97"/>
      </defs>
      <use transform="scale(0.996264)" xlink:href="#CMSS17-115"/>
      <use transform="translate(35.913542 0)scale(0.996264)" xlink:href="#CMSS17-99"/>
      <use transform="translate(77.552364 0)scale(0.996264)" xlink:href="#CMSS17-97"/>
      <use transform="translate(122.474285 0)scale(0.996264)" xlink:href="#CMSS17-108"/>
      <use transform="translate(144.655008 0)scale(0.996264)" xlink:href="#CMSS17-101"/>
      <use transform="translate(217.522943 0)scale(0.996264)" xlink:href="#CMSS17-102"/>
      <use transform="translate(246.149601 0)scale(0.996264)" xlink:href="#CMSS17-97"/>
      <use transform="translate(291.071522 0)scale(0.996264)" xlink:href="#CMSS17-99"/>
      <use transform="translate(332.710344 0)scale(0.996264)" xlink:href="#CMSS17-116"/>
      <use transform="translate(366.541911 0)scale(0.996264)" xlink:href="#CMSS17-111"/>
      <use transform="translate(410.78308 0)scale(0.996264)" xlink:href="#CMSS17-114"/>
      <use transform="translate(473.921966 0)scale(0.996264)" xlink:href="#CMMI12-97"/>
     </g>
    </g>
   </g>
   <g id="matplotlib.axis_2">
    <g id="ytick_1">
     <g id="line2d_11">
      <defs>
       <path d="M 1.75 0 
L -1.75 -0 
" id="m9d1228d90e" style="stroke:#000000;stroke-width:0.8;"/>
      </defs>
      <g>
       <use style="stroke:#000000;stroke-width:0.8;" x="39.373213" xlink:href="#m9d1228d90e" y="161.603408"/>
      </g>
     </g>
     <g id="line2d_12">
      <g>
       <use style="stroke:#000000;stroke-width:0.8;" x="408.65" xlink:href="#m9d1228d90e" y="161.603408"/>
      </g>
     </g>
     <g id="text_7">
      <!-- $\mathdefault{10^{-1}}$ -->
      <g transform="translate(13.96264 165.062657)scale(0.1 -0.1)">
       <defs>
        <path d="M 65.90625 23 
C 67.59375 23 69.40625 23 69.40625 25 
C 69.40625 27 67.59375 27 65.90625 27 
L 11.796875 27 
C 10.09375 27 8.296875 27 8.296875 25 
C 8.296875 23 10.09375 23 11.796875 23 
z
" id="CMSY10-0"/>
       </defs>
       <use transform="scale(0.996264)" xlink:href="#CMR17-49"/>
       <use transform="translate(45.690477 0)scale(0.996264)" xlink:href="#CMR17-48"/>
       <use transform="translate(91.380954 36.153639)scale(0.697382)" xlink:href="#CMSY10-0"/>
       <use transform="translate(145.621947 36.153639)scale(0.697382)" xlink:href="#CMR17-49"/>
      </g>
     </g>
    </g>
    <g id="ytick_2">
     <g id="line2d_13">
      <g>
       <use style="stroke:#000000;stroke-width:0.8;" x="39.373213" xlink:href="#m9d1228d90e" y="49.139048"/>
      </g>
     </g>
     <g id="line2d_14">
      <g>
       <use style="stroke:#000000;stroke-width:0.8;" x="408.65" xlink:href="#m9d1228d90e" y="49.139048"/>
      </g>
     </g>
     <g id="text_8">
      <!-- $\mathdefault{10^{0}}$ -->
      <g transform="translate(20.189305 52.598297)scale(0.1 -0.1)">
       <use transform="scale(0.996264)" xlink:href="#CMR17-49"/>
       <use transform="translate(45.690477 0)scale(0.996264)" xlink:href="#CMR17-48"/>
       <use transform="translate(91.380954 36.153639)scale(0.697382)" xlink:href="#CMR17-48"/>
      </g>
     </g>
    </g>
    <g id="ytick_3">
     <g id="line2d_15">
      <defs>
       <path d="M 1 0 
L -1 -0 
" id="m044af252fa" style="stroke:#000000;stroke-width:0.6;"/>
      </defs>
      <g>
       <use style="stroke:#000000;stroke-width:0.6;" x="39.373213" xlink:href="#m044af252fa" y="220.408631"/>
      </g>
     </g>
     <g id="line2d_16">
      <g>
       <use style="stroke:#000000;stroke-width:0.6;" x="408.65" xlink:href="#m044af252fa" y="220.408631"/>
      </g>
     </g>
    </g>
    <g id="ytick_4">
     <g id="line2d_17">
      <g>
       <use style="stroke:#000000;stroke-width:0.6;" x="39.373213" xlink:href="#m044af252fa" y="206.357476"/>
      </g>
     </g>
     <g id="line2d_18">
      <g>
       <use style="stroke:#000000;stroke-width:0.6;" x="408.65" xlink:href="#m044af252fa" y="206.357476"/>
      </g>
     </g>
    </g>
    <g id="ytick_5">
     <g id="line2d_19">
      <g>
       <use style="stroke:#000000;stroke-width:0.6;" x="39.373213" xlink:href="#m044af252fa" y="195.458553"/>
      </g>
     </g>
     <g id="line2d_20">
      <g>
       <use style="stroke:#000000;stroke-width:0.6;" x="408.65" xlink:href="#m044af252fa" y="195.458553"/>
      </g>
     </g>
    </g>
    <g id="ytick_6">
     <g id="line2d_21">
      <g>
       <use style="stroke:#000000;stroke-width:0.6;" x="39.373213" xlink:href="#m044af252fa" y="186.553485"/>
      </g>
     </g>
     <g id="line2d_22">
      <g>
       <use style="stroke:#000000;stroke-width:0.6;" x="408.65" xlink:href="#m044af252fa" y="186.553485"/>
      </g>
     </g>
    </g>
    <g id="ytick_7">
     <g id="line2d_23">
      <g>
       <use style="stroke:#000000;stroke-width:0.6;" x="39.373213" xlink:href="#m044af252fa" y="179.024357"/>
      </g>
     </g>
     <g id="line2d_24">
      <g>
       <use style="stroke:#000000;stroke-width:0.6;" x="408.65" xlink:href="#m044af252fa" y="179.024357"/>
      </g>
     </g>
    </g>
    <g id="ytick_8">
     <g id="line2d_25">
      <g>
       <use style="stroke:#000000;stroke-width:0.6;" x="39.373213" xlink:href="#m044af252fa" y="172.50233"/>
      </g>
     </g>
     <g id="line2d_26">
      <g>
       <use style="stroke:#000000;stroke-width:0.6;" x="408.65" xlink:href="#m044af252fa" y="172.50233"/>
      </g>
     </g>
    </g>
    <g id="ytick_9">
     <g id="line2d_27">
      <g>
       <use style="stroke:#000000;stroke-width:0.6;" x="39.373213" xlink:href="#m044af252fa" y="166.749494"/>
      </g>
     </g>
     <g id="line2d_28">
      <g>
       <use style="stroke:#000000;stroke-width:0.6;" x="408.65" xlink:href="#m044af252fa" y="166.749494"/>
      </g>
     </g>
    </g>
    <g id="ytick_10">
     <g id="line2d_29">
      <g>
       <use style="stroke:#000000;stroke-width:0.6;" x="39.373213" xlink:href="#m044af252fa" y="127.748262"/>
      </g>
     </g>
     <g id="line2d_30">
      <g>
       <use style="stroke:#000000;stroke-width:0.6;" x="408.65" xlink:href="#m044af252fa" y="127.748262"/>
      </g>
     </g>
    </g>
    <g id="ytick_11">
     <g id="line2d_31">
      <g>
       <use style="stroke:#000000;stroke-width:0.6;" x="39.373213" xlink:href="#m044af252fa" y="107.944271"/>
      </g>
     </g>
     <g id="line2d_32">
      <g>
       <use style="stroke:#000000;stroke-width:0.6;" x="408.65" xlink:href="#m044af252fa" y="107.944271"/>
      </g>
     </g>
    </g>
    <g id="ytick_12">
     <g id="line2d_33">
      <g>
       <use style="stroke:#000000;stroke-width:0.6;" x="39.373213" xlink:href="#m044af252fa" y="93.893116"/>
      </g>
     </g>
     <g id="line2d_34">
      <g>
       <use style="stroke:#000000;stroke-width:0.6;" x="408.65" xlink:href="#m044af252fa" y="93.893116"/>
      </g>
     </g>
    </g>
    <g id="ytick_13">
     <g id="line2d_35">
      <g>
       <use style="stroke:#000000;stroke-width:0.6;" x="39.373213" xlink:href="#m044af252fa" y="82.994194"/>
      </g>
     </g>
     <g id="line2d_36">
      <g>
       <use style="stroke:#000000;stroke-width:0.6;" x="408.65" xlink:href="#m044af252fa" y="82.994194"/>
      </g>
     </g>
    </g>
    <g id="ytick_14">
     <g id="line2d_37">
      <g>
       <use style="stroke:#000000;stroke-width:0.6;" x="39.373213" xlink:href="#m044af252fa" y="74.089126"/>
      </g>
     </g>
     <g id="line2d_38">
      <g>
       <use style="stroke:#000000;stroke-width:0.6;" x="408.65" xlink:href="#m044af252fa" y="74.089126"/>
      </g>
     </g>
    </g>
    <g id="ytick_15">
     <g id="line2d_39">
      <g>
       <use style="stroke:#000000;stroke-width:0.6;" x="39.373213" xlink:href="#m044af252fa" y="66.559998"/>
      </g>
     </g>
     <g id="line2d_40">
      <g>
       <use style="stroke:#000000;stroke-width:0.6;" x="408.65" xlink:href="#m044af252fa" y="66.559998"/>
      </g>
     </g>
    </g>
    <g id="ytick_16">
     <g id="line2d_41">
      <g>
       <use style="stroke:#000000;stroke-width:0.6;" x="39.373213" xlink:href="#m044af252fa" y="60.037971"/>
      </g>
     </g>
     <g id="line2d_42">
      <g>
       <use style="stroke:#000000;stroke-width:0.6;" x="408.65" xlink:href="#m044af252fa" y="60.037971"/>
      </g>
     </g>
    </g>
    <g id="ytick_17">
     <g id="line2d_43">
      <g>
       <use style="stroke:#000000;stroke-width:0.6;" x="39.373213" xlink:href="#m044af252fa" y="54.285135"/>
      </g>
     </g>
     <g id="line2d_44">
      <g>
       <use style="stroke:#000000;stroke-width:0.6;" x="408.65" xlink:href="#m044af252fa" y="54.285135"/>
      </g>
     </g>
    </g>
    <g id="ytick_18">
     <g id="line2d_45">
      <g>
       <use style="stroke:#000000;stroke-width:0.6;" x="39.373213" xlink:href="#m044af252fa" y="15.283903"/>
      </g>
     </g>
     <g id="line2d_46">
      <g>
       <use style="stroke:#000000;stroke-width:0.6;" x="408.65" xlink:href="#m044af252fa" y="15.283903"/>
      </g>
     </g>
    </g>
    <g id="text_9">
     <!-- major mergers / halo / Gyr -->
     <g transform="translate(7.47198 177.768918)rotate(-90)scale(0.1 -0.1)">
      <defs>
       <path d="M 67 29.328125 
C 67 36.0625 65.296875 44 54.09375 44 
C 46.59375 44 42.09375 39.3125 40.09375 36.421875 
C 38.296875 41.71875 34.09375 44 28.09375 44 
C 21.296875 44 17 40.125 14.703125 37.328125 
L 14.703125 43.09375 
L 7.40625 43.09375 
L 7.40625 0 
L 15 0 
L 15 24.359375 
C 15 30.296875 17.203125 37.9375 24.296875 37.9375 
C 33.40625 37.9375 33.40625 31.5 33.40625 28.578125 
L 33.40625 0 
L 41 0 
L 41 24.359375 
C 41 30.296875 43.203125 37.9375 50.296875 37.9375 
C 59.40625 37.9375 59.40625 31.5 59.40625 28.578125 
L 59.40625 0 
L 67 0 
z
" id="CMSS17-109"/>
       <path d="M 17.40625 66 
L 9 66 
L 9 57.640625 
L 17.40625 57.640625 
z
M -5.796875 -16.625 
C -2.59375 -18.609375 1.296875 -20 5.5 -20 
C 11.796875 -20 17.40625 -14.609375 17.40625 -5.71875 
L 17.40625 43.234375 
L 10 43.234375 
L 10 -6.640625 
C 10 -12.734375 5.40625 -13.640625 2.796875 -13.640625 
C 0.59375 -13.640625 -2 -12.9375 -4.296875 -10.546875 
z
" id="CMSS17-106"/>
       <path d="M 44.5 43.875 
C 38.796875 43.875 33.90625 42.78125 29.90625 40.890625 
C 26.59375 43.390625 23.203125 43.875 20.90625 43.875 
C 12.203125 43.875 5.59375 36.703125 5.59375 28.34375 
C 5.59375 22.9375 8.59375 18.859375 8.796875 18.671875 
C 7 16.171875 6 13.484375 6 10.5 
C 6 7 7.40625 4.515625 8.5 3.125 
C 3.296875 -0.046875 2.59375 -4.90625 2.59375 -6.796875 
C 2.59375 -14.03125 11.703125 -20 23.40625 -20 
C 35.203125 -20 44.296875 -14.03125 44.296875 -6.6875 
C 44.296875 7 29 7 24.796875 7 
L 16.703125 7 
C 15.203125 7 11.203125 7 11.203125 12.359375 
C 11.203125 14.390625 12.09375 15.6875 12.203125 15.78125 
C 13.703125 14.6875 16.796875 13 20.90625 13 
C 29.203125 13 36.09375 19.96875 36.09375 28.546875 
C 36.09375 33.3125 33.90625 36.796875 33 38 
L 33.296875 38 
C 33.59375 38 37.796875 38 39.296875 38 
C 42.5 38 42.796875 37.953125 45.59375 37.796875 
z
M 20.90625 18.46875 
C 17.5 18.46875 12.703125 20.546875 12.703125 28.484375 
C 12.703125 37.109375 18.203125 38.5 20.796875 38.5 
C 24.203125 38.5 29 36.421875 29 28.484375 
C 29 19.859375 23.5 18.46875 20.90625 18.46875 
z
M 24.703125 -0.15625 
C 27.09375 -0.15625 37.203125 -0.15625 37.203125 -6.90625 
C 37.203125 -11.15625 31 -14.515625 23.5 -14.515625 
C 15.90625 -14.515625 9.703125 -11.25 9.703125 -6.796875 
C 9.703125 -6.296875 9.703125 -0.15625 16.59375 -0.15625 
z
" id="CMSS17-103"/>
       <path d="M 41.203125 71.015625 
C 41.703125 72.296875 41.703125 72.5 41.703125 72.703125 
C 41.703125 73.890625 40.796875 74.5 40 74.5 
C 38.796875 74.5 38.40625 73.703125 38 72.5 
L 5.703125 -21.515625 
C 5.203125 -22.8125 5.203125 -23.015625 5.203125 -23.21875 
C 5.203125 -24.40625 6.09375 -25 6.90625 -25 
C 8.09375 -25 8.5 -24.203125 8.90625 -23.015625 
z
" id="CMSS17-47"/>
       <path d="M 40.90625 29.546875 
C 40.90625 35.8125 39.40625 44.0625 28.09375 44.0625 
C 21.796875 44.0625 17.703125 40.984375 14.796875 37.609375 
L 14.796875 69.5 
L 7.40625 69.5 
L 7.40625 0.5 
L 15 0.5 
L 15 24.578125 
C 15 30.828125 17.40625 38 24.203125 38 
C 33 38 33.296875 32.125 33.296875 28.734375 
L 33.296875 0.5 
L 40.90625 0.5 
z
" id="CMSS17-104"/>
       <path d="M 56.40625 29 
L 36.5 29 
L 36.5 22.828125 
L 48.796875 22.828125 
L 48.796875 7.359375 
C 44.90625 6.265625 40.90625 5.46875 36.90625 5.46875 
C 22.90625 5.46875 14.59375 20.328125 14.59375 34.375 
C 14.59375 48.359375 23.296875 63 36.90625 63 
C 44.59375 63 48.90625 60.640625 54.203125 56.671875 
L 55.5 64.59375 
C 48.90625 67.984375 44.796875 69.375 37.296875 69.375 
C 17.90625 69.375 6.203125 51.9375 6.203125 34.09375 
C 6.203125 17.03125 18 -1 36.703125 -1 
C 43.703125 -1 50.203125 0.796875 56.40625 3.875 
z
" id="CMSS17-71"/>
       <path d="M 41.796875 43 
L 34 43 
C 25.5 20.21875 22.59375 10.96875 22.40625 5.984375 
L 22.296875 5.984375 
C 22 10.875 17.59375 22.8125 14.09375 31.359375 
L 9.40625 43 
L 1.296875 43 
L 19 0.203125 
C 17.90625 -2.78125 16.296875 -7.265625 15.796875 -8.265625 
C 13.59375 -13.828125 12.09375 -13.828125 10.5 -13.828125 
C 10.09375 -13.828125 6.90625 -13.828125 3.296875 -12.640625 
L 3.90625 -19.203125 
C 6.40625 -19.703125 8.90625 -20 10.703125 -20 
C 13.203125 -20 18.203125 -20 22.796875 -7.765625 
z
" id="CMSS17-121"/>
      </defs>
      <use transform="scale(0.996264)" xlink:href="#CMSS17-109"/>
      <use transform="translate(74.229254 0)scale(0.996264)" xlink:href="#CMSS17-97"/>
      <use transform="translate(119.151175 0)scale(0.996264)" xlink:href="#CMSS17-106"/>
      <use transform="translate(143.934261 0)scale(0.996264)" xlink:href="#CMSS17-111"/>
      <use transform="translate(188.17543 0)scale(0.996264)" xlink:href="#CMSS17-114"/>
      <use transform="translate(251.314316 0)scale(0.996264)" xlink:href="#CMSS17-109"/>
      <use transform="translate(325.54357 0)scale(0.996264)" xlink:href="#CMSS17-101"/>
      <use transform="translate(367.182392 0)scale(0.996264)" xlink:href="#CMSS17-114"/>
      <use transform="translate(399.092165 0)scale(0.996264)" xlink:href="#CMSS17-103"/>
      <use transform="translate(445.935788 0)scale(0.996264)" xlink:href="#CMSS17-101"/>
      <use transform="translate(487.57461 0)scale(0.996264)" xlink:href="#CMSS17-114"/>
      <use transform="translate(519.484383 0)scale(0.996264)" xlink:href="#CMSS17-115"/>
      <use transform="translate(586.627038 0)scale(0.996264)" xlink:href="#CMSS17-47"/>
      <use transform="translate(664.699774 0)scale(0.996264)" xlink:href="#CMSS17-104"/>
      <use transform="translate(712.904717 0)scale(0.996264)" xlink:href="#CMSS17-97"/>
      <use transform="translate(757.826638 0)scale(0.996264)" xlink:href="#CMSS17-108"/>
      <use transform="translate(780.007361 0)scale(0.996264)" xlink:href="#CMSS17-111"/>
      <use transform="translate(858.080097 0)scale(0.996264)" xlink:href="#CMSS17-47"/>
      <use transform="translate(936.152833 0)scale(0.996264)" xlink:href="#CMSS17-71"/>
      <use transform="translate(998.611059 0)scale(0.996264)" xlink:href="#CMSS17-121"/>
      <use transform="translate(1041.6112 0)scale(0.996264)" xlink:href="#CMSS17-114"/>
     </g>
    </g>
   </g>
   <g id="line2d_47">
    <path clip-path="url(#p6b1850aa86)" d="M 63.519603 267.4 
L 63.520499 130.524439 
L 63.521396 267.4 
M 67.937052 267.4 
L 67.937686 219.097164 
L 68.673884 198.148923 
L 70.146279 199.360178 
L 70.882477 169.153333 
L 72.354872 228.634617 
L 73.827268 186.180078 
L 74.563465 182.7547 
L 76.035861 184.114682 
L 77.508256 179.534939 
L 78.980652 164.942216 
L 80.453047 160.057197 
L 81.189245 147.455991 
L 82.661641 153.482316 
L 84.134036 152.729439 
L 86.342629 154.800964 
L 87.815025 138.185556 
L 89.28742 134.578971 
L 90.759816 132.010505 
L 92.232211 126.318423 
L 94.440804 134.030624 
L 95.9132 118.446118 
L 98.121793 126.870168 
L 99.594189 114.167334 
L 101.802782 120.523999 
L 103.275177 112.622207 
L 105.483771 118.071488 
L 107.692364 114.408331 
L 109.900957 113.234746 
L 112.10955 112.754623 
L 113.581946 107.116493 
L 115.790539 110.923855 
L 117.999132 110.345268 
L 120.943923 114.416481 
L 123.152516 108.435186 
L 125.36111 107.406349 
L 128.305901 114.103711 
L 130.514494 110.151872 
L 133.459285 114.512372 
L 135.667878 110.575717 
L 138.612669 114.941854 
L 141.55746 117.11695 
L 144.502251 118.61422 
L 147.447042 119.076649 
L 150.391833 119.420635 
L 154.072821 125.77536 
L 157.017612 126.412525 
L 159.962403 125.577537 
L 163.643392 130.619778 
L 167.324381 133.599164 
L 170.269172 132.325703 
L 173.95016 136.87097 
L 177.631149 137.49851 
L 181.312138 140.372916 
L 185.729324 144.768578 
L 189.410313 144.3776 
L 193.827499 150.983946 
L 197.508488 149.629636 
L 201.925675 152.752732 
L 206.342861 156.80035 
L 210.760047 159.833565 
L 215.177234 160.535159 
L 220.330618 165.999873 
L 224.747804 165.582116 
L 229.901189 171.854477 
L 235.054573 174.114379 
L 240.207957 175.987895 
L 245.361341 178.977923 
L 250.514725 178.817349 
L 256.404307 183.513797 
L 262.293889 185.952292 
L 268.183471 188.298403 
L 273.336855 189.446999 
L 279.962635 194.619184 
L 285.852217 193.767473 
L 293.214194 197.809393 
L 299.103776 195.777031 
L 305.729556 199.33157 
L 313.091533 203.973095 
L 319.717313 203.926997 
L 327.07929 207.697079 
L 334.441268 209.297513 
L 342.539443 213.434214 
L 349.90142 213.719143 
L 357.999595 213.444783 
L 366.097771 215.603001 
L 374.195946 212.996963 
L 383.030319 212.743597 
L 391.864692 201.857826 
" style="fill:none;stroke:#1f77b4;stroke-linecap:square;stroke-width:1.5;"/>
   </g>
   <g id="line2d_48">
    <path clip-path="url(#p6b1850aa86)" d="M 63.519603 267.4 
L 63.520499 130.524439 
L 63.521396 267.4 
M 67.937052 267.4 
L 67.937686 219.097164 
L 68.673884 198.148923 
L 70.146279 199.360178 
L 70.882477 169.153333 
L 72.354872 228.634617 
L 73.827268 186.180078 
L 74.563465 182.7547 
L 76.035861 184.114682 
L 77.508256 179.534939 
L 78.980652 164.942216 
L 80.453047 157.171138 
L 81.189245 145.742038 
L 82.661641 151.618883 
L 84.134036 151.199567 
L 86.342629 153.099805 
L 87.815025 137.054889 
L 89.28742 133.288712 
L 90.759816 130.082763 
L 92.232211 123.995055 
L 94.440804 131.407849 
L 95.9132 114.917743 
L 98.121793 123.615719 
L 99.594189 110.587286 
L 101.802782 116.329013 
L 103.275177 107.571716 
L 105.483771 113.029837 
L 107.692364 109.239117 
L 109.900957 107.646641 
L 112.10955 106.263213 
L 113.581946 100.531732 
L 115.790539 104.040332 
L 117.999132 102.775763 
L 120.943923 106.481038 
L 123.152516 100.124785 
L 125.36111 99.181285 
L 128.305901 105.180959 
L 130.514494 101.390796 
L 133.459285 105.330091 
L 135.667878 100.43794 
L 138.612669 104.925553 
L 141.55746 106.250675 
L 144.502251 107.280674 
L 147.447042 107.346151 
L 150.391833 108.152592 
L 154.072821 113.939634 
L 157.017612 113.906077 
L 159.962403 113.712335 
L 163.643392 118.456518 
L 167.324381 121.143607 
L 170.269172 119.777185 
L 173.95016 124.366613 
L 177.631149 124.806221 
L 181.312138 127.321173 
L 185.729324 132.136203 
L 189.410313 131.200371 
L 193.827499 137.693387 
L 197.508488 136.520055 
L 201.925675 140.130607 
L 206.342861 143.785106 
L 210.760047 146.294855 
L 215.177234 146.996714 
L 220.330618 153.2994 
L 224.747804 152.995694 
L 229.901189 157.394675 
L 235.054573 160.796329 
L 240.207957 162.806576 
L 245.361341 165.670282 
L 250.514725 165.470605 
L 256.404307 170.53615 
L 262.293889 172.889912 
L 268.183471 175.808292 
L 273.336855 175.745837 
L 279.962635 181.837387 
L 285.852217 180.779507 
L 293.214194 185.398426 
L 299.103776 183.150758 
L 305.729556 186.96213 
L 313.091533 191.181288 
L 319.717313 190.647991 
L 327.07929 194.202731 
L 334.441268 195.432283 
L 342.539443 199.707702 
L 349.90142 200.05537 
L 357.999595 200.910003 
L 366.097771 201.955745 
L 374.195946 199.523046 
L 383.030319 199.215486 
L 391.864692 188.381444 
" style="fill:none;stroke:#1f77b4;stroke-dasharray:5.55,2.4;stroke-dashoffset:0;stroke-width:1.5;"/>
   </g>
   <g id="line2d_49">
    <path clip-path="url(#p6b1850aa86)" d="M 59.838178 267.4 
L 59.839511 165.709227 
L 60.575708 126.124902 
L 61.311906 124.469788 
L 62.784302 130.989007 
L 63.520499 86.46333 
L 64.256697 84.073492 
L 65.729093 99.095874 
L 66.46529 83.504152 
L 67.937686 93.580994 
L 68.673884 72.413842 
L 70.146279 98.832973 
L 70.882477 75.206962 
L 72.354872 82.443137 
L 73.827268 78.873839 
L 74.563465 63.840189 
L 76.035861 66.181755 
L 77.508256 68.281057 
L 78.980652 65.903451 
L 80.453047 62.715355 
L 81.189245 50.694641 
L 82.661641 60.626582 
L 84.134036 57.756585 
L 86.342629 62.081072 
L 87.815025 57.519878 
L 89.28742 56.848558 
L 90.759816 59.854855 
L 92.232211 54.296703 
L 94.440804 63.056325 
L 95.9132 57.160609 
L 98.121793 63.138467 
L 99.594189 58.501817 
L 101.802782 64.487371 
L 103.275177 58.435243 
L 105.483771 65.535631 
L 107.692364 68.140614 
L 109.900957 68.885917 
L 112.10955 72.48621 
L 113.581946 67.206393 
L 115.790539 72.769972 
L 117.999132 73.859545 
L 120.943923 81.81572 
L 123.152516 85.496522 
L 125.36111 82.858815 
L 128.305901 88.328136 
L 130.514494 83.158497 
L 133.459285 94.260805 
L 135.667878 91.010579 
L 138.612669 94.60333 
L 141.55746 94.984525 
L 144.502251 98.664555 
L 147.447042 105.364579 
L 150.391833 104.135585 
L 154.072821 108.341513 
L 157.017612 110.966275 
L 159.962403 112.191304 
L 163.643392 116.926901 
L 167.324381 121.837006 
L 170.269172 121.540204 
L 173.95016 125.6371 
L 177.631149 122.286536 
L 181.312138 126.334176 
L 185.729324 132.025758 
L 189.410313 132.986034 
L 193.827499 138.110665 
L 197.508488 137.986177 
L 201.925675 141.442887 
L 206.342861 141.599515 
L 210.760047 144.889573 
L 215.177234 150.032875 
L 220.330618 152.456686 
L 224.747804 154.629068 
L 229.901189 153.928276 
L 235.054573 158.939117 
L 240.207957 162.412335 
L 245.361341 165.368733 
L 250.514725 166.042469 
L 256.404307 168.667134 
L 262.293889 171.33729 
L 268.183471 171.812289 
L 273.336855 169.262717 
L 279.962635 175.719803 
L 285.852217 176.211011 
L 293.214194 179.349682 
L 299.103776 178.260043 
L 305.729556 178.372657 
L 313.091533 188.959431 
L 319.717313 184.523447 
L 327.07929 185.538499 
L 334.441268 188.719751 
L 342.539443 193.300412 
L 349.90142 191.852494 
L 357.999595 200.427862 
L 366.097771 202.958781 
L 374.195946 197.55886 
L 383.030319 199.049885 
L 391.864692 202.632674 
" style="fill:none;stroke:#d62728;stroke-linecap:square;stroke-width:1.5;"/>
   </g>
   <g id="line2d_50">
    <path clip-path="url(#p6b1850aa86)" d="M 59.838178 267.4 
L 59.839511 165.709227 
L 60.575708 126.124902 
L 61.311906 124.469788 
L 62.784302 126.73914 
L 63.520499 86.46333 
L 64.256697 75.914128 
L 65.729093 98.022366 
L 66.46529 79.696304 
L 67.937686 90.546313 
L 68.673884 69.661415 
L 70.146279 95.03746 
L 70.882477 71.047629 
L 72.354872 78.171393 
L 73.827268 72.220972 
L 74.563465 58.951847 
L 76.035861 61.526553 
L 77.508256 60.822818 
L 78.980652 59.676871 
L 80.453047 55.985634 
L 81.189245 42.812006 
L 82.661641 52.42468 
L 84.134036 49.489066 
L 86.342629 54.102531 
L 87.815025 49.053989 
L 89.28742 47.031067 
L 90.759816 48.846022 
L 92.232211 44.274385 
L 94.440804 53.307084 
L 95.9132 46.282881 
L 98.121793 52.053241 
L 99.594189 49.113667 
L 101.802782 53.734696 
L 103.275177 47.43613 
L 105.483771 53.685933 
L 107.692364 58.031101 
L 109.900957 57.194574 
L 112.10955 60.482748 
L 113.581946 54.733007 
L 115.790539 60.412465 
L 117.999132 61.738254 
L 120.943923 70.078401 
L 123.152516 70.306315 
L 125.36111 70.287854 
L 128.305901 76.241855 
L 130.514494 70.787958 
L 133.459285 81.936361 
L 135.667878 78.259734 
L 138.612669 82.569496 
L 141.55746 82.489749 
L 144.502251 86.694172 
L 147.447042 92.287064 
L 150.391833 91.237421 
L 154.072821 97.112421 
L 157.017612 97.223555 
L 159.962403 100.335693 
L 163.643392 104.265107 
L 167.324381 109.327307 
L 170.269172 108.796373 
L 173.95016 111.601229 
L 177.631149 110.678022 
L 181.312138 113.618706 
L 185.729324 119.998779 
L 189.410313 119.213583 
L 193.827499 126.185572 
L 197.508488 124.472182 
L 201.925675 127.459805 
L 206.342861 127.463402 
L 210.760047 132.013636 
L 215.177234 136.243936 
L 220.330618 140.342887 
L 224.747804 141.895951 
L 229.901189 142.378503 
L 235.054573 144.846728 
L 240.207957 148.47211 
L 245.361341 151.791323 
L 250.514725 153.080787 
L 256.404307 156.078106 
L 262.293889 158.306447 
L 268.183471 158.698365 
L 273.336855 157.520773 
L 279.962635 163.650941 
L 285.852217 162.718063 
L 293.214194 165.117293 
L 299.103776 165.972763 
L 305.729556 166.658179 
L 313.091533 175.763686 
L 319.717313 172.03045 
L 327.07929 173.851603 
L 334.441268 177.959916 
L 342.539443 180.521812 
L 349.90142 180.127619 
L 357.999595 186.135168 
L 366.097771 189.166543 
L 374.195946 183.877091 
L 383.030319 186.561829 
L 391.864692 187.990323 
" style="fill:none;stroke:#d62728;stroke-dasharray:5.55,2.4;stroke-dashoffset:0;stroke-width:1.5;"/>
   </g>
   <g id="line2d_51">
    <path clip-path="url(#p6b1850aa86)" d="M 56.158522 61.074854 
L 56.159873 267.4 
M 59.837099 267.4 
L 59.839511 83.27052 
L 60.575708 53.282056 
L 61.311906 71.530331 
L 62.784302 49.76422 
L 63.520499 39.310523 
L 64.256697 46.109237 
L 65.729093 41.939008 
L 66.46529 56.218994 
L 67.937686 27.677549 
L 68.673884 18.134902 
L 70.146279 47.56326 
L 70.882477 21.118523 
L 72.354872 34.696214 
L 73.827268 27.752284 
L 74.563465 23.910102 
L 76.035861 27.730734 
L 77.508256 23.807584 
L 78.980652 28.64459 
L 80.453047 31.3276 
L 81.189245 21.79233 
L 82.661641 22.389462 
L 84.134036 27.364592 
L 86.342629 36.574089 
L 87.815025 31.409185 
L 89.28742 36.166602 
L 90.759816 40.676913 
L 92.232211 31.307771 
L 94.440804 38.812118 
L 95.9132 42.142097 
L 98.121793 42.956508 
L 99.594189 54.391468 
L 101.802782 46.808558 
L 103.275177 44.475497 
L 105.483771 55.385789 
L 107.692364 50.580358 
L 109.900957 57.355472 
L 112.10955 60.887966 
L 113.581946 65.458907 
L 115.790539 73.097924 
L 117.999132 60.103301 
L 120.943923 71.064837 
L 123.152516 77.552526 
L 125.36111 63.361493 
L 128.305901 81.532356 
L 130.514494 63.051661 
L 133.459285 80.63167 
L 135.667878 78.72113 
L 138.612669 80.604505 
L 141.55746 89.269489 
L 144.502251 87.655993 
L 147.447042 93.392334 
L 150.391833 101.043094 
L 154.072821 99.806038 
L 157.017612 99.33645 
L 159.962403 109.202293 
L 163.643392 105.663059 
L 167.324381 111.305316 
L 170.269172 101.971633 
L 173.95016 121.436345 
L 177.631149 109.796217 
L 181.312138 113.10594 
L 185.729324 119.843013 
L 189.410313 115.543798 
L 193.827499 122.130846 
L 197.508488 135.762158 
L 201.925675 128.401644 
L 206.342861 132.177903 
L 210.760047 130.826463 
L 215.177234 132.408589 
L 220.330618 140.775969 
L 224.747804 138.957115 
L 229.901189 140.853009 
L 235.054573 141.61914 
L 240.207957 142.36833 
L 245.361341 157.960925 
L 250.514725 148.07316 
L 256.404307 151.880513 
L 262.293889 138.520691 
L 268.183471 153.249376 
L 273.336855 149.21704 
L 279.962635 155.194762 
L 285.852217 152.533737 
L 293.214194 157.358 
L 299.103776 155.4852 
L 305.729556 173.703549 
L 313.091533 157.03156 
L 319.717313 175.3625 
L 327.07929 167.637549 
L 334.441268 182.199591 
L 342.539443 184.976841 
L 349.90142 175.95742 
L 357.999595 186.563409 
L 366.097771 178.22324 
L 374.195946 188.201108 
L 383.030319 193.290552 
L 391.864692 185.497425 
" style="fill:none;stroke:#ff7f0e;stroke-linecap:square;stroke-width:1.5;"/>
   </g>
   <g id="line2d_52">
    <path clip-path="url(#p6b1850aa86)" d="M 56.158522 61.074854 
L 56.159873 267.4 
M 59.837099 267.4 
L 59.839511 83.27052 
L 60.575708 45.752928 
L 61.311906 71.530331 
L 62.784302 45.109018 
L 63.520499 39.310523 
L 64.256697 46.109237 
L 65.729093 39.298222 
L 66.46529 50.105695 
L 67.937686 22.371584 
L 68.673884 14.602569 
L 70.146279 37.671438 
L 70.882477 13.126429 
L 72.354872 27.927298 
L 73.827268 21.824698 
L 74.563465 13.01118 
L 76.035861 19.234393 
L 77.508256 12.995186 
L 78.980652 18.301757 
L 80.453047 22.66021 
L 81.189245 12.760233 
L 82.661641 12.554029 
L 84.134036 13.00912 
L 86.342629 22.442667 
L 87.815025 20.425392 
L 89.28742 24.354706 
L 90.759816 29.977757 
L 92.232211 21.729 
L 94.440804 28.728827 
L 95.9132 29.593911 
L 98.121793 30.243591 
L 99.594189 38.669017 
L 101.802782 37.613622 
L 103.275177 29.689852 
L 105.483771 42.259128 
L 107.692364 41.312146 
L 109.900957 45.635646 
L 112.10955 48.858175 
L 113.581946 52.31395 
L 115.790539 61.31893 
L 117.999132 49.542391 
L 120.943923 60.558227 
L 123.152516 65.147068 
L 125.36111 51.426998 
L 128.305901 68.071809 
L 130.514494 52.067869 
L 133.459285 66.242502 
L 135.667878 67.478647 
L 138.612669 73.585488 
L 141.55746 76.41454 
L 144.502251 74.880175 
L 147.447042 83.744397 
L 150.391833 89.497239 
L 154.072821 88.605927 
L 157.017612 89.310855 
L 159.962403 97.262544 
L 163.643392 90.922998 
L 167.324381 101.785867 
L 170.269172 91.19974 
L 173.95016 108.911647 
L 177.631149 100.209386 
L 181.312138 97.211448 
L 185.729324 107.304135 
L 189.410313 106.63873 
L 193.827499 109.650329 
L 197.508488 121.467398 
L 201.925675 116.672515 
L 206.342861 114.159482 
L 210.760047 116.957897 
L 215.177234 118.7346 
L 220.330618 126.915979 
L 224.747804 129.625471 
L 229.901189 126.421754 
L 235.054573 130.565408 
L 240.207957 131.785543 
L 245.361341 143.102435 
L 250.514725 134.244523 
L 256.404307 140.645901 
L 262.293889 130.262555 
L 268.183471 138.980659 
L 273.336855 137.768288 
L 279.962635 143.648908 
L 285.852217 145.254445 
L 293.214194 149.497734 
L 299.103776 143.840574 
L 305.729556 158.149425 
L 313.091533 143.975198 
L 319.717313 164.980436 
L 327.07929 155.362686 
L 334.441268 167.141335 
L 342.539443 174.342649 
L 349.90142 166.045251 
L 357.999595 171.136314 
L 366.097771 166.614726 
L 374.195946 178.805155 
L 383.030319 181.185577 
L 391.864692 172.784508 
" style="fill:none;stroke:#ff7f0e;stroke-dasharray:5.55,2.4;stroke-dashoffset:0;stroke-width:1.5;"/>
   </g>
   <g id="patch_3">
    <path d="M 39.373213 239.438647 
L 39.373213 1.75 
" style="fill:none;stroke:#000000;stroke-linecap:square;stroke-linejoin:miter;stroke-width:0.8;"/>
   </g>
   <g id="patch_4">
    <path d="M 408.65 239.438647 
L 408.65 1.75 
" style="fill:none;stroke:#000000;stroke-linecap:square;stroke-linejoin:miter;stroke-width:0.8;"/>
   </g>
   <g id="patch_5">
    <path d="M 39.373213 239.438647 
L 408.65 239.438647 
" style="fill:none;stroke:#000000;stroke-linecap:square;stroke-linejoin:miter;stroke-width:0.8;"/>
   </g>
   <g id="patch_6">
    <path d="M 39.373213 1.75 
L 408.65 1.75 
" style="fill:none;stroke:#000000;stroke-linecap:square;stroke-linejoin:miter;stroke-width:0.8;"/>
   </g>
   <g id="legend_1">
    <g id="patch_7">
     <path d="M 164.890231 103.351673 
L 401.65 103.351673 
Q 403.65 103.351673 403.65 101.351673 
L 403.65 8.75 
Q 403.65 6.75 401.65 6.75 
L 164.890231 6.75 
Q 162.890231 6.75 162.890231 8.75 
L 162.890231 101.351673 
Q 162.890231 103.351673 164.890231 103.351673 
z
" style="fill:#ffffff;opacity:0.8;stroke:#cccccc;stroke-linejoin:miter;"/>
    </g>
    <g id="line2d_53">
     <path d="M 166.890231 15.359619 
L 186.890231 15.359619 
" style="fill:none;stroke:#1f77b4;stroke-linecap:square;stroke-width:1.5;"/>
    </g>
    <g id="line2d_54"/>
    <g id="text_10">
     <!-- $M_\mathrm{FoF}(z=0) \in [1, \; 2] \times 10^{12} \; h^{-1}M_\odot$, $m_\mathrm{th}=0.3$ -->
     <g transform="translate(194.890231 18.859619)scale(0.1 -0.1)">
      <defs>
       <path d="M 90.796875 60.71875 
C 91.703125 64.109375 91.90625 65.109375 99 65.109375 
C 100.90625 65.109375 101.796875 65.109375 101.796875 67 
C 101.796875 68 101.09375 68 99.203125 68 
L 87.203125 68 
C 84.703125 68 84.59375 67.90625 83.5 66.296875 
L 47 8.78125 
L 39.5 65.796875 
C 39.203125 68 39.09375 68 36.5 68 
L 24.09375 68 
C 22.203125 68 21.296875 68 21.296875 66.109375 
C 21.296875 65.109375 22.203125 65.109375 23.703125 65.109375 
C 29.796875 65.109375 29.796875 64.3125 29.796875 63.21875 
C 29.796875 63.03125 29.796875 62.421875 29.40625 60.921875 
L 16.59375 9.90625 
C 15.40625 5.109375 13.09375 2.90625 6.40625 2.90625 
C 6.09375 2.90625 4.90625 2.90625 4.90625 1.140625 
C 4.90625 0 5.796875 0 6.203125 0 
C 8.203125 0 13.296875 0 15.296875 0 
L 20.09375 0 
C 21.5 0 23.203125 0 24.59375 0 
C 25.296875 0 26.40625 0 26.40625 1.90625 
C 26.40625 2.8125 25.40625 2.90625 25 2.90625 
C 21.703125 2.90625 18.5 3.5 18.5 7.09375 
C 18.5 8.09375 18.5 8.1875 18.90625 9.578125 
L 32.703125 64.515625 
L 32.796875 64.515625 
L 41.09375 2.6875 
C 41.40625 0.296875 41.5 0 42.40625 0 
C 43.5 0 44 0.796875 44.5 1.703125 
L 84.703125 65.015625 
L 84.796875 65.015625 
L 70.296875 7.390625 
C 69.40625 3.90625 69.203125 2.90625 62.203125 2.90625 
C 60.296875 2.90625 59.296875 2.90625 59.296875 1.09375 
C 59.296875 0 60.203125 0 60.796875 0 
C 62.5 0 64.5 0 66.203125 0 
L 78 0 
C 79.703125 0 81.796875 0 83.5 0 
C 84.296875 0 85.40625 0 85.40625 1.90625 
C 85.40625 2.90625 84.5 2.90625 83 2.90625 
C 76.90625 2.90625 76.90625 3.65625 76.90625 4.59375 
C 76.90625 4.703125 76.90625 5.390625 77.09375 6.1875 
z
" id="CMMI12-77"/>
       <path d="M 54.40625 67.578125 
L 5.09375 67.578125 
L 5.09375 65 
C 12 65 13.09375 65 13.09375 60.53125 
L 13.09375 6.96875 
C 13.09375 2.5 12 2.5 5.09375 2.5 
L 5.09375 0 
C 8 0 13.59375 0 16.703125 0 
C 20.796875 0 25.59375 0 29.703125 0 
L 29.703125 2.5 
L 27.5 2.5 
C 19.90625 2.5 19.703125 3.484375 19.703125 7.0625 
L 19.703125 32.421875 
L 28.703125 32.421875 
C 38 32.421875 38.90625 29.140625 38.90625 20.8125 
L 40.703125 20.8125 
L 40.703125 46.671875 
L 38.90625 46.671875 
C 38.90625 38.28125 38 35 28.703125 35 
L 19.703125 35 
L 19.703125 61.109375 
C 19.703125 64.5 19.90625 65 23.90625 65 
L 36.796875 65 
C 51.90625 65 53.59375 58.828125 55 45.5625 
L 56.796875 45.5625 
z
" id="CMR17-70"/>
       <path d="M 43.09375 21.1875 
C 43.09375 34 33.796875 44 22.90625 44 
C 12 44 2.703125 34 2.703125 21.1875 
C 2.703125 8.609375 12 -1 22.90625 -1 
C 33.796875 -1 43.09375 8.609375 43.09375 21.1875 
z
M 22.90625 0.796875 
C 18.203125 0.796875 14.203125 3.59375 11.90625 7.5 
C 9.40625 11.984375 9.09375 17.59375 9.09375 22 
C 9.09375 26.203125 9.296875 31.40625 11.90625 35.90625 
C 13.90625 39.203125 17.796875 42.40625 22.90625 42.40625 
C 27.40625 42.40625 31.203125 39.90625 33.59375 36.40625 
C 36.703125 31.703125 36.703125 25.109375 36.703125 22 
C 36.703125 18.09375 36.5 12.109375 33.796875 7.296875 
C 31 2.703125 26.703125 0.796875 22.90625 0.796875 
z
" id="CMR17-111"/>
       <path d="M 30.59375 -24.390625 
C 30.59375 -24.296875 30.59375 -24.09375 30.296875 -23.796875 
C 25.703125 -19.125 13.40625 -6.359375 13.40625 24.703125 
C 13.40625 55.765625 25.5 68.421875 30.40625 73.390625 
C 30.40625 73.5 30.59375 73.703125 30.59375 74 
C 30.59375 74.296875 30.296875 74.5 29.90625 74.5 
C 28.796875 74.5 20.296875 67.125 15.40625 56.15625 
C 10.40625 45.109375 9 34.359375 9 24.8125 
C 9 17.625 9.703125 5.484375 15.703125 -7.359375 
C 20.5 -17.734375 28.703125 -25 29.90625 -25 
C 30.40625 -25 30.59375 -24.796875 30.59375 -24.390625 
z
" id="CMR17-40"/>
       <path d="M 12.703125 7.59375 
C 17 12.546875 20.5 15.6875 25.5 20.25 
C 31.5 25.5 34.09375 28.015625 35.5 29.546875 
C 42.5 36.53125 46 42.390625 46 43.1875 
C 46 44 45.203125 44 45 44 
C 44.296875 44 44.09375 43.640625 43.59375 42.96875 
C 41.09375 38.96875 38.703125 36.984375 36.09375 36.984375 
C 34 36.984375 32.90625 37.828125 31 40.078125 
C 28.90625 42.421875 27.203125 44 24.296875 44 
C 17 44 12.59375 35.265625 12.59375 33.25 
C 12.59375 32.9375 12.703125 32.3125 13.59375 32.3125 
C 14.40625 32.3125 14.5 32.671875 14.796875 33.328125 
C 16.5 37.0625 21.296875 37.71875 23.203125 37.71875 
C 25.296875 37.71875 27.296875 37.125 29.40625 36.359375 
C 33.203125 35 34.796875 35 35.796875 35 
C 36.5 35 36.90625 35 37.40625 35.09375 
C 34.09375 31.15625 28.703125 26.296875 24.203125 22.15625 
L 14.09375 12.75 
C 8 6.484375 4.296875 0.515625 4.296875 -0.1875 
C 4.296875 -0.796875 4.796875 -1 5.40625 -1 
C 6 -1 6.09375 -0.890625 6.796875 0.21875 
C 8.40625 2.546875 11.59375 6 15.296875 6 
C 17.40625 6 18.40625 5.34375 20.40625 3.015625 
C 22.296875 0.953125 24 -1 27.203125 -1 
C 37 -1 42.59375 11.4375 42.59375 13.6875 
C 42.59375 14.109375 42.5 14.71875 41.5 14.71875 
C 40.703125 14.71875 40.59375 14.328125 40.296875 13.359375 
C 38.09375 7.625 32.203125 5.28125 28.296875 5.28125 
C 26.203125 5.28125 24.203125 5.875 22.09375 6.640625 
C 18.09375 8 17 8 15.703125 8 
C 14.703125 8 13.59375 8 12.703125 7.59375 
z
" id="CMMI12-122"/>
       <path d="M 64.296875 31.515625 
C 65.796875 31.515625 67.296875 31.515625 67.296875 33.203125 
C 67.296875 35 65.59375 35 63.90625 35 
L 8 35 
C 6.296875 35 4.59375 35 4.59375 33.203125 
C 4.59375 31.515625 6.09375 31.515625 7.59375 31.515625 
z
M 63.90625 14 
C 65.59375 14 67.296875 14 67.296875 15.796875 
C 67.296875 17.484375 65.796875 17.484375 64.296875 17.484375 
L 7.59375 17.484375 
C 6.09375 17.484375 4.59375 17.484375 4.59375 15.796875 
C 4.59375 14 6.296875 14 8 14 
z
" id="CMR17-61"/>
       <path d="M 26.296875 24.703125 
C 26.296875 31.875 25.59375 44.015625 19.59375 56.859375 
C 14.796875 67.234375 6.59375 74.5 5.40625 74.5 
C 5.09375 74.5 4.703125 74.390625 4.703125 73.890625 
C 4.703125 73.703125 4.796875 73.59375 4.90625 73.390625 
C 9.703125 68.40625 21.90625 55.75 21.90625 24.75 
C 21.90625 -6.359375 9.796875 -19.015625 4.90625 -24.015625 
C 4.796875 -24.203125 4.703125 -24.3125 4.703125 -24.5 
C 4.703125 -25 5.09375 -25 5.40625 -25 
C 6.5 -25 15 -17.625 19.90625 -6.65625 
C 24.90625 4.390625 26.296875 15.140625 26.296875 24.703125 
z
" id="CMR17-41"/>
       <path d="M 54.78125 23 
C 56.484375 23 58.28125 23 58.28125 25 
C 58.28125 27 56.484375 27 54.78125 27 
L 12.375 27 
C 13.578125 40.40625 25.078125 50 39.171875 50 
L 54.78125 50 
C 56.484375 50 58.28125 50 58.28125 52 
C 58.28125 54 56.484375 54 54.78125 54 
L 38.984375 54 
C 21.875 54 8.28125 41 8.28125 25 
C 8.28125 9 21.875 -4 38.984375 -4 
L 54.78125 -4 
C 56.484375 -4 58.28125 -4 58.28125 -2 
C 58.28125 0 56.484375 0 54.78125 0 
L 39.171875 0 
C 25.078125 0 13.578125 9.59375 12.375 23 
z
" id="CMSY10-50"/>
       <path d="M 23.5 -25 
L 23.5 -21.515625 
L 14.09375 -21.515625 
L 14.09375 71 
L 23.5 71 
L 23.5 74.484375 
L 10.59375 74.484375 
L 10.59375 -25 
z
" id="CMR17-91"/>
       <path d="M 19.5 -0.484375 
C 19.5 5.359375 17.59375 9.671875 13.5 9.671875 
C 10.296875 9.671875 8.703125 7.078125 8.703125 4.890625 
C 8.703125 2.6875 10.203125 0 13.59375 0 
C 14.90625 0 16 0.40625 16.90625 1.296875 
C 17.09375 1.5 17.203125 1.5 17.296875 1.5 
C 17.5 1.5 17.5 0.078125 17.5 -0.421875 
C 17.5 -3.75 16.90625 -10.296875 11.09375 -16.875 
C 10 -18.078125 10 -18.28125 10 -18.484375 
C 10 -19 10.5 -19.5 11 -19.5 
C 11.796875 -19.5 19.5 -12.046875 19.5 -0.484375 
z
" id="CMMI12-59"/>
       <path d="M 14.296875 74.484375 
L 1.40625 74.484375 
L 1.40625 71 
L 10.796875 71 
L 10.796875 -21.515625 
L 1.40625 -21.515625 
L 1.40625 -25 
L 14.296875 -25 
z
" id="CMR17-93"/>
       <path d="M 38.90625 27.890625 
L 18.90625 47.796875 
C 17.703125 49 17.5 49.1875 16.703125 49.1875 
C 15.703125 49.1875 14.703125 48.296875 14.703125 47.1875 
C 14.703125 46.5 14.90625 46.296875 16 45.1875 
L 36 25.09375 
L 16 5 
C 14.90625 3.890625 14.703125 3.6875 14.703125 3 
C 14.703125 1.890625 15.703125 1 16.703125 1 
C 17.5 1 17.703125 1.1875 18.90625 2.390625 
L 38.796875 22.296875 
L 59.5 1.59375 
C 59.703125 1.5 60.40625 1 61 1 
C 62.203125 1 63 1.890625 63 3 
C 63 3.1875 63 3.59375 62.703125 4.09375 
C 62.59375 4.296875 46.703125 20 41.703125 25.09375 
L 60 43.390625 
C 60.5 44 62 45.296875 62.5 45.890625 
C 62.59375 46.09375 63 46.5 63 47.1875 
C 63 48.296875 62.203125 49.1875 61 49.1875 
C 60.203125 49.1875 59.796875 48.796875 58.703125 47.6875 
z
" id="CMSY10-2"/>
       <path d="M 28.09375 66.515625 
C 28.203125 66.921875 28.40625 67.515625 28.40625 68 
C 28.40625 69 27.40625 69 27.203125 69 
C 27.09375 69 22.203125 68.5625 21.703125 68.4375 
C 20 68.328125 18.5 68.09375 16.703125 68.09375 
C 14.203125 67.890625 13.5 67.796875 13.5 66 
C 13.5 65 14.296875 65 15.703125 65 
C 20.59375 65 20.703125 64.109375 20.703125 63.125 
C 20.703125 62.53125 20.5 61.734375 20.40625 61.4375 
L 5.90625 3.875 
C 5.5 2.375 5.5 2.1875 5.5 1.578125 
C 5.5 -0.59375 7.203125 -1 8.203125 -1 
C 9.90625 -1 11.203125 0.296875 11.703125 1.390625 
L 16.203125 19.453125 
C 16.703125 21.65625 17.296875 23.75 17.796875 25.9375 
C 18.90625 30.140625 18.90625 30.234375 20.796875 33.125 
C 22.703125 36.015625 27.203125 42.015625 34.90625 42.015625 
C 38.90625 42.015625 40.296875 39.015625 40.296875 35.03125 
C 40.296875 29.4375 36.40625 18.5625 34.203125 12.578125 
C 33.296875 10.171875 32.796875 8.875 32.796875 7.078125 
C 32.796875 2.59375 35.90625 -1 40.703125 -1 
C 50 -1 53.5 13.671875 53.5 14.265625 
C 53.5 14.765625 53.09375 15.171875 52.5 15.171875 
C 51.59375 15.171875 51.5 14.875 51 13.171875 
C 48.703125 5.1875 45 1 41 1 
C 40 1 38.40625 1 38.40625 4.203125 
C 38.40625 6.8125 39.59375 10 40 11.09375 
C 41.796875 15.90625 46.296875 27.703125 46.296875 33.515625 
C 46.296875 39.5 42.796875 44 35.203125 44 
C 29.5 44 24.5 41.3125 20.40625 36.125 
z
" id="CMMI12-104"/>
       <path d="M 72.21875 25 
C 72.21875 43.4375 57.21875 58.359375 38.90625 58.359375 
C 20.3125 58.359375 5.5 43.234375 5.5 25 
C 5.5 6.5625 20.5 -8.359375 38.8125 -8.359375 
C 57.421875 -8.359375 72.21875 6.765625 72.21875 25 
z
M 38.90625 -5.859375 
C 21.703125 -5.859375 8 8.0625 8 25 
C 8 42.234375 22 55.859375 38.8125 55.859375 
C 56.015625 55.859375 69.71875 41.9375 69.71875 25 
C 69.71875 7.765625 55.71875 -5.859375 38.90625 -5.859375 
z
M 45.703125 25 
C 45.703125 28.796875 42.59375 31.90625 38.90625 31.90625 
C 34.90625 31.90625 32 28.59375 32 25 
C 32 21.203125 35.09375 18.09375 38.796875 18.09375 
C 42.796875 18.09375 45.703125 21.40625 45.703125 25 
z
" id="CMSY10-12"/>
       <path d="M 17 0.09375 
L 17 7.96875 
L 9 7.96875 
L 9 0 
L 11.5 0 
L 8.90625 -12.5 
L 12.90625 -12.5 
z
" id="CMSS17-44"/>
       <path d="M 20.59375 29.234375 
C 20.796875 29.84375 23.296875 34.828125 27 38.015625 
C 29.59375 40.40625 33 42.015625 36.90625 42.015625 
C 40.90625 42.015625 42.296875 39.015625 42.296875 35.03125 
C 42.296875 34.421875 42.296875 32.4375 41.09375 27.734375 
L 38.59375 17.46875 
C 37.796875 14.46875 35.90625 7.078125 35.703125 5.984375 
C 35.296875 4.484375 34.703125 1.890625 34.703125 1.5 
C 34.703125 0.09375 35.796875 -1 37.296875 -1 
C 40.296875 -1 40.796875 1.296875 41.703125 4.890625 
L 47.703125 28.734375 
C 47.90625 29.53125 53.09375 42.015625 64.09375 42.015625 
C 68.09375 42.015625 69.5 39.015625 69.5 35.03125 
C 69.5 29.4375 65.59375 18.5625 63.40625 12.578125 
C 62.5 10.171875 62 8.875 62 7.078125 
C 62 2.59375 65.09375 -1 69.90625 -1 
C 79.203125 -1 82.703125 13.671875 82.703125 14.265625 
C 82.703125 14.765625 82.296875 15.171875 81.703125 15.171875 
C 80.796875 15.171875 80.703125 14.875 80.203125 13.171875 
C 77.90625 5.1875 74.203125 1 70.203125 1 
C 69.203125 1 67.59375 1 67.59375 4.203125 
C 67.59375 6.8125 68.796875 10 69.203125 11.09375 
C 71 15.90625 75.5 27.703125 75.5 33.515625 
C 75.5 39.5 72 44 64.40625 44 
C 57.703125 44 52.296875 40.21875 48.296875 34.328125 
C 48 39.71875 44.703125 44 37.203125 44 
C 28.296875 44 23.59375 37.734375 21.796875 35.234375 
C 21.5 40.90625 17.40625 44 13 44 
C 10.09375 44 7.796875 42.609375 5.90625 38.8125 
C 4.09375 35.21875 2.703125 29.140625 2.703125 28.734375 
C 2.703125 28.34375 3.09375 27.84375 3.796875 27.84375 
C 4.59375 27.84375 4.703125 27.9375 5.296875 30.234375 
C 6.796875 36.125 8.703125 42.015625 12.703125 42.015625 
C 15 42.015625 15.796875 40.40625 15.796875 37.421875 
C 15.796875 35.21875 14.796875 31.328125 14.09375 28.234375 
L 11.296875 17.46875 
C 10.90625 15.5625 9.796875 11.078125 9.296875 9.28125 
C 8.59375 6.6875 7.5 2 7.5 1.5 
C 7.5 0.09375 8.59375 -1 10.09375 -1 
C 11.296875 -1 12.703125 -0.40625 13.5 1.09375 
C 13.703125 1.59375 14.59375 5.09375 15.09375 7.078125 
L 17.296875 16.0625 
z
" id="CMMI12-109"/>
       <path d="M 15.09375 40 
L 29.09375 40 
L 29.09375 42.578125 
L 15.09375 42.578125 
L 15.09375 61 
L 13.296875 61 
C 13.09375 50.703125 9.59375 41.6875 1.09375 41.6875 
L 1.09375 40 
L 9.796875 40 
L 9.796875 12.046875 
C 9.796875 10.15625 9.796875 -1 21.40625 -1 
C 27.296875 -1 30.703125 4.78125 30.703125 12.140625 
L 30.703125 17.8125 
L 28.90625 17.8125 
L 28.90625 12.234375 
C 28.90625 5.375 26.203125 0.796875 22 0.796875 
C 19.09375 0.796875 15.09375 2.78125 15.09375 11.84375 
z
" id="CMR17-116"/>
       <path d="M 41.5 30.203125 
C 41.5 35.296875 40.5 43.59375 28.703125 43.59375 
C 20.5 43.59375 16.5 37 15.296875 33.703125 
L 15.203125 33.703125 
L 15.203125 68.6875 
L 3.296875 67.59375 
L 3.296875 65 
C 9.203125 65 10.09375 64.40625 10.09375 59.640625 
L 10.09375 6.65625 
C 10.09375 2.875 9.703125 2.390625 3.296875 2.390625 
L 3.296875 -0.203125 
C 5.703125 0 10.09375 0 12.703125 0 
C 15.296875 0 19.796875 0 22.203125 -0.203125 
L 22.203125 2.390625 
C 15.796875 2.390625 15.40625 2.78125 15.40625 6.6875 
L 15.40625 25.90625 
C 15.40625 35.109375 21 42 28 42 
C 35.40625 42 36.203125 35.40625 36.203125 30.59375 
L 36.203125 6.6875 
C 36.203125 2.875 35.796875 2.390625 29.40625 2.390625 
L 29.40625 -0.203125 
C 31.796875 0 36.203125 0 38.796875 0 
C 41.40625 0 45.90625 0 48.296875 -0.203125 
L 48.296875 2.390625 
C 41.90625 2.390625 41.5 2.78125 41.5 6.6875 
z
" id="CMR17-104"/>
       <path d="M 22.09375 33.703125 
C 31 33.703125 34.90625 25.96875 34.90625 17.03125 
C 34.90625 5 28.5 0.390625 22.703125 0.390625 
C 17.40625 0.390625 8.796875 3.03125 6.09375 10.828125 
C 6.59375 10.625 7.09375 10.625 7.59375 10.625 
C 10 10.625 11.796875 12.21875 11.796875 14.8125 
C 11.796875 17.703125 9.59375 19 7.59375 19 
C 5.90625 19 3.296875 18.203125 3.296875 14.46875 
C 3.296875 5.234375 12.296875 -2 22.90625 -2 
C 34 -2 42.5 6.71875 42.5 16.953125 
C 42.5 26.671875 34.5 33.703125 25 34.796875 
C 32.59375 36.375 39.90625 43.0625 39.90625 52.015625 
C 39.90625 59.6875 32 65.296875 23 65.296875 
C 13.90625 65.296875 5.90625 59.828125 5.90625 52.015625 
C 5.90625 48.59375 8.5 48 9.796875 48 
C 11.90625 48 13.703125 49.296875 13.703125 51.890625 
C 13.703125 54.46875 11.90625 55.765625 9.796875 55.765625 
C 9.40625 55.765625 8.90625 55.765625 8.5 55.578125 
C 11.40625 61.859375 19.296875 63 22.796875 63 
C 26.296875 63 32.90625 61.328125 32.90625 51.875 
C 32.90625 49.109375 32.5 44.1875 29.09375 39.84375 
C 26.09375 36 22.703125 36 19.40625 35.6875 
C 18.90625 35.6875 16.59375 35.453125 16.203125 35.453125 
C 15.5 35.359375 15.09375 35.265625 15.09375 34.5 
C 15.09375 33.796875 15.203125 33.703125 17.203125 33.703125 
z
" id="CMR17-51"/>
      </defs>
      <use transform="scale(0.996264)" xlink:href="#CMMI12-77"/>
      <use transform="translate(94.373425 -14.943915)scale(0.697382)" xlink:href="#CMR17-70"/>
      <use transform="translate(130.896878 -14.943915)scale(0.697382)" xlink:href="#CMR17-111"/>
      <use transform="translate(162.88006 -14.943915)scale(0.697382)" xlink:href="#CMR17-70"/>
      <use transform="translate(205.3667 0)scale(0.996264)" xlink:href="#CMR17-40"/>
      <use transform="translate(240.647468 0)scale(0.996264)" xlink:href="#CMMI12-122"/>
      <use transform="translate(318.076622 0)scale(0.996264)" xlink:href="#CMR17-61"/>
      <use transform="translate(417.465419 0)scale(0.996264)" xlink:href="#CMR17-48"/>
      <use transform="translate(463.155896 0)scale(0.996264)" xlink:href="#CMR17-41"/>
      <use transform="translate(526.110673 0)scale(0.996264)" xlink:href="#CMSY10-50"/>
      <use transform="translate(620.2025 0)scale(0.996264)" xlink:href="#CMR17-91"/>
      <use transform="translate(645.073558 0)scale(0.996264)" xlink:href="#CMR17-49"/>
      <use transform="translate(690.764036 0)scale(0.996264)" xlink:href="#CMMI12-59"/>
      <use transform="translate(762.139627 0)scale(0.996264)" xlink:href="#CMR17-50"/>
      <use transform="translate(807.830104 0)scale(0.996264)" xlink:href="#CMR17-93"/>
      <use transform="translate(854.840369 0)scale(0.996264)" xlink:href="#CMSY10-2"/>
      <use transform="translate(954.467044 0)scale(0.996264)" xlink:href="#CMR17-49"/>
      <use transform="translate(1000.157521 0)scale(0.996264)" xlink:href="#CMR17-48"/>
      <use transform="translate(1045.847998 36.153639)scale(0.697382)" xlink:href="#CMR17-49"/>
      <use transform="translate(1077.83118 36.153639)scale(0.697382)" xlink:href="#CMR17-50"/>
      <use transform="translate(1137.986503 0)scale(0.996264)" xlink:href="#CMMI12-104"/>
      <use transform="translate(1194.141127 36.153639)scale(0.697382)" xlink:href="#CMSY10-0"/>
      <use transform="translate(1248.38212 36.153639)scale(0.697382)" xlink:href="#CMR17-49"/>
      <use transform="translate(1280.863434 0)scale(0.996264)" xlink:href="#CMMI12-77"/>
      <use transform="translate(1375.236859 -14.943915)scale(0.697382)" xlink:href="#CMSY10-12"/>
      <use transform="translate(1429.975984 0)scale(0.996264)" xlink:href="#CMSS17-44"/>
      <use transform="translate(1487.229302 0)scale(0.996264)" xlink:href="#CMMI12-109"/>
      <use transform="translate(1572.556526 -14.943915)scale(0.697382)" xlink:href="#CMR17-116"/>
      <use transform="translate(1597.252947 -14.943915)scale(0.697382)" xlink:href="#CMR17-104"/>
      <use transform="translate(1661.051696 0)scale(0.996264)" xlink:href="#CMR17-61"/>
      <use transform="translate(1760.440493 0)scale(0.996264)" xlink:href="#CMR17-48"/>
      <use transform="translate(1806.13097 0)scale(0.996264)" xlink:href="#CMMI12-58"/>
      <use transform="translate(1833.228147 0)scale(0.996264)" xlink:href="#CMR17-51"/>
     </g>
    </g>
    <g id="line2d_55">
     <path d="M 166.890231 30.959898 
L 186.890231 30.959898 
" style="fill:none;stroke:#1f77b4;stroke-dasharray:5.55,2.4;stroke-dashoffset:0;stroke-width:1.5;"/>
    </g>
    <g id="line2d_56"/>
    <g id="text_11">
     <!-- $M_\mathrm{FoF}(z=0) \in [1, \; 2] \times 10^{12} \; h^{-1}M_\odot$, $m_\mathrm{th}=0.2$ -->
     <g transform="translate(194.890231 34.459898)scale(0.1 -0.1)">
      <use transform="scale(0.996264)" xlink:href="#CMMI12-77"/>
      <use transform="translate(94.373425 -14.943915)scale(0.697382)" xlink:href="#CMR17-70"/>
      <use transform="translate(130.896878 -14.943915)scale(0.697382)" xlink:href="#CMR17-111"/>
      <use transform="translate(162.88006 -14.943915)scale(0.697382)" xlink:href="#CMR17-70"/>
      <use transform="translate(205.3667 0)scale(0.996264)" xlink:href="#CMR17-40"/>
      <use transform="translate(240.647468 0)scale(0.996264)" xlink:href="#CMMI12-122"/>
      <use transform="translate(318.076622 0)scale(0.996264)" xlink:href="#CMR17-61"/>
      <use transform="translate(417.465419 0)scale(0.996264)" xlink:href="#CMR17-48"/>
      <use transform="translate(463.155896 0)scale(0.996264)" xlink:href="#CMR17-41"/>
      <use transform="translate(526.110673 0)scale(0.996264)" xlink:href="#CMSY10-50"/>
      <use transform="translate(620.2025 0)scale(0.996264)" xlink:href="#CMR17-91"/>
      <use transform="translate(645.073558 0)scale(0.996264)" xlink:href="#CMR17-49"/>
      <use transform="translate(690.764036 0)scale(0.996264)" xlink:href="#CMMI12-59"/>
      <use transform="translate(762.139627 0)scale(0.996264)" xlink:href="#CMR17-50"/>
      <use transform="translate(807.830104 0)scale(0.996264)" xlink:href="#CMR17-93"/>
      <use transform="translate(854.840369 0)scale(0.996264)" xlink:href="#CMSY10-2"/>
      <use transform="translate(954.467044 0)scale(0.996264)" xlink:href="#CMR17-49"/>
      <use transform="translate(1000.157521 0)scale(0.996264)" xlink:href="#CMR17-48"/>
      <use transform="translate(1045.847998 36.153639)scale(0.697382)" xlink:href="#CMR17-49"/>
      <use transform="translate(1077.83118 36.153639)scale(0.697382)" xlink:href="#CMR17-50"/>
      <use transform="translate(1137.986503 0)scale(0.996264)" xlink:href="#CMMI12-104"/>
      <use transform="translate(1194.141127 36.153639)scale(0.697382)" xlink:href="#CMSY10-0"/>
      <use transform="translate(1248.38212 36.153639)scale(0.697382)" xlink:href="#CMR17-49"/>
      <use transform="translate(1280.863434 0)scale(0.996264)" xlink:href="#CMMI12-77"/>
      <use transform="translate(1375.236859 -14.943915)scale(0.697382)" xlink:href="#CMSY10-12"/>
      <use transform="translate(1429.975984 0)scale(0.996264)" xlink:href="#CMSS17-44"/>
      <use transform="translate(1487.229302 0)scale(0.996264)" xlink:href="#CMMI12-109"/>
      <use transform="translate(1572.556526 -14.943915)scale(0.697382)" xlink:href="#CMR17-116"/>
      <use transform="translate(1597.252947 -14.943915)scale(0.697382)" xlink:href="#CMR17-104"/>
      <use transform="translate(1661.051696 0)scale(0.996264)" xlink:href="#CMR17-61"/>
      <use transform="translate(1760.440493 0)scale(0.996264)" xlink:href="#CMR17-48"/>
      <use transform="translate(1806.13097 0)scale(0.996264)" xlink:href="#CMMI12-58"/>
      <use transform="translate(1833.228147 0)scale(0.996264)" xlink:href="#CMR17-50"/>
     </g>
    </g>
    <g id="line2d_57">
     <path d="M 166.890231 46.560177 
L 186.890231 46.560177 
" style="fill:none;stroke:#d62728;stroke-linecap:square;stroke-width:1.5;"/>
    </g>
    <g id="line2d_58"/>
    <g id="text_12">
     <!-- $M_\mathrm{FoF}(z=0) \in [1, \; 2] \times 10^{13} \; h^{-1}M_\odot$, $m_\mathrm{th}=0.3$ -->
     <g transform="translate(194.890231 50.060177)scale(0.1 -0.1)">
      <use transform="scale(0.996264)" xlink:href="#CMMI12-77"/>
      <use transform="translate(94.373425 -14.943915)scale(0.697382)" xlink:href="#CMR17-70"/>
      <use transform="translate(130.896878 -14.943915)scale(0.697382)" xlink:href="#CMR17-111"/>
      <use transform="translate(162.88006 -14.943915)scale(0.697382)" xlink:href="#CMR17-70"/>
      <use transform="translate(205.3667 0)scale(0.996264)" xlink:href="#CMR17-40"/>
      <use transform="translate(240.647468 0)scale(0.996264)" xlink:href="#CMMI12-122"/>
      <use transform="translate(318.076622 0)scale(0.996264)" xlink:href="#CMR17-61"/>
      <use transform="translate(417.465419 0)scale(0.996264)" xlink:href="#CMR17-48"/>
      <use transform="translate(463.155896 0)scale(0.996264)" xlink:href="#CMR17-41"/>
      <use transform="translate(526.110673 0)scale(0.996264)" xlink:href="#CMSY10-50"/>
      <use transform="translate(620.2025 0)scale(0.996264)" xlink:href="#CMR17-91"/>
      <use transform="translate(645.073558 0)scale(0.996264)" xlink:href="#CMR17-49"/>
      <use transform="translate(690.764036 0)scale(0.996264)" xlink:href="#CMMI12-59"/>
      <use transform="translate(762.139627 0)scale(0.996264)" xlink:href="#CMR17-50"/>
      <use transform="translate(807.830104 0)scale(0.996264)" xlink:href="#CMR17-93"/>
      <use transform="translate(854.840369 0)scale(0.996264)" xlink:href="#CMSY10-2"/>
      <use transform="translate(954.467044 0)scale(0.996264)" xlink:href="#CMR17-49"/>
      <use transform="translate(1000.157521 0)scale(0.996264)" xlink:href="#CMR17-48"/>
      <use transform="translate(1045.847998 36.153639)scale(0.697382)" xlink:href="#CMR17-49"/>
      <use transform="translate(1077.83118 36.153639)scale(0.697382)" xlink:href="#CMR17-51"/>
      <use transform="translate(1137.986503 0)scale(0.996264)" xlink:href="#CMMI12-104"/>
      <use transform="translate(1194.141127 36.153639)scale(0.697382)" xlink:href="#CMSY10-0"/>
      <use transform="translate(1248.38212 36.153639)scale(0.697382)" xlink:href="#CMR17-49"/>
      <use transform="translate(1280.863434 0)scale(0.996264)" xlink:href="#CMMI12-77"/>
      <use transform="translate(1375.236859 -14.943915)scale(0.697382)" xlink:href="#CMSY10-12"/>
      <use transform="translate(1429.975984 0)scale(0.996264)" xlink:href="#CMSS17-44"/>
      <use transform="translate(1487.229302 0)scale(0.996264)" xlink:href="#CMMI12-109"/>
      <use transform="translate(1572.556526 -14.943915)scale(0.697382)" xlink:href="#CMR17-116"/>
      <use transform="translate(1597.252947 -14.943915)scale(0.697382)" xlink:href="#CMR17-104"/>
      <use transform="translate(1661.051696 0)scale(0.996264)" xlink:href="#CMR17-61"/>
      <use transform="translate(1760.440493 0)scale(0.996264)" xlink:href="#CMR17-48"/>
      <use transform="translate(1806.13097 0)scale(0.996264)" xlink:href="#CMMI12-58"/>
      <use transform="translate(1833.228147 0)scale(0.996264)" xlink:href="#CMR17-51"/>
     </g>
    </g>
    <g id="line2d_59">
     <path d="M 166.890231 62.160455 
L 186.890231 62.160455 
" style="fill:none;stroke:#d62728;stroke-dasharray:5.55,2.4;stroke-dashoffset:0;stroke-width:1.5;"/>
    </g>
    <g id="line2d_60"/>
    <g id="text_13">
     <!-- $M_\mathrm{FoF}(z=0) \in [1, \; 2] \times 10^{13} \; h^{-1}M_\odot$, $m_\mathrm{th}=0.2$ -->
     <g transform="translate(194.890231 65.660455)scale(0.1 -0.1)">
      <use transform="scale(0.996264)" xlink:href="#CMMI12-77"/>
      <use transform="translate(94.373425 -14.943915)scale(0.697382)" xlink:href="#CMR17-70"/>
      <use transform="translate(130.896878 -14.943915)scale(0.697382)" xlink:href="#CMR17-111"/>
      <use transform="translate(162.88006 -14.943915)scale(0.697382)" xlink:href="#CMR17-70"/>
      <use transform="translate(205.3667 0)scale(0.996264)" xlink:href="#CMR17-40"/>
      <use transform="translate(240.647468 0)scale(0.996264)" xlink:href="#CMMI12-122"/>
      <use transform="translate(318.076622 0)scale(0.996264)" xlink:href="#CMR17-61"/>
      <use transform="translate(417.465419 0)scale(0.996264)" xlink:href="#CMR17-48"/>
      <use transform="translate(463.155896 0)scale(0.996264)" xlink:href="#CMR17-41"/>
      <use transform="translate(526.110673 0)scale(0.996264)" xlink:href="#CMSY10-50"/>
      <use transform="translate(620.2025 0)scale(0.996264)" xlink:href="#CMR17-91"/>
      <use transform="translate(645.073558 0)scale(0.996264)" xlink:href="#CMR17-49"/>
      <use transform="translate(690.764036 0)scale(0.996264)" xlink:href="#CMMI12-59"/>
      <use transform="translate(762.139627 0)scale(0.996264)" xlink:href="#CMR17-50"/>
      <use transform="translate(807.830104 0)scale(0.996264)" xlink:href="#CMR17-93"/>
      <use transform="translate(854.840369 0)scale(0.996264)" xlink:href="#CMSY10-2"/>
      <use transform="translate(954.467044 0)scale(0.996264)" xlink:href="#CMR17-49"/>
      <use transform="translate(1000.157521 0)scale(0.996264)" xlink:href="#CMR17-48"/>
      <use transform="translate(1045.847998 36.153639)scale(0.697382)" xlink:href="#CMR17-49"/>
      <use transform="translate(1077.83118 36.153639)scale(0.697382)" xlink:href="#CMR17-51"/>
      <use transform="translate(1137.986503 0)scale(0.996264)" xlink:href="#CMMI12-104"/>
      <use transform="translate(1194.141127 36.153639)scale(0.697382)" xlink:href="#CMSY10-0"/>
      <use transform="translate(1248.38212 36.153639)scale(0.697382)" xlink:href="#CMR17-49"/>
      <use transform="translate(1280.863434 0)scale(0.996264)" xlink:href="#CMMI12-77"/>
      <use transform="translate(1375.236859 -14.943915)scale(0.697382)" xlink:href="#CMSY10-12"/>
      <use transform="translate(1429.975984 0)scale(0.996264)" xlink:href="#CMSS17-44"/>
      <use transform="translate(1487.229302 0)scale(0.996264)" xlink:href="#CMMI12-109"/>
      <use transform="translate(1572.556526 -14.943915)scale(0.697382)" xlink:href="#CMR17-116"/>
      <use transform="translate(1597.252947 -14.943915)scale(0.697382)" xlink:href="#CMR17-104"/>
      <use transform="translate(1661.051696 0)scale(0.996264)" xlink:href="#CMR17-61"/>
      <use transform="translate(1760.440493 0)scale(0.996264)" xlink:href="#CMR17-48"/>
      <use transform="translate(1806.13097 0)scale(0.996264)" xlink:href="#CMMI12-58"/>
      <use transform="translate(1833.228147 0)scale(0.996264)" xlink:href="#CMR17-50"/>
     </g>
    </g>
    <g id="line2d_61">
     <path d="M 166.890231 77.760734 
L 186.890231 77.760734 
" style="fill:none;stroke:#ff7f0e;stroke-linecap:square;stroke-width:1.5;"/>
    </g>
    <g id="line2d_62"/>
    <g id="text_14">
     <!-- $M_\mathrm{FoF}(z=0) \in [1, \; 2] \times 10^{14} \; h^{-1}M_\odot$, $m_\mathrm{th}=0.3$ -->
     <g transform="translate(194.890231 81.260734)scale(0.1 -0.1)">
      <use transform="scale(0.996264)" xlink:href="#CMMI12-77"/>
      <use transform="translate(94.373425 -14.943915)scale(0.697382)" xlink:href="#CMR17-70"/>
      <use transform="translate(130.896878 -14.943915)scale(0.697382)" xlink:href="#CMR17-111"/>
      <use transform="translate(162.88006 -14.943915)scale(0.697382)" xlink:href="#CMR17-70"/>
      <use transform="translate(205.3667 0)scale(0.996264)" xlink:href="#CMR17-40"/>
      <use transform="translate(240.647468 0)scale(0.996264)" xlink:href="#CMMI12-122"/>
      <use transform="translate(318.076622 0)scale(0.996264)" xlink:href="#CMR17-61"/>
      <use transform="translate(417.465419 0)scale(0.996264)" xlink:href="#CMR17-48"/>
      <use transform="translate(463.155896 0)scale(0.996264)" xlink:href="#CMR17-41"/>
      <use transform="translate(526.110673 0)scale(0.996264)" xlink:href="#CMSY10-50"/>
      <use transform="translate(620.2025 0)scale(0.996264)" xlink:href="#CMR17-91"/>
      <use transform="translate(645.073558 0)scale(0.996264)" xlink:href="#CMR17-49"/>
      <use transform="translate(690.764036 0)scale(0.996264)" xlink:href="#CMMI12-59"/>
      <use transform="translate(762.139627 0)scale(0.996264)" xlink:href="#CMR17-50"/>
      <use transform="translate(807.830104 0)scale(0.996264)" xlink:href="#CMR17-93"/>
      <use transform="translate(854.840369 0)scale(0.996264)" xlink:href="#CMSY10-2"/>
      <use transform="translate(954.467044 0)scale(0.996264)" xlink:href="#CMR17-49"/>
      <use transform="translate(1000.157521 0)scale(0.996264)" xlink:href="#CMR17-48"/>
      <use transform="translate(1045.847998 36.153639)scale(0.697382)" xlink:href="#CMR17-49"/>
      <use transform="translate(1077.83118 36.153639)scale(0.697382)" xlink:href="#CMR17-52"/>
      <use transform="translate(1137.986503 0)scale(0.996264)" xlink:href="#CMMI12-104"/>
      <use transform="translate(1194.141127 36.153639)scale(0.697382)" xlink:href="#CMSY10-0"/>
      <use transform="translate(1248.38212 36.153639)scale(0.697382)" xlink:href="#CMR17-49"/>
      <use transform="translate(1280.863434 0)scale(0.996264)" xlink:href="#CMMI12-77"/>
      <use transform="translate(1375.236859 -14.943915)scale(0.697382)" xlink:href="#CMSY10-12"/>
      <use transform="translate(1429.975984 0)scale(0.996264)" xlink:href="#CMSS17-44"/>
      <use transform="translate(1487.229302 0)scale(0.996264)" xlink:href="#CMMI12-109"/>
      <use transform="translate(1572.556526 -14.943915)scale(0.697382)" xlink:href="#CMR17-116"/>
      <use transform="translate(1597.252947 -14.943915)scale(0.697382)" xlink:href="#CMR17-104"/>
      <use transform="translate(1661.051696 0)scale(0.996264)" xlink:href="#CMR17-61"/>
      <use transform="translate(1760.440493 0)scale(0.996264)" xlink:href="#CMR17-48"/>
      <use transform="translate(1806.13097 0)scale(0.996264)" xlink:href="#CMMI12-58"/>
      <use transform="translate(1833.228147 0)scale(0.996264)" xlink:href="#CMR17-51"/>
     </g>
    </g>
    <g id="line2d_63">
     <path d="M 166.890231 93.361013 
L 186.890231 93.361013 
" style="fill:none;stroke:#ff7f0e;stroke-dasharray:5.55,2.4;stroke-dashoffset:0;stroke-width:1.5;"/>
    </g>
    <g id="line2d_64"/>
    <g id="text_15">
     <!-- $M_\mathrm{FoF}(z=0) \in [1, \; 2] \times 10^{14} \; h^{-1}M_\odot$, $m_\mathrm{th}=0.2$ -->
     <g transform="translate(194.890231 96.861013)scale(0.1 -0.1)">
      <use transform="scale(0.996264)" xlink:href="#CMMI12-77"/>
      <use transform="translate(94.373425 -14.943915)scale(0.697382)" xlink:href="#CMR17-70"/>
      <use transform="translate(130.896878 -14.943915)scale(0.697382)" xlink:href="#CMR17-111"/>
      <use transform="translate(162.88006 -14.943915)scale(0.697382)" xlink:href="#CMR17-70"/>
      <use transform="translate(205.3667 0)scale(0.996264)" xlink:href="#CMR17-40"/>
      <use transform="translate(240.647468 0)scale(0.996264)" xlink:href="#CMMI12-122"/>
      <use transform="translate(318.076622 0)scale(0.996264)" xlink:href="#CMR17-61"/>
      <use transform="translate(417.465419 0)scale(0.996264)" xlink:href="#CMR17-48"/>
      <use transform="translate(463.155896 0)scale(0.996264)" xlink:href="#CMR17-41"/>
      <use transform="translate(526.110673 0)scale(0.996264)" xlink:href="#CMSY10-50"/>
      <use transform="translate(620.2025 0)scale(0.996264)" xlink:href="#CMR17-91"/>
      <use transform="translate(645.073558 0)scale(0.996264)" xlink:href="#CMR17-49"/>
      <use transform="translate(690.764036 0)scale(0.996264)" xlink:href="#CMMI12-59"/>
      <use transform="translate(762.139627 0)scale(0.996264)" xlink:href="#CMR17-50"/>
      <use transform="translate(807.830104 0)scale(0.996264)" xlink:href="#CMR17-93"/>
      <use transform="translate(854.840369 0)scale(0.996264)" xlink:href="#CMSY10-2"/>
      <use transform="translate(954.467044 0)scale(0.996264)" xlink:href="#CMR17-49"/>
      <use transform="translate(1000.157521 0)scale(0.996264)" xlink:href="#CMR17-48"/>
      <use transform="translate(1045.847998 36.153639)scale(0.697382)" xlink:href="#CMR17-49"/>
      <use transform="translate(1077.83118 36.153639)scale(0.697382)" xlink:href="#CMR17-52"/>
      <use transform="translate(1137.986503 0)scale(0.996264)" xlink:href="#CMMI12-104"/>
      <use transform="translate(1194.141127 36.153639)scale(0.697382)" xlink:href="#CMSY10-0"/>
      <use transform="translate(1248.38212 36.153639)scale(0.697382)" xlink:href="#CMR17-49"/>
      <use transform="translate(1280.863434 0)scale(0.996264)" xlink:href="#CMMI12-77"/>
      <use transform="translate(1375.236859 -14.943915)scale(0.697382)" xlink:href="#CMSY10-12"/>
      <use transform="translate(1429.975984 0)scale(0.996264)" xlink:href="#CMSS17-44"/>
      <use transform="translate(1487.229302 0)scale(0.996264)" xlink:href="#CMMI12-109"/>
      <use transform="translate(1572.556526 -14.943915)scale(0.697382)" xlink:href="#CMR17-116"/>
      <use transform="translate(1597.252947 -14.943915)scale(0.697382)" xlink:href="#CMR17-104"/>
      <use transform="translate(1661.051696 0)scale(0.996264)" xlink:href="#CMR17-61"/>
      <use transform="translate(1760.440493 0)scale(0.996264)" xlink:href="#CMR17-48"/>
      <use transform="translate(1806.13097 0)scale(0.996264)" xlink:href="#CMMI12-58"/>
      <use transform="translate(1833.228147 0)scale(0.996264)" xlink:href="#CMR17-50"/>
     </g>
    </g>
   </g>
  </g>
 </g>
 <defs>
  <clipPath id="p6b1850aa86">
   <rect height="237.688647" width="369.276787" x="39.373213" y="1.75"/>
  </clipPath>
 </defs>
</svg>
