<?xml version="1.0" encoding="utf-8" standalone="no"?>
<!DOCTYPE svg PUBLIC "-//W3C//DTD SVG 1.1//EN"
  "http://www.w3.org/Graphics/SVG/1.1/DTD/svg11.dtd">
<!-- Created with matplotlib (https://matplotlib.org/) -->
<svg height="266.4pt" version="1.1" viewBox="0 0 478.342151 266.4" width="478.342151pt" xmlns="http://www.w3.org/2000/svg" xmlns:xlink="http://www.w3.org/1999/xlink">
 <metadata>
  <rdf:RDF xmlns:cc="http://creativecommons.org/ns#" xmlns:dc="http://purl.org/dc/elements/1.1/" xmlns:rdf="http://www.w3.org/1999/02/22-rdf-syntax-ns#">
   <cc:Work>
    <dc:type rdf:resource="http://purl.org/dc/dcmitype/StillImage"/>
    <dc:date>2020-12-27T18:10:21.012963</dc:date>
    <dc:format>image/svg+xml</dc:format>
    <dc:creator>
     <cc:Agent>
      <dc:title>Matplotlib v3.3.3, https://matplotlib.org/</dc:title>
     </cc:Agent>
    </dc:creator>
   </cc:Work>
  </rdf:RDF>
 </metadata>
 <defs>
  <style type="text/css">*{stroke-linecap:butt;stroke-linejoin:round;}</style>
 </defs>
 <g id="figure_1">
  <g id="patch_1">
   <path d="M 0 266.4 
L 478.342151 266.4 
L 478.342151 0 
L 0 0 
z
" style="fill:none;"/>
  </g>
  <g id="axes_1">
   <g id="patch_2">
    <path d="M 278.77553 133.2 
C 278.77553 115.373109 272.384804 98.123644 260.769788 84.599981 
C 249.154773 71.076319 233.067906 62.15454 215.445366 59.463052 
C 197.822825 56.771563 179.806225 60.484723 164.68396 69.924804 
C 149.561695 79.364885 138.313406 93.920345 132.992134 110.934519 
L 163.502732 120.476868 
C 166.543459 110.754483 172.971053 102.437077 181.612347 97.042745 
C 190.253642 91.648413 200.548842 89.526608 210.618865 91.064601 
C 220.688888 92.602595 229.881383 97.700754 236.518535 105.428561 
C 243.155686 113.156368 246.80753 123.013205 246.80753 133.2 
L 278.77553 133.2 
z
" style="fill:#440154;stroke:#ffffff;stroke-linejoin:miter;"/>
   </g>
   <g id="patch_3">
    <path d="M 132.992134 110.934519 
C 130.991041 117.332792 129.86161 123.971731 129.634388 130.671779 
C 129.407166 137.371827 130.08422 144.07203 131.647239 150.591174 
L 162.734221 143.137814 
C 161.841067 139.412589 161.454179 135.583901 161.58402 131.755302 
C 161.713861 127.926703 162.359251 124.133024 163.502732 120.476868 
L 132.992134 110.934519 
z
" style="fill:#472d7b;stroke:#ffffff;stroke-linejoin:miter;"/>
   </g>
   <g id="patch_4">
    <path d="M 131.647239 150.591174 
C 131.964922 151.91619 132.318852 153.232253 132.70863 154.53788 
C 133.098407 155.843507 133.523887 157.138209 133.984588 158.420529 
L 164.069849 147.611731 
C 163.806591 146.878977 163.56346 146.139147 163.34073 145.393074 
C 163.118 144.647001 162.915754 143.894966 162.734221 143.137814 
L 131.647239 150.591174 
z
" style="fill:#3b528b;stroke:#ffffff;stroke-linejoin:miter;"/>
   </g>
   <g id="patch_5">
    <path d="M 133.984588 158.420529 
C 135.034884 161.343927 136.26677 164.198863 137.673048 166.968657 
C 139.079325 169.738451 140.657251 172.417697 142.397604 174.990739 
L 168.877287 157.080422 
C 167.882799 155.610112 166.981127 154.079115 166.17754 152.496376 
C 165.373953 150.913636 164.670018 149.282244 164.069849 147.611731 
L 133.984588 158.420529 
z
" style="fill:#2c728e;stroke:#ffffff;stroke-linejoin:miter;"/>
   </g>
   <g id="patch_6">
    <path d="M 142.397604 174.990739 
C 142.76567 175.53491 143.140909 176.074194 143.523223 176.608451 
C 143.905537 177.142708 144.294892 177.671891 144.691187 178.195862 
L 170.187905 158.911921 
C 169.961451 158.612509 169.738962 158.310119 169.520497 158.004829 
C 169.302032 157.699539 169.08761 157.391377 168.877287 157.080422 
L 142.397604 174.990739 
z
" style="fill:#21918c;stroke:#ffffff;stroke-linejoin:miter;"/>
   </g>
   <g id="patch_7">
    <path d="M 144.691187 178.195862 
C 144.90502 178.478587 145.120866 178.759784 145.338708 179.039431 
C 145.556551 179.319079 145.776384 179.59717 145.998191 179.873684 
L 170.934765 159.870676 
C 170.808018 159.712669 170.682399 159.553759 170.557918 159.393961 
C 170.433436 159.234162 170.310096 159.073478 170.187905 158.911921 
L 144.691187 178.195862 
z
" style="fill:#28ae80;stroke:#ffffff;stroke-linejoin:miter;"/>
   </g>
   <g id="patch_8">
    <path d="M 145.998191 179.873684 
C 148.251732 182.683041 150.705783 185.325502 153.34108 187.780324 
C 155.976377 190.235145 158.786006 192.495887 161.747911 194.544802 
L 179.934605 168.254173 
C 178.242087 167.083364 176.636585 165.791512 175.130701 164.388756 
C 173.624817 162.986001 172.222502 161.476024 170.934765 159.870676 
L 145.998191 179.873684 
z
" style="fill:#5ec962;stroke:#ffffff;stroke-linejoin:miter;"/>
   </g>
   <g id="patch_9">
    <path d="M 161.747911 194.544802 
C 172.117142 201.717777 184.137741 206.145907 196.682254 207.413862 
C 209.226768 208.681817 221.890341 206.748677 233.485215 201.795756 
C 245.080089 196.842835 255.232057 189.029982 262.988932 179.08999 
C 270.745806 169.149999 275.857245 157.403667 277.843831 144.952723 
L 246.275131 139.915842 
C 245.139939 147.030667 242.219116 153.742856 237.786617 159.422852 
C 233.354117 165.102847 227.552992 169.567334 220.92735 172.397575 
C 214.301708 175.227815 207.06538 176.332467 199.897087 175.607921 
C 192.728793 174.883375 185.85988 172.353016 179.934605 168.254173 
L 161.747911 194.544802 
z
" style="fill:#addc30;stroke:#ffffff;stroke-linejoin:miter;"/>
   </g>
   <g id="patch_10">
    <path d="M 277.843831 144.952723 
C 278.153789 143.010056 278.386775 141.055887 278.54224 139.0948 
C 278.697706 137.133713 278.77553 135.167244 278.77553 133.200005 
L 246.80753 133.200003 
C 246.80753 134.324139 246.763059 135.447836 246.674222 136.568457 
C 246.585384 137.689078 246.45225 138.805746 246.275131 139.915842 
L 277.843831 144.952723 
z
" style="fill:#fde725;stroke:#ffffff;stroke-linejoin:miter;"/>
   </g>
   <g id="patch_11">
    <path d="M 310.74353 133.2 
C 310.74353 110.931786 303.763331 89.213978 290.78935 71.115658 
C 277.81537 53.017339 259.488965 39.433184 238.399959 32.282858 
C 217.310953 25.132532 194.501862 24.769505 173.195988 31.245079 
C 151.890114 37.720654 133.140694 50.714714 119.597329 68.390987 
L 144.973189 87.833691 
C 154.453544 75.4603 167.578139 66.364457 182.492251 61.831555 
C 197.406363 57.298653 213.372726 57.552772 228.13503 62.558 
C 242.897334 67.563229 255.725818 77.072137 264.807604 89.740961 
C 273.889391 102.409784 278.77553 117.612251 278.77553 133.2 
L 310.74353 133.2 
z
" style="fill:#440154;stroke:#ffffff;stroke-linejoin:miter;"/>
   </g>
   <g id="patch_12">
    <path d="M 119.597329 68.390987 
C 116.41222 72.548067 113.537896 76.9343 110.997733 81.514017 
C 108.45757 86.093733 106.258471 90.854484 104.418322 95.757552 
L 134.347884 106.990287 
C 135.635989 103.558139 137.175358 100.225613 138.953472 97.019812 
C 140.731586 93.81401 142.743613 90.743647 144.973189 87.833691 
L 119.597329 68.390987 
z
" style="fill:#440154;stroke:#ffffff;stroke-linejoin:miter;"/>
   </g>
   <g id="patch_13">
    <path d="M 104.418322 95.757552 
C 104.171523 96.415148 103.931231 97.075168 103.697482 97.737515 
C 103.463734 98.399862 103.23654 99.064504 103.015933 99.731343 
L 133.366212 109.77194 
C 133.520637 109.305152 133.679673 108.839903 133.843297 108.37626 
C 134.006921 107.912617 134.175125 107.450604 134.347884 106.990287 
L 104.418322 95.757552 
z
" style="fill:#440154;stroke:#ffffff;stroke-linejoin:miter;"/>
   </g>
   <g id="patch_14">
    <path d="M 103.015933 99.731343 
C 102.924602 100.007415 102.834401 100.283859 102.745333 100.56067 
C 102.656265 100.83748 102.568331 101.114654 102.481532 101.392184 
L 132.992131 110.934529 
C 133.05289 110.740258 133.114445 110.546236 133.176792 110.352469 
C 133.23914 110.158702 133.302281 109.96519 133.366212 109.77194 
L 103.015933 99.731343 
z
" style="fill:none;stroke:#ffffff;stroke-linejoin:miter;"/>
   </g>
   <g id="patch_15">
    <path d="M 102.481532 101.392184 
C 99.622828 110.532574 98.009357 120.016774 97.684755 129.588271 
C 97.360154 139.159768 98.327375 148.731487 100.560261 158.04455 
L 131.647241 150.591185 
C 130.084222 144.072041 129.407167 137.371837 129.634388 130.671789 
C 129.861609 123.971742 130.991039 117.332802 132.992131 110.934529 
L 102.481532 101.392184 
z
" style="fill:none;stroke:#ffffff;stroke-linejoin:miter;"/>
   </g>
   <g id="patch_16">
    <path d="M 100.560261 158.04455 
C 101.014094 159.937429 101.519709 161.817518 102.076534 163.6827 
C 102.63336 165.547882 103.241187 167.397457 103.899333 169.229341 
L 133.984592 158.420539 
C 133.52389 157.13822 133.098411 155.843517 132.708633 154.53789 
C 132.318855 153.232263 131.964925 151.916201 131.647241 150.591185 
L 100.560261 158.04455 
z
" style="fill:none;stroke:#ffffff;stroke-linejoin:miter;"/>
   </g>
   <g id="patch_17">
    <path d="M 103.899333 169.229341 
C 105.399756 173.405624 107.159593 177.484104 109.168562 181.440952 
C 111.177531 185.3978 113.431711 189.225294 115.91793 192.901068 
L 142.39761 174.990748 
C 140.657257 172.417706 139.079331 169.73846 137.673052 166.968667 
C 136.266774 164.198873 135.034888 161.343937 133.984592 158.420539 
L 103.899333 169.229341 
z
" style="fill:none;stroke:#ffffff;stroke-linejoin:miter;"/>
   </g>
   <g id="patch_18">
    <path d="M 115.91793 192.901068 
C 116.443739 193.678455 116.979795 194.448861 117.525958 195.212086 
C 118.07212 195.97531 118.628342 196.731286 119.194478 197.479815 
L 144.691193 178.19587 
C 144.294898 177.6719 143.905543 177.142717 143.523229 176.60846 
C 143.140915 176.074203 142.765676 175.534918 142.39761 174.990748 
L 115.91793 192.901068 
z
" style="fill:none;stroke:#ffffff;stroke-linejoin:miter;"/>
   </g>
   <g id="patch_19">
    <path d="M 119.194478 197.479815 
C 119.499954 197.883707 119.808305 198.285417 120.119509 198.684914 
C 120.430712 199.08441 120.744759 199.481683 121.061626 199.876703 
L 145.998197 179.873692 
C 145.77639 179.597178 145.556557 179.319087 145.338715 179.03944 
C 145.120873 178.759792 144.905027 178.478595 144.691193 178.19587 
L 119.194478 197.479815 
z
" style="fill:none;stroke:#ffffff;stroke-linejoin:miter;"/>
   </g>
   <g id="patch_20">
    <path d="M 121.061626 199.876703 
C 123.249408 202.604081 125.5701 205.22213 128.015279 207.721347 
C 130.460458 210.220564 133.027162 212.597921 135.706073 214.844789 
L 156.24931 190.351352 
C 154.374072 188.778545 152.57738 187.114395 150.865754 185.364943 
C 149.154129 183.615491 147.529645 181.782857 145.998197 179.873692 
L 121.061626 199.876703 
z
" style="fill:#5ec962;stroke:#ffffff;stroke-linejoin:miter;"/>
   </g>
   <g id="patch_21">
    <path d="M 135.706073 214.844789 
C 136.968086 215.90327 138.254472 216.932347 139.564192 217.931192 
C 140.873913 218.930036 142.206617 219.898379 143.56123 220.83544 
L 161.74792 194.544808 
C 160.799691 193.888865 159.866798 193.211025 158.949994 192.511834 
C 158.033189 191.812643 157.13272 191.092289 156.24931 190.351352 
L 135.706073 214.844789 
z
" style="fill:none;stroke:#ffffff;stroke-linejoin:miter;"/>
   </g>
   <g id="patch_22">
    <path d="M 143.56123 220.83544 
C 156.047469 229.472865 170.2367 235.34283 185.175806 238.051037 
C 200.114912 240.759245 215.461735 240.243669 230.185398 236.53894 
L 222.384837 205.537258 
C 212.078273 208.130568 201.335497 208.491472 190.878123 206.595726 
C 180.420749 204.699981 170.488287 200.591005 161.74792 194.544808 
L 143.56123 220.83544 
z
" style="fill:#addc30;stroke:#ffffff;stroke-linejoin:miter;"/>
   </g>
   <g id="patch_23">
    <path d="M 230.185398 236.53894 
C 248.9584 231.815327 266.094107 222.064234 279.743932 208.337602 
C 293.393756 194.61097 303.048544 177.420818 307.666744 158.621606 
L 276.62178 150.995124 
C 273.38904 164.154572 266.630688 176.187679 257.075811 185.796322 
C 247.520934 195.404964 235.525939 202.230729 222.384837 205.537258 
L 230.185398 236.53894 
z
" style="fill:#addc30;stroke:#ffffff;stroke-linejoin:miter;"/>
   </g>
   <g id="patch_24">
    <path d="M 307.666744 158.621606 
C 308.017023 157.195732 308.337794 155.76277 308.628853 154.32364 
C 308.919911 152.884509 309.181194 151.439516 309.412534 149.989587 
L 277.843833 144.952711 
C 277.681895 145.967661 277.498997 146.979156 277.295256 147.986548 
C 277.091515 148.993939 276.866975 149.997012 276.62178 150.995124 
L 307.666744 158.621606 
z
" style="fill:#addc30;stroke:#ffffff;stroke-linejoin:miter;"/>
   </g>
   <g id="patch_25">
    <path d="M 309.412534 149.989587 
C 309.412534 149.989587 309.412534 149.989587 309.412534 149.989587 
L 277.843833 144.952711 
C 277.843833 144.952711 277.843833 144.952711 277.843833 144.952711 
L 309.412534 149.989587 
z
" style="fill:none;stroke:#ffffff;stroke-linejoin:miter;"/>
   </g>
   <g id="patch_26">
    <path d="M 309.412534 149.989587 
C 309.855332 147.214348 310.188167 144.422678 310.41026 141.621126 
C 310.632353 138.819573 310.74353 136.010331 310.74353 133.199989 
L 278.77553 133.199993 
C 278.77553 135.167232 278.697706 137.133701 278.542241 139.094788 
C 278.386776 141.055875 278.153791 143.010044 277.843833 144.952711 
L 309.412534 149.989587 
z
" style="fill:none;stroke:#ffffff;stroke-linejoin:miter;"/>
   </g>
   <g id="matplotlib.axis_1"/>
   <g id="matplotlib.axis_2"/>
   <g id="text_1">
    <!-- read genericio -->
    <g transform="translate(241.821602 24.681804)scale(0.1 -0.1)">
     <defs>
      <path d="M 14.90625 21.296875 
C 14.90625 30.703125 21.796875 37 30.59375 37 
L 30.59375 43.578125 
C 24.203125 43.578125 18.203125 40.390625 14.59375 35.203125 
L 14.59375 43.09375 
L 7.5 43.09375 
L 7.5 0 
L 14.90625 0 
z
" id="CMSS17-114"/>
      <path d="M 39.09375 21.515625 
C 39.09375 24.84375 38.90625 31.296875 35.703125 36.640625 
C 32.203125 42.390625 26.5 44 22.203125 44 
C 11.796875 44 3 34.1875 3 21.484375 
C 3 9.09375 12.09375 -1 23.59375 -1 
C 28.09375 -1 33.59375 0.296875 38.59375 3.875 
C 38.59375 4.28125 38.40625 6.46875 38.296875 6.5625 
C 38.296875 6.765625 38 9.84375 38 10.25 
C 33.203125 6.359375 27.703125 5.078125 23.703125 5.078125 
C 17.296875 5.078125 10.40625 10.421875 10.09375 21.515625 
z
M 10.90625 27 
C 12.203125 32.5625 16.59375 37.828125 22.203125 37.828125 
C 23.703125 37.828125 30.703125 37.828125 32.5 27 
z
" id="CMSS17-101"/>
      <path d="M 37.59375 27.984375 
C 37.59375 37.375 30.90625 43.875 21.90625 43.875 
C 17.5 43.875 12.703125 43.078125 7.203125 39.890625 
L 7.796875 33.359375 
C 10.296875 35.125 14.59375 38 21.796875 38 
C 26.90625 38 30 34.0625 30 27.84375 
L 30 24 
C 14 24 4 19.34375 4 11.34375 
C 4 7.203125 6.5 -1 14.796875 -1 
C 16.296875 -1 24.40625 -1 30.203125 3.390625 
L 30.203125 -0.296875 
L 37.59375 -0.296875 
z
M 30 12.75 
C 30 10.953125 30 8.5625 27 6.78125 
C 24.40625 5.078125 21.09375 5.078125 19.703125 5.078125 
C 14.703125 5.078125 11.296875 7.984375 11.296875 11.625 
C 11.296875 18.921875 26.90625 18.921875 30 18.921875 
z
" id="CMSS17-97"/>
      <path d="M 40.796875 69 
L 33.40625 69 
L 33.40625 38.09375 
C 30.296875 40.671875 25.203125 43.0625 19.59375 43.0625 
C 10.5 43.0625 3.296875 33.296875 3.296875 21.046875 
C 3.296875 8.78125 10.40625 -1 19.296875 -1 
C 26.203125 -1 30.796875 2.6875 33.203125 4.78125 
L 33.203125 -0.203125 
L 40.796875 -0.203125 
z
M 33.203125 13.0625 
C 33.203125 11.671875 33.203125 10.203125 30.09375 7.53125 
C 28.09375 5.859375 25.703125 5.078125 23.40625 5.078125 
C 18 5.078125 10.90625 9 10.90625 20.9375 
C 10.90625 33.34375 18.90625 37 24.40625 37 
C 28.09375 37 31.09375 35.21875 33.203125 32.265625 
z
" id="CMSS17-100"/>
      <path d="M 44.5 43.875 
C 38.796875 43.875 33.90625 42.78125 29.90625 40.890625 
C 26.59375 43.390625 23.203125 43.875 20.90625 43.875 
C 12.203125 43.875 5.59375 36.703125 5.59375 28.34375 
C 5.59375 22.9375 8.59375 18.859375 8.796875 18.671875 
C 7 16.171875 6 13.484375 6 10.5 
C 6 7 7.40625 4.515625 8.5 3.125 
C 3.296875 -0.046875 2.59375 -4.90625 2.59375 -6.796875 
C 2.59375 -14.03125 11.703125 -20 23.40625 -20 
C 35.203125 -20 44.296875 -14.03125 44.296875 -6.6875 
C 44.296875 7 29 7 24.796875 7 
L 16.703125 7 
C 15.203125 7 11.203125 7 11.203125 12.359375 
C 11.203125 14.390625 12.09375 15.6875 12.203125 15.78125 
C 13.703125 14.6875 16.796875 13 20.90625 13 
C 29.203125 13 36.09375 19.96875 36.09375 28.546875 
C 36.09375 33.3125 33.90625 36.796875 33 38 
L 33.296875 38 
C 33.59375 38 37.796875 38 39.296875 38 
C 42.5 38 42.796875 37.953125 45.59375 37.796875 
z
M 20.90625 18.46875 
C 17.5 18.46875 12.703125 20.546875 12.703125 28.484375 
C 12.703125 37.109375 18.203125 38.5 20.796875 38.5 
C 24.203125 38.5 29 36.421875 29 28.484375 
C 29 19.859375 23.5 18.46875 20.90625 18.46875 
z
M 24.703125 -0.15625 
C 27.09375 -0.15625 37.203125 -0.15625 37.203125 -6.90625 
C 37.203125 -11.15625 31 -14.515625 23.5 -14.515625 
C 15.90625 -14.515625 9.703125 -11.25 9.703125 -6.796875 
C 9.703125 -6.296875 9.703125 -0.15625 16.59375 -0.15625 
z
" id="CMSS17-103"/>
      <path d="M 40.90625 29.328125 
C 40.90625 35.671875 39.40625 44 28.09375 44 
C 21.703125 44 17.5 40.71875 14.703125 37.328125 
L 14.703125 43.09375 
L 7.40625 43.09375 
L 7.40625 0 
L 15 0 
L 15 24.359375 
C 15 30.6875 17.40625 37.9375 24.203125 37.9375 
C 33 37.9375 33.296875 32 33.296875 28.578125 
L 33.296875 0 
L 40.90625 0 
z
" id="CMSS17-110"/>
      <path d="M 15.296875 65.359375 
L 6.90625 65.359375 
L 6.90625 57 
L 15.296875 57 
z
M 14.796875 42.796875 
L 7.40625 42.796875 
L 7.40625 0 
L 14.796875 0 
z
" id="CMSS17-105"/>
      <path d="M 38.5 39.703125 
C 38.5 40.390625 33.90625 42.40625 32.703125 42.796875 
C 29.40625 44 25.203125 44 24.09375 44 
C 11.09375 44 3.296875 32.703125 3.296875 21.296875 
C 3.296875 9.296875 12 -1 23.703125 -1 
C 30.40625 -1 35.203125 1.1875 39.09375 3.78125 
L 38.5 10.375 
C 34.203125 7.078125 29.203125 5.265625 23.796875 5.265625 
C 16 5.265625 10.90625 12.09375 10.90625 21.390625 
C 10.90625 28.609375 14.203125 37.71875 24.203125 37.71875 
C 29.703125 37.71875 32.796875 36.609375 37.40625 33.515625 
z
" id="CMSS17-99"/>
      <path d="M 44.203125 21.1875 
C 44.203125 34 34.703125 44 23.5 44 
C 12 44 2.703125 33.703125 2.703125 21.1875 
C 2.703125 8.5 12.296875 -1 23.40625 -1 
C 34.796875 -1 44.203125 8.796875 44.203125 21.1875 
z
M 23.5 5.265625 
C 16.40625 5.265625 10.296875 11.078125 10.296875 22 
C 10.296875 33.609375 17.40625 37.921875 23.40625 37.921875 
C 29.90625 37.921875 36.59375 33.21875 36.59375 22 
C 36.59375 10.671875 30.09375 5.265625 23.5 5.265625 
z
" id="CMSS17-111"/>
     </defs>
     <use transform="scale(0.996264)" xlink:href="#CMSS17-114"/>
     <use transform="translate(31.909773 0)scale(0.996264)" xlink:href="#CMSS17-101"/>
     <use transform="translate(73.548595 0)scale(0.996264)" xlink:href="#CMSS17-97"/>
     <use transform="translate(118.470515 0)scale(0.996264)" xlink:href="#CMSS17-100"/>
     <use transform="translate(197.904571 0)scale(0.996264)" xlink:href="#CMSS17-103"/>
     <use transform="translate(244.748195 0)scale(0.996264)" xlink:href="#CMSS17-101"/>
     <use transform="translate(286.387017 0)scale(0.996264)" xlink:href="#CMSS17-110"/>
     <use transform="translate(334.59196 0)scale(0.996264)" xlink:href="#CMSS17-101"/>
     <use transform="translate(376.230782 0)scale(0.996264)" xlink:href="#CMSS17-114"/>
     <use transform="translate(408.140554 0)scale(0.996264)" xlink:href="#CMSS17-105"/>
     <use transform="translate(430.321278 0)scale(0.996264)" xlink:href="#CMSS17-99"/>
     <use transform="translate(471.9601 0)scale(0.996264)" xlink:href="#CMSS17-105"/>
     <use transform="translate(494.140823 0)scale(0.996264)" xlink:href="#CMSS17-111"/>
    </g>
   </g>
   <g id="text_2">
    <!-- distribute -->
    <g transform="translate(62.63111 78.836078)scale(0.1 -0.1)">
     <defs>
      <path d="M 32.203125 41.046875 
C 26.296875 43.859375 21.703125 43.859375 18.703125 43.859375 
C 11.59375 43.859375 3.09375 41.375 3.09375 31.296875 
C 3.09375 21.234375 14.09375 19.03125 17.09375 18.421875 
C 21.703125 17.53125 26.796875 16.53125 26.796875 11.5625 
C 26.796875 5.265625 19.59375 5.265625 18.296875 5.265625 
C 14.296875 5.265625 8.796875 6.359375 3.796875 9.96875 
L 2.59375 3.28125 
C 8.296875 0 13.796875 -1 18.40625 -1 
C 30.703125 -1 33.796875 6.5 33.796875 12.203125 
C 33.796875 17.09375 31 20.390625 29.09375 21.890625 
C 25.796875 24.5 24.59375 24.796875 16.40625 26.5 
C 15 26.703125 10.09375 27.796875 10.09375 32.28125 
C 10.09375 38 16.40625 38 17.796875 38 
C 24.296875 38 28.296875 35.984375 31 34.5 
z
" id="CMSS17-115"/>
      <path d="M 16.703125 37 
L 29.703125 37 
L 29.703125 42.765625 
L 16.703125 42.765625 
L 16.703125 55 
L 9.59375 55 
L 9.59375 42.765625 
L 1.703125 42.765625 
L 1.703125 37 
L 9.40625 37 
L 9.40625 11.703125 
C 9.40625 6 10.703125 -1 17.296875 -1 
C 22.296875 -1 26.90625 0.390625 31.296875 2.6875 
L 29.703125 8.5625 
C 27.296875 6.46875 24.40625 5.265625 21.296875 5.265625 
C 16.90625 5.265625 16.703125 10.875 16.703125 13.375 
z
" id="CMSS17-116"/>
      <path d="M 14.90625 69 
L 7.5 69 
L 7.5 -0.203125 
L 15.09375 -0.203125 
L 15.09375 4.28125 
C 18.90625 0.59375 23.5 -1 27.59375 -1 
C 37.203125 -1 45 8.578125 45 21.125 
C 45 32.59375 39 43.0625 30.09375 43.0625 
C 23.796875 43.0625 18.203125 40.484375 14.90625 37.796875 
z
M 15.09375 31.96875 
C 17.296875 34.71875 20.40625 37 24.796875 37 
C 30.703125 37 37.40625 32.765625 37.40625 21.125 
C 37.40625 8.71875 29.40625 5.078125 23.90625 5.078125 
C 21.90625 5.078125 19.796875 5.5625 17.796875 7.25 
C 15.09375 9.609375 15.09375 11.078125 15.09375 12.453125 
z
" id="CMSS17-98"/>
      <path d="M 40.90625 42.796875 
L 33.296875 42.796875 
L 33.296875 15.1875 
C 33.296875 7.78125 27.90625 4.78125 22.203125 4.78125 
C 15.59375 4.78125 15 6.984375 15 11.078125 
L 15 42.796875 
L 7.40625 42.796875 
L 7.40625 10.59375 
C 7.40625 2.796875 10.09375 -1 17 -1 
C 20.40625 -1 28.09375 -0.203125 33.5 4.78125 
L 33.5 0 
L 40.90625 0 
z
" id="CMSS17-117"/>
     </defs>
     <use transform="scale(0.996264)" xlink:href="#CMSS17-100"/>
     <use transform="translate(48.204943 0)scale(0.996264)" xlink:href="#CMSS17-105"/>
     <use transform="translate(70.385666 0)scale(0.996264)" xlink:href="#CMSS17-115"/>
     <use transform="translate(106.299208 0)scale(0.996264)" xlink:href="#CMSS17-116"/>
     <use transform="translate(140.130775 0)scale(0.996264)" xlink:href="#CMSS17-114"/>
     <use transform="translate(172.040547 0)scale(0.996264)" xlink:href="#CMSS17-105"/>
     <use transform="translate(194.22127 0)scale(0.996264)" xlink:href="#CMSS17-98"/>
     <use transform="translate(242.426214 0)scale(0.996264)" xlink:href="#CMSS17-117"/>
     <use transform="translate(290.631157 0)scale(0.996264)" xlink:href="#CMSS17-116"/>
     <use transform="translate(324.462723 0)scale(0.996264)" xlink:href="#CMSS17-101"/>
    </g>
   </g>
   <g id="text_3">
    <!-- calculate derived fields -->
    <g transform="translate(0 96.681926)scale(0.1 -0.1)">
     <defs>
      <path d="M 14.796875 69 
L 7.40625 69 
L 7.40625 0 
L 14.796875 0 
z
" id="CMSS17-108"/>
      <path d="M 41.796875 43 
L 34 43 
L 27.296875 24.3125 
C 25.203125 18.203125 22.203125 9.796875 21.703125 5.5 
L 21.59375 5.5 
C 21.40625 7.3125 20.59375 9.90625 20.09375 11.703125 
C 19.5 13.90625 18.703125 16.5 18.09375 18.3125 
L 9.296875 43 
L 1.296875 43 
L 17.09375 0 
L 26 0 
z
" id="CMSS17-118"/>
      <path d="M 43 69 
L 35 69 
L 35 61.03125 
L 43 61.03125 
z
M 42.703125 42.765625 
L 35.296875 42.765625 
L 35.296875 0 
L 42.703125 0 
z
M 16.796875 37 
L 27.703125 37 
L 27.703125 42.765625 
L 16.59375 42.765625 
L 16.59375 55.90625 
C 16.59375 61.234375 19 63.9375 22.203125 63.9375 
C 24.09375 63.9375 26 63.375 27.703125 62.375 
L 27.703125 68.90625 
C 26.90625 69.1875 24.59375 70 22.203125 70 
C 14.703125 70 9.40625 62.390625 9.40625 52.6875 
L 9.40625 42.765625 
L 2.5 42.765625 
L 2.5 37 
L 9.40625 37 
L 9.40625 0 
L 16.796875 0 
z
" id="CMSS17-12"/>
     </defs>
     <use transform="scale(0.996264)" xlink:href="#CMSS17-99"/>
     <use transform="translate(41.638822 0)scale(0.996264)" xlink:href="#CMSS17-97"/>
     <use transform="translate(86.560743 0)scale(0.996264)" xlink:href="#CMSS17-108"/>
     <use transform="translate(108.741466 0)scale(0.996264)" xlink:href="#CMSS17-99"/>
     <use transform="translate(150.380288 0)scale(0.996264)" xlink:href="#CMSS17-117"/>
     <use transform="translate(198.585231 0)scale(0.996264)" xlink:href="#CMSS17-108"/>
     <use transform="translate(220.765954 0)scale(0.996264)" xlink:href="#CMSS17-97"/>
     <use transform="translate(265.687875 0)scale(0.996264)" xlink:href="#CMSS17-116"/>
     <use transform="translate(299.519441 0)scale(0.996264)" xlink:href="#CMSS17-101"/>
     <use transform="translate(372.387376 0)scale(0.996264)" xlink:href="#CMSS17-100"/>
     <use transform="translate(420.592319 0)scale(0.996264)" xlink:href="#CMSS17-101"/>
     <use transform="translate(462.231141 0)scale(0.996264)" xlink:href="#CMSS17-114"/>
     <use transform="translate(494.140914 0)scale(0.996264)" xlink:href="#CMSS17-105"/>
     <use transform="translate(516.321637 0)scale(0.996264)" xlink:href="#CMSS17-118"/>
     <use transform="translate(559.321779 0)scale(0.996264)" xlink:href="#CMSS17-101"/>
     <use transform="translate(600.960601 0)scale(0.996264)" xlink:href="#CMSS17-100"/>
     <use transform="translate(680.394657 0)scale(0.996264)" xlink:href="#CMSS17-12"/>
     <use transform="translate(730.521394 0)scale(0.996264)" xlink:href="#CMSS17-101"/>
     <use transform="translate(772.160216 0)scale(0.996264)" xlink:href="#CMSS17-108"/>
     <use transform="translate(794.340939 0)scale(0.996264)" xlink:href="#CMSS17-100"/>
     <use transform="translate(842.545882 0)scale(0.996264)" xlink:href="#CMSS17-115"/>
    </g>
   </g>
   <g id="text_4">
    <!-- fill data -->
    <g transform="translate(88.656342 217.664142)scale(0.1 -0.1)">
     <use transform="scale(0.996264)" xlink:href="#CMSS17-12"/>
     <use transform="translate(50.126737 0)scale(0.996264)" xlink:href="#CMSS17-108"/>
     <use transform="translate(72.30746 0)scale(0.996264)" xlink:href="#CMSS17-108"/>
     <use transform="translate(125.717296 0)scale(0.996264)" xlink:href="#CMSS17-100"/>
     <use transform="translate(173.922239 0)scale(0.996264)" xlink:href="#CMSS17-97"/>
     <use transform="translate(218.84416 0)scale(0.996264)" xlink:href="#CMSS17-116"/>
     <use transform="translate(252.675727 0)scale(0.996264)" xlink:href="#CMSS17-97"/>
    </g>
   </g>
   <g id="text_5">
    <!-- writing (GIO) -->
    <g transform="translate(126.764597 251.026801)scale(0.1 -0.1)">
     <defs>
      <path d="M 62.703125 43 
L 55.09375 43 
L 49.796875 25.015625 
C 48.703125 21.21875 45.59375 10.703125 45.203125 5.796875 
L 45.09375 5.796875 
C 44.90625 8.8125 43.203125 16 40.40625 25.515625 
L 35.296875 43 
L 28.40625 43 
L 23.40625 25.90625 
C 20.90625 17.203125 19 9.796875 18.796875 5.796875 
L 18.703125 5.796875 
C 18.296875 11.703125 14.203125 25.515625 13.59375 27.703125 
L 9.09375 43 
L 1.296875 43 
L 14.296875 0 
L 21.90625 0 
C 27.09375 17.125 31.09375 30.359375 31.40625 37.03125 
C 31.59375 33.75 33.296875 26.671875 34.296875 23.1875 
L 40.90625 0 
L 49.703125 0 
z
" id="CMSS17-119"/>
      <path d="M 25.203125 74.5 
C 19.796875 69.015625 7.40625 56.265625 7.40625 24.8125 
C 7.40625 -6.765625 19.796875 -19.421875 25.203125 -25 
L 31.296875 -25 
C 19 -12.25 15 5.578125 15 24.703125 
C 15 43.71875 18.796875 61.65625 31.296875 74.5 
z
" id="CMSS17-40"/>
      <path d="M 56.40625 29 
L 36.5 29 
L 36.5 22.828125 
L 48.796875 22.828125 
L 48.796875 7.359375 
C 44.90625 6.265625 40.90625 5.46875 36.90625 5.46875 
C 22.90625 5.46875 14.59375 20.328125 14.59375 34.375 
C 14.59375 48.359375 23.296875 63 36.90625 63 
C 44.59375 63 48.90625 60.640625 54.203125 56.671875 
L 55.5 64.59375 
C 48.90625 67.984375 44.796875 69.375 37.296875 69.375 
C 17.90625 69.375 6.203125 51.9375 6.203125 34.09375 
C 6.203125 17.03125 18 -1 36.703125 -1 
C 43.703125 -1 50.203125 0.796875 56.40625 3.875 
z
" id="CMSS17-71"/>
      <path d="M 17.09375 69 
L 8.703125 69 
L 8.703125 0 
L 17.09375 0 
z
" id="CMSS17-73"/>
      <path d="M 64 34.03125 
C 64 54.734375 50.296875 70.265625 34.59375 70.265625 
C 18.90625 70.265625 5.203125 54.640625 5.203125 34.03125 
C 5.203125 13.234375 19.09375 -2 34.59375 -2 
C 50.09375 -2 64 13.234375 64 34.03125 
z
M 34.59375 4.265625 
C 23.59375 4.265625 13.59375 16.515625 13.59375 35.328125 
C 13.59375 53.640625 24.203125 64 34.59375 64 
C 45 64 55.59375 53.640625 55.59375 35.328125 
C 55.59375 16.421875 45.5 4.265625 34.59375 4.265625 
z
" id="CMSS17-79"/>
      <path d="M 11.296875 -25 
C 16.703125 -19.515625 29.09375 -6.765625 29.09375 24.703125 
C 29.09375 56.265625 16.703125 68.921875 11.296875 74.5 
L 5.203125 74.5 
C 17.5 61.75 21.5 43.921875 21.5 24.8125 
C 21.5 5.78125 17.703125 -12.15625 5.203125 -25 
z
" id="CMSS17-41"/>
     </defs>
     <use transform="scale(0.996264)" xlink:href="#CMSS17-119"/>
     <use transform="translate(63.819545 0)scale(0.996264)" xlink:href="#CMSS17-114"/>
     <use transform="translate(95.729318 0)scale(0.996264)" xlink:href="#CMSS17-105"/>
     <use transform="translate(117.910041 0)scale(0.996264)" xlink:href="#CMSS17-116"/>
     <use transform="translate(151.741607 0)scale(0.996264)" xlink:href="#CMSS17-105"/>
     <use transform="translate(173.92233 0)scale(0.996264)" xlink:href="#CMSS17-110"/>
     <use transform="translate(222.127274 0)scale(0.996264)" xlink:href="#CMSS17-103"/>
     <use transform="translate(300.20001 0)scale(0.996264)" xlink:href="#CMSS17-40"/>
     <use transform="translate(336.633924 0)scale(0.996264)" xlink:href="#CMSS17-71"/>
     <use transform="translate(399.09215 0)scale(0.996264)" xlink:href="#CMSS17-73"/>
     <use transform="translate(424.876075 0)scale(0.996264)" xlink:href="#CMSS17-79"/>
     <use transform="translate(493.90033 0)scale(0.996264)" xlink:href="#CMSS17-41"/>
    </g>
   </g>
   <g id="text_6">
    <!-- reading (GIO) -->
    <g transform="translate(287.299972 218.342022)scale(0.1 -0.1)">
     <use transform="scale(0.996264)" xlink:href="#CMSS17-114"/>
     <use transform="translate(31.909773 0)scale(0.996264)" xlink:href="#CMSS17-101"/>
     <use transform="translate(73.548595 0)scale(0.996264)" xlink:href="#CMSS17-97"/>
     <use transform="translate(118.470515 0)scale(0.996264)" xlink:href="#CMSS17-100"/>
     <use transform="translate(166.675458 0)scale(0.996264)" xlink:href="#CMSS17-105"/>
     <use transform="translate(188.856181 0)scale(0.996264)" xlink:href="#CMSS17-110"/>
     <use transform="translate(237.061125 0)scale(0.996264)" xlink:href="#CMSS17-103"/>
     <use transform="translate(315.133861 0)scale(0.996264)" xlink:href="#CMSS17-40"/>
     <use transform="translate(351.567775 0)scale(0.996264)" xlink:href="#CMSS17-71"/>
     <use transform="translate(414.026001 0)scale(0.996264)" xlink:href="#CMSS17-73"/>
     <use transform="translate(439.809926 0)scale(0.996264)" xlink:href="#CMSS17-79"/>
     <use transform="translate(508.834181 0)scale(0.996264)" xlink:href="#CMSS17-41"/>
    </g>
   </g>
   <g id="text_7">
    <!-- cleanup (GIO) -->
    <g transform="translate(319.073385 158.926664)scale(0.1 -0.1)">
     <defs>
      <path d="M 15.09375 5.203125 
C 18.40625 2.015625 22.90625 -0.078125 27.703125 -0.078125 
C 37 -0.078125 45 9.421875 45 22.0625 
C 45 33.734375 39 44 30.40625 44 
C 25.40625 44 19.40625 42.21875 14.90625 38.625 
L 14.90625 43.203125 
L 7.5 43.203125 
L 7.5 -19 
L 15.09375 -19 
z
M 15.09375 32.8125 
C 15.90625 34 19.296875 37.734375 24.796875 37.734375 
C 31.796875 37.734375 37.40625 30.625 37.40625 22.0625 
C 37.40625 12.296875 30.59375 6 23.90625 6 
C 21.90625 6 19.796875 6.484375 17.796875 8.171875 
C 15.09375 10.53125 15.09375 12 15.09375 13.390625 
z
" id="CMSS17-112"/>
     </defs>
     <use transform="scale(0.996264)" xlink:href="#CMSS17-99"/>
     <use transform="translate(41.638822 0)scale(0.996264)" xlink:href="#CMSS17-108"/>
     <use transform="translate(63.819545 0)scale(0.996264)" xlink:href="#CMSS17-101"/>
     <use transform="translate(105.458367 0)scale(0.996264)" xlink:href="#CMSS17-97"/>
     <use transform="translate(150.380288 0)scale(0.996264)" xlink:href="#CMSS17-110"/>
     <use transform="translate(198.585231 0)scale(0.996264)" xlink:href="#CMSS17-117"/>
     <use transform="translate(246.790174 0)scale(0.996264)" xlink:href="#CMSS17-112"/>
     <use transform="translate(326.22423 0)scale(0.996264)" xlink:href="#CMSS17-40"/>
     <use transform="translate(362.658144 0)scale(0.996264)" xlink:href="#CMSS17-71"/>
     <use transform="translate(425.11637 0)scale(0.996264)" xlink:href="#CMSS17-73"/>
     <use transform="translate(450.900295 0)scale(0.996264)" xlink:href="#CMSS17-79"/>
     <use transform="translate(519.924551 0)scale(0.996264)" xlink:href="#CMSS17-41"/>
    </g>
   </g>
   <g id="text_8">
    <!-- total time -->
    <g transform="translate(183.690912 130.570972)scale(0.1 -0.1)">
     <defs>
      <path d="M 67 29.328125 
C 67 36.0625 65.296875 44 54.09375 44 
C 46.59375 44 42.09375 39.3125 40.09375 36.421875 
C 38.296875 41.71875 34.09375 44 28.09375 44 
C 21.296875 44 17 40.125 14.703125 37.328125 
L 14.703125 43.09375 
L 7.40625 43.09375 
L 7.40625 0 
L 15 0 
L 15 24.359375 
C 15 30.296875 17.203125 37.9375 24.296875 37.9375 
C 33.40625 37.9375 33.40625 31.5 33.40625 28.578125 
L 33.40625 0 
L 41 0 
L 41 24.359375 
C 41 30.296875 43.203125 37.9375 50.296875 37.9375 
C 59.40625 37.9375 59.40625 31.5 59.40625 28.578125 
L 59.40625 0 
L 67 0 
z
" id="CMSS17-109"/>
     </defs>
     <use transform="scale(0.996264)" xlink:href="#CMSS17-116"/>
     <use transform="translate(33.831567 0)scale(0.996264)" xlink:href="#CMSS17-111"/>
     <use transform="translate(80.67519 0)scale(0.996264)" xlink:href="#CMSS17-116"/>
     <use transform="translate(114.506757 0)scale(0.996264)" xlink:href="#CMSS17-97"/>
     <use transform="translate(159.428677 0)scale(0.996264)" xlink:href="#CMSS17-108"/>
     <use transform="translate(212.838513 0)scale(0.996264)" xlink:href="#CMSS17-116"/>
     <use transform="translate(246.67008 0)scale(0.996264)" xlink:href="#CMSS17-105"/>
     <use transform="translate(268.850803 0)scale(0.996264)" xlink:href="#CMSS17-109"/>
     <use transform="translate(343.080057 0)scale(0.996264)" xlink:href="#CMSS17-101"/>
    </g>
    <!-- 3.2h -->
    <g transform="translate(195.244806 140.810348)scale(0.1 -0.1)">
     <defs>
      <path d="M 15.703125 31.640625 
L 22.5 31.640625 
C 31.90625 31.640625 34.59375 23.546875 34.59375 17.90625 
C 34.59375 10.203125 30.203125 4.171875 23 4.171875 
C 17.40625 4.171875 9.5 6.9375 5 14.25 
C 4.296875 10.796875 4.296875 10.59375 3.90625 8.21875 
C 8.59375 1.375 16.203125 -2 23.203125 -2 
C 34.59375 -2 43 7.390625 43 17.78125 
C 43 25.59375 37.5 32.140625 30 34.609375 
C 36 37.875 40.40625 44 40.40625 51.140625 
C 40.40625 59.453125 32.703125 66.078125 23.296875 66.078125 
C 14.703125 66.078125 8 60.8125 5.203125 55.15625 
C 5.90625 54.1875 7.703125 51.3125 8.59375 49.828125 
C 10.796875 55.65625 16.5 60 23.203125 60 
C 28.796875 60 32.5 56.359375 32.5 51.109375 
C 32.5 45.671875 29 39.734375 23.09375 38.359375 
C 22.703125 38.359375 16.5 37.765625 15.703125 37.671875 
z
" id="CMSS17-51"/>
      <path d="M 17 7.96875 
L 9 7.96875 
L 9 0 
L 17 0 
z
" id="CMSS17-46"/>
      <path d="M 25.796875 21.203125 
C 28.59375 24.078125 32.796875 27.5625 35.703125 31.046875 
C 38.5 34.4375 42.203125 39.234375 42.203125 46.203125 
C 42.203125 57.140625 34.796875 67 22.203125 67 
C 12.296875 67 6.59375 60.828125 3.90625 51.15625 
L 7.796875 45.765625 
C 10 54.84375 13.09375 60.625 20.90625 60.625 
C 29.5 60.625 34.296875 53.640625 34.296875 45.96875 
C 34.296875 36.796875 27.296875 29.703125 22 24.421875 
C 16.09375 18.546875 10.296875 12.5625 4.703125 6.375 
L 4.703125 0 
L 42.203125 0 
L 42.203125 6.765625 
L 25.203125 6.765625 
C 24 6.765625 22.796875 6.765625 21.59375 6.765625 
L 11.59375 6.765625 
L 11.59375 6.859375 
z
" id="CMSS17-50"/>
      <path d="M 40.90625 29.546875 
C 40.90625 35.8125 39.40625 44.0625 28.09375 44.0625 
C 21.796875 44.0625 17.703125 40.984375 14.796875 37.609375 
L 14.796875 69.5 
L 7.40625 69.5 
L 7.40625 0.5 
L 15 0.5 
L 15 24.578125 
C 15 30.828125 17.40625 38 24.203125 38 
C 33 38 33.296875 32.125 33.296875 28.734375 
L 33.296875 0.5 
L 40.90625 0.5 
z
" id="CMSS17-104"/>
     </defs>
     <use transform="scale(0.996264)" xlink:href="#CMSS17-51"/>
     <use transform="translate(46.843624 0)scale(0.996264)" xlink:href="#CMSS17-46"/>
     <use transform="translate(72.867828 0)scale(0.996264)" xlink:href="#CMSS17-50"/>
     <use transform="translate(119.711452 0)scale(0.996264)" xlink:href="#CMSS17-104"/>
    </g>
   </g>
   <g id="legend_1">
    <g id="patch_27">
     <path d="M 346.38353 16.598437 
L 366.38353 16.598437 
L 366.38353 9.598437 
L 346.38353 9.598437 
z
" style="fill:#440154;stroke:#ffffff;stroke-linejoin:miter;"/>
    </g>
    <g id="text_9">
     <!-- read treenodes -->
     <g transform="translate(374.38353 16.598437)scale(0.1 -0.1)">
      <use transform="scale(0.996264)" xlink:href="#CMSS17-114"/>
      <use transform="translate(31.909773 0)scale(0.996264)" xlink:href="#CMSS17-101"/>
      <use transform="translate(73.548595 0)scale(0.996264)" xlink:href="#CMSS17-97"/>
      <use transform="translate(118.470515 0)scale(0.996264)" xlink:href="#CMSS17-100"/>
      <use transform="translate(197.904571 0)scale(0.996264)" xlink:href="#CMSS17-116"/>
      <use transform="translate(231.736138 0)scale(0.996264)" xlink:href="#CMSS17-114"/>
      <use transform="translate(263.64591 0)scale(0.996264)" xlink:href="#CMSS17-101"/>
      <use transform="translate(305.284732 0)scale(0.996264)" xlink:href="#CMSS17-101"/>
      <use transform="translate(346.923554 0)scale(0.996264)" xlink:href="#CMSS17-110"/>
      <use transform="translate(395.128498 0)scale(0.996264)" xlink:href="#CMSS17-111"/>
      <use transform="translate(444.57456 0)scale(0.996264)" xlink:href="#CMSS17-100"/>
      <use transform="translate(492.779503 0)scale(0.996264)" xlink:href="#CMSS17-101"/>
      <use transform="translate(534.418325 0)scale(0.996264)" xlink:href="#CMSS17-115"/>
     </g>
    </g>
    <g id="patch_28">
     <path d="M 346.38353 31.276563 
L 366.38353 31.276563 
L 366.38353 24.276563 
L 346.38353 24.276563 
z
" style="fill:#472d7b;stroke:#ffffff;stroke-linejoin:miter;"/>
    </g>
    <g id="text_10">
     <!-- exchange descendants -->
     <g transform="translate(374.38353 31.276563)scale(0.1 -0.1)">
      <defs>
       <path d="M 24.796875 22.09375 
L 41.5 42.796875 
L 32.796875 42.796875 
L 21.296875 27.765625 
L 9.40625 42.796875 
L 0.5 42.796875 
L 17.796875 22.09375 
L 0 0 
L 8.796875 0 
L 21.296875 17.515625 
L 34.296875 0 
L 43.09375 0 
z
" id="CMSS17-120"/>
      </defs>
      <use transform="scale(0.996264)" xlink:href="#CMSS17-101"/>
      <use transform="translate(41.638822 0)scale(0.996264)" xlink:href="#CMSS17-120"/>
      <use transform="translate(84.638964 0)scale(0.996264)" xlink:href="#CMSS17-99"/>
      <use transform="translate(126.277786 0)scale(0.996264)" xlink:href="#CMSS17-104"/>
      <use transform="translate(174.482729 0)scale(0.996264)" xlink:href="#CMSS17-97"/>
      <use transform="translate(219.40465 0)scale(0.996264)" xlink:href="#CMSS17-110"/>
      <use transform="translate(267.609593 0)scale(0.996264)" xlink:href="#CMSS17-103"/>
      <use transform="translate(314.453216 0)scale(0.996264)" xlink:href="#CMSS17-101"/>
      <use transform="translate(387.321151 0)scale(0.996264)" xlink:href="#CMSS17-100"/>
      <use transform="translate(435.526094 0)scale(0.996264)" xlink:href="#CMSS17-101"/>
      <use transform="translate(477.164916 0)scale(0.996264)" xlink:href="#CMSS17-115"/>
      <use transform="translate(513.078458 0)scale(0.996264)" xlink:href="#CMSS17-99"/>
      <use transform="translate(554.71728 0)scale(0.996264)" xlink:href="#CMSS17-101"/>
      <use transform="translate(596.356102 0)scale(0.996264)" xlink:href="#CMSS17-110"/>
      <use transform="translate(644.561045 0)scale(0.996264)" xlink:href="#CMSS17-100"/>
      <use transform="translate(692.765989 0)scale(0.996264)" xlink:href="#CMSS17-97"/>
      <use transform="translate(737.687909 0)scale(0.996264)" xlink:href="#CMSS17-110"/>
      <use transform="translate(785.892852 0)scale(0.996264)" xlink:href="#CMSS17-116"/>
      <use transform="translate(819.724419 0)scale(0.996264)" xlink:href="#CMSS17-115"/>
     </g>
    </g>
    <g id="patch_29">
     <path d="M 346.38353 45.954687 
L 366.38353 45.954687 
L 366.38353 38.954687 
L 346.38353 38.954687 
z
" style="fill:#3b528b;stroke:#ffffff;stroke-linejoin:miter;"/>
    </g>
    <g id="text_11">
     <!-- sort arrays -->
     <g transform="translate(374.38353 45.954687)scale(0.1 -0.1)">
      <defs>
       <path d="M 41.796875 43 
L 34 43 
C 25.5 20.21875 22.59375 10.96875 22.40625 5.984375 
L 22.296875 5.984375 
C 22 10.875 17.59375 22.8125 14.09375 31.359375 
L 9.40625 43 
L 1.296875 43 
L 19 0.203125 
C 17.90625 -2.78125 16.296875 -7.265625 15.796875 -8.265625 
C 13.59375 -13.828125 12.09375 -13.828125 10.5 -13.828125 
C 10.09375 -13.828125 6.90625 -13.828125 3.296875 -12.640625 
L 3.90625 -19.203125 
C 6.40625 -19.703125 8.90625 -20 10.703125 -20 
C 13.203125 -20 18.203125 -20 22.796875 -7.765625 
z
" id="CMSS17-121"/>
      </defs>
      <use transform="scale(0.996264)" xlink:href="#CMSS17-115"/>
      <use transform="translate(35.913542 0)scale(0.996264)" xlink:href="#CMSS17-111"/>
      <use transform="translate(80.154712 0)scale(0.996264)" xlink:href="#CMSS17-114"/>
      <use transform="translate(112.064484 0)scale(0.996264)" xlink:href="#CMSS17-116"/>
      <use transform="translate(177.125164 0)scale(0.996264)" xlink:href="#CMSS17-97"/>
      <use transform="translate(219.44463 0)scale(0.996264)" xlink:href="#CMSS17-114"/>
      <use transform="translate(251.354403 0)scale(0.996264)" xlink:href="#CMSS17-114"/>
      <use transform="translate(283.264175 0)scale(0.996264)" xlink:href="#CMSS17-97"/>
      <use transform="translate(325.583642 0)scale(0.996264)" xlink:href="#CMSS17-121"/>
      <use transform="translate(368.583784 0)scale(0.996264)" xlink:href="#CMSS17-115"/>
     </g>
    </g>
    <g id="patch_30">
     <path d="M 346.38353 60.632812 
L 366.38353 60.632812 
L 366.38353 53.632812 
L 346.38353 53.632812 
z
" style="fill:#2c728e;stroke:#ffffff;stroke-linejoin:miter;"/>
    </g>
    <g id="text_12">
     <!-- assign progenitors -->
     <g transform="translate(374.38353 60.632812)scale(0.1 -0.1)">
      <use transform="scale(0.996264)" xlink:href="#CMSS17-97"/>
      <use transform="translate(44.921921 0)scale(0.996264)" xlink:href="#CMSS17-115"/>
      <use transform="translate(80.835463 0)scale(0.996264)" xlink:href="#CMSS17-115"/>
      <use transform="translate(116.749005 0)scale(0.996264)" xlink:href="#CMSS17-105"/>
      <use transform="translate(138.929728 0)scale(0.996264)" xlink:href="#CMSS17-103"/>
      <use transform="translate(185.773351 0)scale(0.996264)" xlink:href="#CMSS17-110"/>
      <use transform="translate(265.207407 0)scale(0.996264)" xlink:href="#CMSS17-112"/>
      <use transform="translate(310.809896 0)scale(0.996264)" xlink:href="#CMSS17-114"/>
      <use transform="translate(342.719669 0)scale(0.996264)" xlink:href="#CMSS17-111"/>
      <use transform="translate(389.563292 0)scale(0.996264)" xlink:href="#CMSS17-103"/>
      <use transform="translate(436.406916 0)scale(0.996264)" xlink:href="#CMSS17-101"/>
      <use transform="translate(478.045738 0)scale(0.996264)" xlink:href="#CMSS17-110"/>
      <use transform="translate(526.250681 0)scale(0.996264)" xlink:href="#CMSS17-105"/>
      <use transform="translate(548.431404 0)scale(0.996264)" xlink:href="#CMSS17-116"/>
      <use transform="translate(582.262971 0)scale(0.996264)" xlink:href="#CMSS17-111"/>
      <use transform="translate(626.50414 0)scale(0.996264)" xlink:href="#CMSS17-114"/>
      <use transform="translate(658.413913 0)scale(0.996264)" xlink:href="#CMSS17-115"/>
     </g>
    </g>
    <g id="patch_31">
     <path d="M 346.38353 75.310937 
L 366.38353 75.310937 
L 366.38353 68.310937 
L 346.38353 68.310937 
z
" style="fill:#21918c;stroke:#ffffff;stroke-linejoin:miter;"/>
    </g>
    <g id="text_13">
     <!-- calculate branch sizes -->
     <g transform="translate(374.38353 75.310937)scale(0.1 -0.1)">
      <defs>
       <path d="M 37.5 39.09375 
L 37.5 42.96875 
L 3.90625 42.96875 
L 3.90625 37 
L 16.703125 37 
C 17.90625 37 19.09375 37 20.296875 37 
L 27.296875 37 
L 2.59375 4.078125 
L 2.59375 0 
L 37.796875 0 
L 37.796875 6.171875 
L 24.203125 6.171875 
C 23 6.171875 21.796875 6.171875 20.59375 6.171875 
L 12.90625 6.171875 
z
" id="CMSS17-122"/>
      </defs>
      <use transform="scale(0.996264)" xlink:href="#CMSS17-99"/>
      <use transform="translate(41.638822 0)scale(0.996264)" xlink:href="#CMSS17-97"/>
      <use transform="translate(86.560743 0)scale(0.996264)" xlink:href="#CMSS17-108"/>
      <use transform="translate(108.741466 0)scale(0.996264)" xlink:href="#CMSS17-99"/>
      <use transform="translate(150.380288 0)scale(0.996264)" xlink:href="#CMSS17-117"/>
      <use transform="translate(198.585231 0)scale(0.996264)" xlink:href="#CMSS17-108"/>
      <use transform="translate(220.765954 0)scale(0.996264)" xlink:href="#CMSS17-97"/>
      <use transform="translate(265.687875 0)scale(0.996264)" xlink:href="#CMSS17-116"/>
      <use transform="translate(299.519441 0)scale(0.996264)" xlink:href="#CMSS17-101"/>
      <use transform="translate(372.387376 0)scale(0.996264)" xlink:href="#CMSS17-98"/>
      <use transform="translate(417.989865 0)scale(0.996264)" xlink:href="#CMSS17-114"/>
      <use transform="translate(449.899638 0)scale(0.996264)" xlink:href="#CMSS17-97"/>
      <use transform="translate(494.821558 0)scale(0.996264)" xlink:href="#CMSS17-110"/>
      <use transform="translate(543.026502 0)scale(0.996264)" xlink:href="#CMSS17-99"/>
      <use transform="translate(584.665324 0)scale(0.996264)" xlink:href="#CMSS17-104"/>
      <use transform="translate(664.09938 0)scale(0.996264)" xlink:href="#CMSS17-115"/>
      <use transform="translate(700.012922 0)scale(0.996264)" xlink:href="#CMSS17-105"/>
      <use transform="translate(722.193645 0)scale(0.996264)" xlink:href="#CMSS17-122"/>
      <use transform="translate(762.871516 0)scale(0.996264)" xlink:href="#CMSS17-101"/>
      <use transform="translate(804.510338 0)scale(0.996264)" xlink:href="#CMSS17-115"/>
     </g>
    </g>
    <g id="patch_32">
     <path d="M 346.38353 89.989062 
L 366.38353 89.989062 
L 366.38353 82.989062 
L 346.38353 82.989062 
z
" style="fill:#28ae80;stroke:#ffffff;stroke-linejoin:miter;"/>
    </g>
    <g id="text_14">
     <!-- calculate array positions -->
     <g transform="translate(374.38353 89.989062)scale(0.1 -0.1)">
      <use transform="scale(0.996264)" xlink:href="#CMSS17-99"/>
      <use transform="translate(41.638822 0)scale(0.996264)" xlink:href="#CMSS17-97"/>
      <use transform="translate(86.560743 0)scale(0.996264)" xlink:href="#CMSS17-108"/>
      <use transform="translate(108.741466 0)scale(0.996264)" xlink:href="#CMSS17-99"/>
      <use transform="translate(150.380288 0)scale(0.996264)" xlink:href="#CMSS17-117"/>
      <use transform="translate(198.585231 0)scale(0.996264)" xlink:href="#CMSS17-108"/>
      <use transform="translate(220.765954 0)scale(0.996264)" xlink:href="#CMSS17-97"/>
      <use transform="translate(265.687875 0)scale(0.996264)" xlink:href="#CMSS17-116"/>
      <use transform="translate(299.519441 0)scale(0.996264)" xlink:href="#CMSS17-101"/>
      <use transform="translate(372.387376 0)scale(0.996264)" xlink:href="#CMSS17-97"/>
      <use transform="translate(414.706843 0)scale(0.996264)" xlink:href="#CMSS17-114"/>
      <use transform="translate(446.616615 0)scale(0.996264)" xlink:href="#CMSS17-114"/>
      <use transform="translate(478.526388 0)scale(0.996264)" xlink:href="#CMSS17-97"/>
      <use transform="translate(520.845855 0)scale(0.996264)" xlink:href="#CMSS17-121"/>
      <use transform="translate(595.075109 0)scale(0.996264)" xlink:href="#CMSS17-112"/>
      <use transform="translate(645.882491 0)scale(0.996264)" xlink:href="#CMSS17-111"/>
      <use transform="translate(692.726114 0)scale(0.996264)" xlink:href="#CMSS17-115"/>
      <use transform="translate(728.639656 0)scale(0.996264)" xlink:href="#CMSS17-105"/>
      <use transform="translate(750.820379 0)scale(0.996264)" xlink:href="#CMSS17-116"/>
      <use transform="translate(784.651946 0)scale(0.996264)" xlink:href="#CMSS17-105"/>
      <use transform="translate(806.832669 0)scale(0.996264)" xlink:href="#CMSS17-111"/>
      <use transform="translate(853.676293 0)scale(0.996264)" xlink:href="#CMSS17-110"/>
      <use transform="translate(901.881236 0)scale(0.996264)" xlink:href="#CMSS17-115"/>
     </g>
    </g>
    <g id="patch_33">
     <path d="M 346.38353 104.667187 
L 366.38353 104.667187 
L 366.38353 97.667187 
L 346.38353 97.667187 
z
" style="fill:#5ec962;stroke:#ffffff;stroke-linejoin:miter;"/>
    </g>
    <g id="text_15">
     <!-- output HDF5 forest -->
     <g transform="translate(374.38353 104.667187)scale(0.1 -0.1)">
      <defs>
       <path d="M 57.40625 69 
L 49 69 
L 49 39.078125 
L 17.203125 39.078125 
L 17.203125 69 
L 8.796875 69 
L 8.796875 0 
L 17.203125 0 
L 17.203125 33 
L 49 33 
L 49 0 
L 57.40625 0 
z
" id="CMSS17-72"/>
       <path d="M 8.90625 69 
L 8.90625 0 
L 33.5 0 
C 49.90625 0 62.5 15.3125 62.5 33.90625 
C 62.5 53.09375 49.90625 69 33.5 69 
z
M 17.09375 5.578125 
L 17.09375 63.421875 
L 31.296875 63.421875 
C 44.703125 63.421875 54.296875 51.203125 54.296875 33.90625 
C 54.296875 17.296875 44.796875 5.578125 31.296875 5.578125 
z
" id="CMSS17-68"/>
       <path d="M 45.59375 31 
L 45.59375 37.078125 
L 17.203125 37.078125 
L 17.203125 62 
L 29.40625 62 
C 30.59375 62 31.796875 62 33 62 
L 49.5 62 
L 49.5 68.359375 
L 8.796875 68.359375 
L 8.796875 -0.5 
L 17.203125 -0.5 
L 17.203125 31 
z
" id="CMSS17-70"/>
       <path d="M 14.59375 58.625 
L 39.09375 58.625 
L 39.09375 65 
L 7.296875 65 
L 7.296875 27.828125 
L 14 27.828125 
C 15.796875 31.96875 19.5 35 24.296875 35 
C 28.796875 35 33.796875 31.078125 33.796875 19.78125 
C 33.796875 7.703125 26.703125 4.171875 21.5 4.171875 
C 15.09375 4.171875 9.203125 8 6.59375 13.296875 
L 3.40625 7.796875 
C 8 0.765625 15.5 -2 21.5 -2 
C 33.09375 -2 42.203125 7.765625 42.203125 19.578125 
C 42.203125 31.71875 34.09375 41.078125 24.40625 41.078125 
C 20.90625 41.078125 17.5 39.890625 14.59375 37.484375 
z
" id="CMSS17-53"/>
       <path d="M 16.796875 37 
L 26.90625 37 
L 26.90625 42.765625 
L 16.59375 42.765625 
L 16.59375 55.609375 
C 16.59375 62.71875 22 63.9375 25.09375 63.9375 
C 26.09375 63.9375 28.90625 63.9375 32.5 62.640625 
L 32.5 69.203125 
C 30.203125 69.703125 27.40625 70 25.203125 70 
C 15.90625 70 9.40625 62.390625 9.40625 52.484375 
L 9.40625 42.765625 
L 2.5 42.765625 
L 2.5 37 
L 9.40625 37 
L 9.40625 0 
L 16.796875 0 
z
" id="CMSS17-102"/>
      </defs>
      <use transform="scale(0.996264)" xlink:href="#CMSS17-111"/>
      <use transform="translate(46.843624 0)scale(0.996264)" xlink:href="#CMSS17-117"/>
      <use transform="translate(95.048567 0)scale(0.996264)" xlink:href="#CMSS17-116"/>
      <use transform="translate(128.880133 0)scale(0.996264)" xlink:href="#CMSS17-112"/>
      <use transform="translate(177.085076 0)scale(0.996264)" xlink:href="#CMSS17-117"/>
      <use transform="translate(225.29002 0)scale(0.996264)" xlink:href="#CMSS17-116"/>
      <use transform="translate(290.350699 0)scale(0.996264)" xlink:href="#CMSS17-72"/>
      <use transform="translate(356.412218 0)scale(0.996264)" xlink:href="#CMSS17-68"/>
      <use transform="translate(423.95506 0)scale(0.996264)" xlink:href="#CMSS17-70"/>
      <use transform="translate(477.244619 0)scale(0.996264)" xlink:href="#CMSS17-53"/>
      <use transform="translate(555.317355 0)scale(0.996264)" xlink:href="#CMSS17-102"/>
      <use transform="translate(583.944014 0)scale(0.996264)" xlink:href="#CMSS17-111"/>
      <use transform="translate(628.185184 0)scale(0.996264)" xlink:href="#CMSS17-114"/>
      <use transform="translate(660.094956 0)scale(0.996264)" xlink:href="#CMSS17-101"/>
      <use transform="translate(701.733778 0)scale(0.996264)" xlink:href="#CMSS17-115"/>
      <use transform="translate(737.64732 0)scale(0.996264)" xlink:href="#CMSS17-116"/>
     </g>
    </g>
    <g id="patch_34">
     <path d="M 346.38353 119.345312 
L 366.38353 119.345312 
L 366.38353 112.345312 
L 346.38353 112.345312 
z
" style="fill:#addc30;stroke:#ffffff;stroke-linejoin:miter;"/>
    </g>
    <g id="text_16">
     <!-- temp storage -->
     <g transform="translate(374.38353 119.345312)scale(0.1 -0.1)">
      <use transform="scale(0.996264)" xlink:href="#CMSS17-116"/>
      <use transform="translate(33.831567 0)scale(0.996264)" xlink:href="#CMSS17-101"/>
      <use transform="translate(75.470389 0)scale(0.996264)" xlink:href="#CMSS17-109"/>
      <use transform="translate(149.699643 0)scale(0.996264)" xlink:href="#CMSS17-112"/>
      <use transform="translate(229.133699 0)scale(0.996264)" xlink:href="#CMSS17-115"/>
      <use transform="translate(265.047241 0)scale(0.996264)" xlink:href="#CMSS17-116"/>
      <use transform="translate(298.878808 0)scale(0.996264)" xlink:href="#CMSS17-111"/>
      <use transform="translate(343.119977 0)scale(0.996264)" xlink:href="#CMSS17-114"/>
      <use transform="translate(375.02975 0)scale(0.996264)" xlink:href="#CMSS17-97"/>
      <use transform="translate(419.95167 0)scale(0.996264)" xlink:href="#CMSS17-103"/>
      <use transform="translate(466.795294 0)scale(0.996264)" xlink:href="#CMSS17-101"/>
     </g>
    </g>
    <g id="patch_35">
     <path d="M 346.38353 134.023437 
L 366.38353 134.023437 
L 366.38353 127.023437 
L 346.38353 127.023437 
z
" style="fill:#fde725;stroke:#ffffff;stroke-linejoin:miter;"/>
    </g>
    <g id="text_17">
     <!-- others -->
     <g transform="translate(374.38353 134.023437)scale(0.1 -0.1)">
      <use transform="scale(0.996264)" xlink:href="#CMSS17-111"/>
      <use transform="translate(46.843624 0)scale(0.996264)" xlink:href="#CMSS17-116"/>
      <use transform="translate(80.67519 0)scale(0.996264)" xlink:href="#CMSS17-104"/>
      <use transform="translate(128.880133 0)scale(0.996264)" xlink:href="#CMSS17-101"/>
      <use transform="translate(170.518955 0)scale(0.996264)" xlink:href="#CMSS17-114"/>
      <use transform="translate(202.428728 0)scale(0.996264)" xlink:href="#CMSS17-115"/>
     </g>
    </g>
   </g>
  </g>
 </g>
</svg>
